<?xml version="1.0" encoding="UTF-8" standalone="no"?>
<svg
   xmlns:dc="http://purl.org/dc/elements/1.1/"
   xmlns:cc="http://creativecommons.org/ns#"
   xmlns:rdf="http://www.w3.org/1999/02/22-rdf-syntax-ns#"
   xmlns:svg="http://www.w3.org/2000/svg"
   xmlns="http://www.w3.org/2000/svg"
   viewBox="0 0 568.44397 576.22803"
   height="576.22803"
   width="568.44397"
   xml:space="preserve"
   id="svg2"
   version="1.1"><metadata
     id="metadata8"><rdf:RDF><cc:Work
         rdf:about=""><dc:format>image/svg+xml</dc:format><dc:type
           rdf:resource="http://purl.org/dc/dcmitype/StillImage" /></cc:Work></rdf:RDF></metadata><defs
     id="defs6" /><g
     transform="matrix(1.3333333,0,0,-1.3333333,0,576.228)"
     id="g10"><g
       transform="translate(68.256,60.294)"
       id="g12"><g
         id="g14"><g
           id="g16"><path
             id="path18"
             style="fill:none;stroke:#000000;stroke-width:0.3985;stroke-linecap:butt;stroke-linejoin:miter;stroke-miterlimit:10;stroke-dasharray:none;stroke-opacity:1"
             d="M 0,0 V 0.3985 M 0,0 v 172.34853 m 0,23.81141 V 368.5085 M 0,368.11 v 0.3985 h 0.3985 m -0.3985,0 56.69362,-3e-5 m 0,0 56.69362,3e-5 m -0.39852,0 h 0.39852 v -14.17337 -0.39852 m 0,0.39852 v -10.77182 m 0,-63.49678 v -10.77182 m 0,0.39849 v -0.39849 -0.3985 m 0,0.3985 v -18.70877 m 0,-47.62288 v -18.70877 m 0,0.39851 v -0.39851 -0.3985 m 0,0.3985 v -18.70877 m 0,-47.62287 V 99.21388 m 0,0.3985 V 99.21388 85.0405 m 0,-113.38723 v 13.03949 m 0,87.30824 v 13.0395 m 0,-113.38723 -113.38724,0 V 0" /><g
             id="g20" /><g
             id="g22" /><g
             id="g24"><path
               id="path26"
               style="fill:none;stroke:#000000;stroke-width:0.79699999;stroke-linecap:butt;stroke-linejoin:miter;stroke-miterlimit:10;stroke-dasharray:none;stroke-opacity:1"
               d="m -23.81143,196.15994 h 47.62286 m -35.71713,-7.93713 h 23.8114 m -35.71713,-7.93715 h 47.62286 m -35.71713,-7.93713 h 23.8114" /><g
               transform="matrix(0,-2,-2,0,0,184.251)"
               id="g28"><g
                 id="g30" /><g
                 transform="translate(0,-184.251)"
                 id="g32" /></g></g><g
             id="g34" /><g
             id="g36" /><g
             id="g38"><g
               transform="matrix(2,0,0,2,-61.615,177.388)"
               id="g40"><g
                 id="g42"><g
                   transform="translate(-6.641,-237.682)"
                   id="g44"><text
                     id="text48"
                     style="font-variant:normal;font-weight:normal;font-size:9.96263981px;font-family:LMRoman10;-inkscape-font-specification:LMRoman10-Regular;writing-mode:lr-tb;fill:#000000;fill-opacity:1;fill-rule:nonzero;stroke:none"
                     transform="matrix(1,0,0,-1,6.641,237.682)"><tspan
                       id="tspan46"
                       y="0"
                       x="0 6.635118">5V</tspan></text>
<g
                     transform="translate(6.641,237.682)"
                     id="g50" /></g></g><g
                 transform="translate(61.615,-177.388)"
                 id="g52" /></g></g><g
             id="g54" /><g
             id="g56" /><g
             id="g58"><g
               transform="matrix(2,0,0,2,56.693,368.503)"
               id="g60"><g
                 id="g62" /><g
                 transform="translate(-56.693,-368.503)"
                 id="g64" /></g></g><g
             id="g66" /><g
             id="g68" /><g
             id="g70"><g
               transform="matrix(2,0,0,2,113.386,368.503)"
               id="g72"><g
                 id="g74" /><g
                 transform="translate(-113.386,-368.503)"
                 id="g76" /></g><g
               id="g78"><g
                 id="g80"><path
                   id="path82"
                   style="fill:#000000;fill-opacity:1;fill-rule:nonzero;stroke:#000000;stroke-width:0.3985;stroke-linecap:butt;stroke-linejoin:miter;stroke-miterlimit:10;stroke-dasharray:none;stroke-opacity:1"
                   d="m 116.56152,368.5085 c 0,1.75313 -1.42117,3.1743 -3.17428,3.1743 -1.75313,0 -3.1743,-1.42117 -3.1743,-3.1743 0,-1.75311 1.42117,-3.17429 3.1743,-3.17429 1.75311,0 3.17428,1.42118 3.17428,3.17429 z" /></g></g></g><g
             id="g84" /><g
             id="g86" /><g
             id="g88" /><g
             id="g90"><path
               id="path92"
               style="fill:none;stroke:#000000;stroke-width:0.79699999;stroke-linecap:butt;stroke-linejoin:bevel;stroke-miterlimit:10;stroke-dasharray:none;stroke-opacity:1"
               d="m 113.38724,343.9618 11.9057,-5.72308 -23.81142,-10.64917 23.81142,-10.64917 -23.81142,-10.64917 23.81142,-10.64917 -23.81142,-10.64917 11.90572,-5.32458" /><g
               transform="matrix(0,-2,2,0,113.386,311.811)"
               id="g94"><g
                 id="g96" /><g
                 transform="translate(-113.386,-311.811)"
                 id="g98" /></g></g><g
             id="g100" /><g
             id="g102" /><g
             id="g104"><g
               transform="matrix(2,0,0,2,133.522,306.497)"
               id="g106"><g
                 id="g108"><g
                   transform="translate(-201.778,-366.791)"
                   id="g110"><text
                     id="text114"
                     style="font-variant:normal;font-weight:normal;font-size:9.96263981px;font-family:LMMathItalic10;-inkscape-font-specification:LMMathItalic10-Regular;writing-mode:lr-tb;fill:#000000;fill-opacity:1;fill-rule:nonzero;stroke:none"
                     transform="matrix(1,0,0,-1,201.778,366.791)"><tspan
                       id="tspan112"
                       y="0"
                       x="0">R</tspan></text>
<text
                     id="text118"
                     style="font-variant:normal;font-weight:normal;font-size:6.97384977px;font-family:LMMathItalic7;-inkscape-font-specification:LMMathItalic7-Regular;writing-mode:lr-tb;fill:#000000;fill-opacity:1;fill-rule:nonzero;stroke:none"
                     transform="matrix(1,0,0,-1,209.342,365.297)"><tspan
                       id="tspan116"
                       y="0"
                       x="0">a</tspan></text>
<g
                     transform="translate(201.778,366.791)"
                     id="g120" /></g></g><g
                 transform="translate(-133.522,-306.497)"
                 id="g122" /></g></g><g
             id="g124" /><g
             id="g126" /><g
             id="g128"><path
               id="path130"
               style="fill:none;stroke:#000000;stroke-width:0.79699999;stroke-linecap:butt;stroke-linejoin:bevel;stroke-miterlimit:10;stroke-dasharray:none;stroke-opacity:1"
               d="m 113.22786,250.98444 c 6.57539,0 11.9057,-3.23383 11.9057,-7.22301 0,-3.98918 -5.33031,-7.22301 -11.9057,-7.22301 -3.28752,0 -5.95255,1.33252 -5.95255,2.97629 0,1.64375 2.66503,2.97627 5.95255,2.97627 6.57539,0 11.9057,-3.23382 11.9057,-7.22301 0,-3.98917 -5.33031,-7.223 -11.9057,-7.223 -3.28752,0 -5.95255,1.3325 -5.95255,2.97627 0,1.64376 2.66503,2.97627 5.95255,2.97627 6.57539,0 11.9057,-3.23382 11.9057,-7.22301 0,-3.98918 -5.33031,-7.223 -11.9057,-7.223 -3.28752,0 -5.95255,1.3325 -5.95255,2.97627 0,1.64375 2.66503,2.97627 5.95255,2.97627 6.57539,0 11.9057,-3.23382 11.9057,-7.223 0,-3.98919 -5.33031,-7.22301 -11.9057,-7.22301 -3.28752,0 -5.95255,1.33252 -5.95255,2.97627 0,1.64375 2.66503,2.97627 5.95255,2.97627 6.57539,0 11.9057,-3.23382 11.9057,-7.223 0,-3.98918 -5.33031,-7.22301 -11.9057,-7.22301" /><g
               transform="matrix(0,-2,2,0,113.386,226.771)"
               id="g132"><g
                 id="g134" /><g
                 transform="translate(-113.386,-226.771)"
                 id="g136" /></g></g><g
             id="g138" /><g
             id="g140" /><g
             id="g142"><g
               transform="matrix(2,0,0,2,133.522,221.458)"
               id="g144"><g
                 id="g146"><g
                   transform="translate(-201.778,-281.752)"
                   id="g148"><text
                     id="text152"
                     style="font-variant:normal;font-weight:normal;font-size:9.96263981px;font-family:LMMathItalic10;-inkscape-font-specification:LMMathItalic10-Regular;writing-mode:lr-tb;fill:#000000;fill-opacity:1;fill-rule:nonzero;stroke:none"
                     transform="matrix(1,0,0,-1,201.778,281.752)"><tspan
                       id="tspan150"
                       y="0"
                       x="0">L</tspan></text>
<text
                     id="text156"
                     style="font-variant:normal;font-weight:normal;font-size:6.97384977px;font-family:LMMathItalic7;-inkscape-font-specification:LMMathItalic7-Regular;writing-mode:lr-tb;fill:#000000;fill-opacity:1;fill-rule:nonzero;stroke:none"
                     transform="matrix(1,0,0,-1,208.558,280.257)"><tspan
                       id="tspan154"
                       y="0"
                       x="0">a</tspan></text>
<g
                     transform="translate(201.778,281.752)"
                     id="g158" /></g></g><g
                 transform="translate(-133.522,-221.458)"
                 id="g160" /></g></g><g
             id="g162" /><g
             id="g164" /><g
             id="g166"><path
               id="path168"
               style="fill:none;stroke:#000000;stroke-width:0.79699999;stroke-linecap:butt;stroke-linejoin:miter;stroke-miterlimit:10;stroke-dasharray:none;stroke-opacity:1"
               d="m 137.19867,141.73409 c 0,13.15084 -10.66058,23.81143 -23.81143,23.81143 -13.15087,0 -23.81145,-10.66059 -23.81145,-23.81143 0,-13.15085 10.66058,-23.81144 23.81145,-23.81144 13.15085,0 23.81143,10.66059 23.81143,23.81144 z" /><g
               transform="matrix(2,0,0,2,105.637,126.725)"
               id="g170"><g
                 transform="translate(-173.893,-187.019)"
                 id="g172"><text
                   id="text176"
                   style="font-variant:normal;font-weight:normal;font-size:9.96263981px;font-family:LMMathSymbols10;-inkscape-font-specification:LMMathSymbols10-Regular;writing-mode:lr-tb;fill:#000000;fill-opacity:1;fill-rule:nonzero;stroke:none"
                   transform="matrix(1,0,0,-1,173.893,187.019)"><tspan
                     id="tspan174"
                     y="0"
                     x="0">−</tspan></text>
<g
                   transform="translate(173.893,187.019)"
                   id="g178" /></g><g
                 transform="translate(-105.637,-126.725)"
                 id="g180" /></g><g
               transform="matrix(2,0,0,2,105.637,146.783)"
               id="g182"><g
                 transform="translate(-173.893,-207.077)"
                 id="g184"><text
                   id="text188"
                   style="font-variant:normal;font-weight:normal;font-size:9.96263981px;font-family:LMRoman10;-inkscape-font-specification:LMRoman10-Regular;writing-mode:lr-tb;fill:#000000;fill-opacity:1;fill-rule:nonzero;stroke:none"
                   transform="matrix(1,0,0,-1,173.893,207.077)"><tspan
                     id="tspan186"
                     y="0"
                     x="0">+</tspan></text>
<g
                   transform="translate(173.893,207.077)"
                   id="g190" /></g><g
                 transform="translate(-105.637,-146.783)"
                 id="g192" /></g><g
               transform="matrix(0,-2,2,0,113.386,141.732)"
               id="g194"><g
                 id="g196" /><g
                 transform="translate(-113.386,-141.732)"
                 id="g198" /></g></g><g
             id="g200" /><g
             id="g202" /><g
             id="g204" /><g
             id="g206" /><g
             id="g208" /><g
             id="g210"><g
               transform="matrix(2,0,0,2,146.581,136.308)"
               id="g212"><g
                 id="g214"><g
                   transform="translate(-214.837,-196.602)"
                   id="g216"><text
                     id="text220"
                     style="font-variant:normal;font-weight:normal;font-size:9.96263981px;font-family:LMMathItalic10;-inkscape-font-specification:LMMathItalic10-Regular;writing-mode:lr-tb;fill:#000000;fill-opacity:1;fill-rule:nonzero;stroke:none"
                     transform="matrix(1,0,0,-1,214.837,196.602)"><tspan
                       id="tspan218"
                       y="0"
                       x="0">k</tspan></text>
<text
                     id="text224"
                     style="font-variant:normal;font-weight:normal;font-size:6.97384977px;font-family:LMMathItalic7;-inkscape-font-specification:LMMathItalic7-Regular;writing-mode:lr-tb;fill:#000000;fill-opacity:1;fill-rule:nonzero;stroke:none"
                     transform="matrix(1,0,0,-1,220.024,195.107)"><tspan
                       id="tspan222"
                       y="0"
                       x="0">e</tspan></text>
<text
                     id="text228"
                     style="font-variant:normal;font-weight:normal;font-size:9.96263981px;font-family:LMMathItalic10;-inkscape-font-specification:LMMathItalic10-Regular;writing-mode:lr-tb;fill:#000000;fill-opacity:1;fill-rule:nonzero;stroke:none"
                     transform="matrix(1,0,0,-1,224.302,196.602)"><tspan
                       id="tspan226"
                       y="0"
                       x="0">ω</tspan></text>
<g
                     transform="translate(214.837,196.602)"
                     id="g230" /></g></g><g
                 transform="translate(-146.581,-136.308)"
                 id="g232" /></g></g><g
             id="g234" /><g
             id="g236"><g
               transform="matrix(2,0,0,2,113.386,85.039)"
               id="g238"><g
                 id="g240" /><g
                 transform="translate(-113.386,-85.039)"
                 id="g242" /></g><g
               id="g244"><g
                 id="g246"><path
                   id="path248"
                   style="fill:#000000;fill-opacity:1;fill-rule:nonzero;stroke:#000000;stroke-width:0.3985;stroke-linecap:butt;stroke-linejoin:miter;stroke-miterlimit:10;stroke-dasharray:none;stroke-opacity:1"
                   d="m 116.56152,85.0405 c 0,1.75312 -1.42117,3.1743 -3.17428,3.1743 -1.75313,0 -3.1743,-1.42118 -3.1743,-3.1743 0,-1.75313 1.42117,-3.1743 3.1743,-3.1743 1.75311,0 3.17428,1.42117 3.17428,3.1743 z" /></g></g></g><g
             id="g250" /><g
             id="g252" /><g
             id="g254"><path
               id="path256"
               style="fill:none;stroke:#000000;stroke-width:0.3985;stroke-linecap:butt;stroke-linejoin:miter;stroke-miterlimit:10;stroke-dasharray:none;stroke-opacity:1"
               d="M 113.38724,72.20024 V 43.62608 h 27.77963" /><g
               id="g258"><path
                 id="path260"
                 style="fill:none;stroke:#000000;stroke-width:0.79699999;stroke-linecap:butt;stroke-linejoin:miter;stroke-miterlimit:10;stroke-dasharray:none;stroke-opacity:1"
                 d="M 141.16687,50.17393 V 38.16896 m 0,-4.36533 V 22.89012 m 0,-4.36532 V 6.51982" /></g><path
               id="path262"
               style="fill:none;stroke:#000000;stroke-width:0.3985;stroke-linecap:butt;stroke-linejoin:miter;stroke-miterlimit:10;stroke-dasharray:none;stroke-opacity:1"
               d="M 141.16687,28.34688 H 113.18799 M 141.16687,13.06767 H 113.38724 V -15.50647" /><g
               id="g264"><path
                 id="path266"
                 style="fill:none;stroke:#000000;stroke-width:0.79699999;stroke-linecap:butt;stroke-linejoin:miter;stroke-miterlimit:10;stroke-dasharray:none;stroke-opacity:1"
                 d="M 147.8337,43.82532 V 12.86844" /></g><g
               id="g268"><g
                 transform="matrix(2,0,0,-2,130.054,28.346)"
                 id="g270"><g
                   id="g272" /><g
                   transform="translate(-130.054,-28.346)"
                   id="g274" /></g><g
                 id="g276"><g
                   id="g278"><path
                     id="path280"
                     style="fill:#000000;fill-opacity:1;fill-rule:nonzero;stroke:#000000;stroke-width:0.3985;stroke-linecap:butt;stroke-linejoin:miter;stroke-miterlimit:10;stroke-dasharray:none;stroke-opacity:1"
                     d="m 126.58273,28.34688 v 3.9685 l 8.43309,-3.9685 -8.43309,-3.96851 v 3.96851" /></g></g></g><path
               id="path282"
               style="fill:none;stroke:#000000;stroke-width:0.3985;stroke-linecap:butt;stroke-linejoin:miter;stroke-miterlimit:10;stroke-dasharray:none;stroke-opacity:1"
               d="m 147.8337,13.06767 h 21.31205" /><path
               id="path284"
               style="fill:none;stroke:#000000;stroke-width:0.3985;stroke-linecap:butt;stroke-linejoin:miter;stroke-miterlimit:10;stroke-dasharray:none;stroke-opacity:1"
               d="M 113.38724,28.34688 V -15.30724" /><g
               id="g286"><g
                 transform="matrix(-2,0,0,2,113.386,13.067)"
                 id="g288"><g
                   id="g290" /><g
                   transform="translate(-113.386,-13.067)"
                   id="g292" /></g><g
                 id="g294"><g
                   id="g296"><path
                     id="path298"
                     style="fill:#000000;fill-opacity:1;fill-rule:nonzero;stroke:#000000;stroke-width:0.3985;stroke-linecap:butt;stroke-linejoin:miter;stroke-miterlimit:10;stroke-dasharray:none;stroke-opacity:1"
                     d="m 110.21294,13.06767 c 0,1.75313 1.42117,3.1743 3.1743,3.1743 1.75311,0 3.17428,-1.42117 3.17428,-3.1743 0,-1.75313 -1.42117,-3.1743 -3.17428,-3.1743 -1.75313,0 -3.1743,1.42117 -3.1743,3.1743 z" /></g></g></g><g
               transform="matrix(-2,0,0,2,105.448,58.903)"
               id="g300"><g
                 id="g302" /><g
                 transform="translate(-105.448,-58.903)"
                 id="g304" /></g></g><g
             id="g306"><g
               transform="matrix(2,0,0,2,113.386,28.346)"
               id="g308"><g
                 id="g310" /><g
                 transform="translate(-113.386,-28.346)"
                 id="g312" /></g></g><g
             id="g314"><g
               transform="matrix(2,0,0,2,0,-28.347)"
               id="g316"><g
                 id="g318" /><g
                 transform="translate(0,28.347)"
                 id="g320" /></g><g
               id="g322"><g
                 id="g324"><path
                   id="path326"
                   style="fill:none;stroke:#000000;stroke-width:0.3985;stroke-linecap:butt;stroke-linejoin:miter;stroke-miterlimit:10;stroke-dasharray:none;stroke-opacity:1"
                   d="M 0,-28.34673 V -48.1894" /><path
                   id="path328"
                   style="fill:none;stroke:#000000;stroke-width:0.3985;stroke-linecap:butt;stroke-linejoin:miter;stroke-miterlimit:10;stroke-dasharray:none;stroke-opacity:1"
                   d="M -19.84268,-48.1894 H 19.84268" /><path
                   id="path330"
                   style="fill:none;stroke:#000000;stroke-width:0.3985;stroke-linecap:butt;stroke-linejoin:miter;stroke-miterlimit:10;stroke-dasharray:none;stroke-opacity:1"
                   d="M -15.87418,-52.15788 H 15.87418 M -11.9057,-56.12636 H 11.9057 M -7.93695,-60.09511 H 7.93695" /></g></g></g><g
             id="g332"><g
               transform="matrix(2,0,0,2,0,-28.347)"
               id="g334"><g
                 id="g336" /><g
                 transform="translate(0,28.347)"
                 id="g338" /></g><g
               id="g340"><g
                 id="g342"><path
                   id="path344"
                   style="fill:#000000;fill-opacity:1;fill-rule:nonzero;stroke:#000000;stroke-width:0.3985;stroke-linecap:butt;stroke-linejoin:miter;stroke-miterlimit:10;stroke-dasharray:none;stroke-opacity:1"
                   d="m 3.17429,-28.34673 c 0,1.75313 -1.42118,3.17431 -3.17429,3.17431 -1.75311,0 -3.17429,-1.42118 -3.17429,-3.17431 0,-1.75312 1.42118,-3.1743 3.17429,-3.1743 1.75311,0 3.17429,1.42118 3.17429,3.1743 z" /></g></g></g><path
             id="path346"
             style="fill:none;stroke:#000000;stroke-width:0.3985;stroke-linecap:butt;stroke-linejoin:miter;stroke-miterlimit:10;stroke-dasharray:none;stroke-opacity:1"
             d="m 113.38724,368.5085 70.86699,-3e-5 m 0,0 70.86703,3e-5 m -0.3985,0 h 0.3985 V 368.11 m 0,0.3985 -3e-5,-125.86015 m 0,-31.74782 3e-5,-125.86013 m 0,0.3985 v -0.3985 10e-5 H 116.56152" /><g
             id="g348" /><g
             id="g350" /><g
             id="g352"><g
               transform="matrix(2,0,0,2,184.252,368.503)"
               id="g354"><g
                 id="g356" /><g
                 transform="translate(-184.252,-368.503)"
                 id="g358" /></g></g><g
             id="g360" /><g
             id="g362" /><g
             id="g364" /><g
             id="g366" /><g
             id="g368"><g
               id="g370"><path
                 id="path372"
                 style="fill:none;stroke:#000000;stroke-width:0.79699999;stroke-linecap:butt;stroke-linejoin:miter;stroke-miterlimit:10;stroke-dasharray:none;stroke-opacity:1"
                 d="m 255.12123,242.64835 19.8427,-31.74782 h -39.68538 l 19.84268,31.74782" /></g><path
               id="path374"
               style="fill:none;stroke:#000000;stroke-width:0.79699999;stroke-linecap:butt;stroke-linejoin:miter;stroke-miterlimit:10;stroke-dasharray:none;stroke-opacity:1"
               d="m 235.27855,242.64835 h 39.68538" /><g
               transform="matrix(0,2,2,0,255.118,226.771)"
               id="g376"><g
                 id="g378" /><g
                 transform="translate(-255.118,-226.771)"
                 id="g380" /></g></g><g
             id="g382" /><g
             id="g384" /><path
             id="path386"
             style="fill:none;stroke:#000000;stroke-width:0.3985;stroke-linecap:butt;stroke-linejoin:miter;stroke-miterlimit:10;stroke-dasharray:none;stroke-opacity:1"
             d="m 168.9465,13.06767 h 0.39852 m -0.39852,0 h 19.27594 m 63.49677,0 h 19.27597 m -0.39852,0 h 0.39852" /><g
             id="g388" /><g
             id="g390" /><g
             id="g392"><path
               id="path394"
               style="fill:none;stroke:#000000;stroke-width:0.79699999;stroke-linecap:butt;stroke-linejoin:bevel;stroke-miterlimit:10;stroke-dasharray:none;stroke-opacity:1"
               d="m 187.82393,13.06767 5.7231,11.9057 10.64915,-23.8114 10.64917,23.8114 10.64917,-23.8114 10.64917,23.8114 10.64917,-23.8114 5.32459,11.9057" /><g
               transform="matrix(2,0,0,2,219.968,13.067)"
               id="g396"><g
                 id="g398" /><g
                 transform="translate(-219.968,-13.067)"
                 id="g400" /></g></g><g
             id="g402" /><g
             id="g404" /><g
             id="g406"><g
               transform="matrix(2,0,0,2,270.992,13.067)"
               id="g408"><g
                 id="g410" /><g
                 transform="translate(-270.992,-13.067)"
                 id="g412" /></g><g
               id="g414"><g
                 id="g416"><path
                   id="path418"
                   style="fill:#ffffff;fill-opacity:1;fill-rule:nonzero;stroke:#000000;stroke-width:0.3985;stroke-linecap:butt;stroke-linejoin:miter;stroke-miterlimit:10;stroke-dasharray:none;stroke-opacity:1"
                   d="m 274.16946,13.06767 c 0,1.75313 -1.42117,3.1743 -3.17428,3.1743 -1.75313,0 -3.1743,-1.42117 -3.1743,-3.1743 0,-1.75313 1.42117,-3.1743 3.1743,-3.1743 1.75311,0 3.17428,1.42117 3.17428,3.1743 z" /></g></g></g><g
             id="g420"><g
               transform="matrix(2,0,0,2,278.031,6.153)"
               id="g422"><g
                 id="g424"><g
                   transform="translate(-346.287,-66.447)"
                   id="g426"><text
                     id="text430"
                     style="font-variant:normal;font-weight:normal;font-size:9.96263981px;font-family:LMRoman10;-inkscape-font-specification:LMRoman10-Regular;writing-mode:lr-tb;fill:#000000;fill-opacity:1;fill-rule:nonzero;stroke:none"
                     transform="matrix(1,0,0,-1,346.287,66.447)"><tspan
                       id="tspan428"
                       y="0"
                       x="0 7.4719801 11.377335 16.916563 24.109589 31.721046">Ard.D9</tspan></text>
<g
                     transform="translate(346.287,66.447)"
                     id="g432" /></g></g><g
                 transform="translate(-278.031,-6.153)"
                 id="g434" /></g></g><g
             id="g436" /><g
             id="g438" /><g
             id="g440"><path
               id="path442"
               style="fill:none;stroke:#000000;stroke-width:0.3985;stroke-linecap:butt;stroke-linejoin:miter;stroke-miterlimit:10;stroke-dasharray:0.3985, 1.99255;stroke-dashoffset:0;stroke-opacity:1"
               d="M 192.75795,354.33513 V 99.21388 H 79.37074 v 255.12125 h 113.38721" /><g
               id="g444"><g
                 transform="matrix(0,2,-2,0,77.377,200.729)"
                 id="g446"><g
                   id="g448"><g
                     transform="translate(-145.633,-261.023)"
                     id="g450"><text
                       id="text454"
                       style="font-variant:normal;font-weight:normal;font-size:9.96263981px;font-family:LMRoman10;-inkscape-font-specification:LMRoman10-Regular;writing-mode:lr-tb;fill:#000000;fill-opacity:1;fill-rule:nonzero;stroke:none"
                       transform="matrix(1,0,0,-1,145.633,261.023)"><tspan
                         id="tspan452"
                         y="0"
                         x="0 8.2988787 13.280199 17.155666 22.136986">motor</tspan></text>
<g
                       transform="translate(145.633,261.023)"
                       id="g456" /></g></g><g
                   transform="translate(-77.377,-200.729)"
                   id="g458" /></g></g></g></g></g></g></g></svg>