<?xml version="1.0" encoding="UTF-8" standalone="no"?>
<svg
   xmlns:dc="http://purl.org/dc/elements/1.1/"
   xmlns:cc="http://creativecommons.org/ns#"
   xmlns:rdf="http://www.w3.org/1999/02/22-rdf-syntax-ns#"
   xmlns:svg="http://www.w3.org/2000/svg"
   xmlns="http://www.w3.org/2000/svg"
   viewBox="0 0 568.44397 349.45599"
   height="349.45599"
   width="568.44397"
   xml:space="preserve"
   id="svg2"
   version="1.1"><metadata
     id="metadata8"><rdf:RDF><cc:Work
         rdf:about=""><dc:format>image/svg+xml</dc:format><dc:type
           rdf:resource="http://purl.org/dc/dcmitype/StillImage" /></cc:Work></rdf:RDF></metadata><defs
     id="defs6" /><g
     transform="matrix(1.3333333,0,0,-1.3333333,0,349.456)"
     id="g10"><g
       transform="translate(68.256,31.947)"
       id="g12"><g
         id="g14"><g
           id="g16"><path
             id="path18"
             style="fill:none;stroke:#000000;stroke-width:0.3985;stroke-linecap:butt;stroke-linejoin:miter;stroke-miterlimit:10;stroke-dasharray:none;stroke-opacity:1"
             d="M 0,0 V 0.3985 M 0,0 v 101.48152 m 0,23.81142 v 101.48154 m 0,-0.39852 v 0.39852 h 0.3985 m -0.3985,0 h 56.69362 m 0,0 h 56.69362 m -0.39852,0 h 0.39852 m 0,0 v -88.44202 m 0,63.49678 v -88.442 M 113.38724,0 v 13.03949 m 0,87.30824 v 13.03951 M 113.38724,0 h -0.39852 m 0.39852,0 H 56.69362 m 0,0 L 0,0 M 0.3985,0 H 0" /><g
             id="g20"><g
               transform="scale(2)"
               id="g22"><g
                 id="g24" /></g><g
               id="g26"><g
                 id="g28"><path
                   id="path30"
                   style="fill:none;stroke:#000000;stroke-width:0.3985;stroke-linecap:butt;stroke-linejoin:miter;stroke-miterlimit:10;stroke-dasharray:none;stroke-opacity:1"
                   d="M 0,0 V -19.84268" /><path
                   id="path32"
                   style="fill:none;stroke:#000000;stroke-width:0.3985;stroke-linecap:butt;stroke-linejoin:miter;stroke-miterlimit:10;stroke-dasharray:none;stroke-opacity:1"
                   d="M -19.84268,-19.84268 H 19.84268" /><path
                   id="path34"
                   style="fill:none;stroke:#000000;stroke-width:0.3985;stroke-linecap:butt;stroke-linejoin:miter;stroke-miterlimit:10;stroke-dasharray:none;stroke-opacity:1"
                   d="M -15.87418,-23.81116 H 15.87418 M -11.9057,-27.77963 H 11.9057 M -7.93695,-31.74838 H 7.93695" /></g></g></g><g
             id="g36" /><g
             id="g38" /><g
             id="g40"><path
               id="path42"
               style="fill:none;stroke:#000000;stroke-width:0.79699999;stroke-linecap:butt;stroke-linejoin:miter;stroke-miterlimit:10;stroke-dasharray:none;stroke-opacity:1"
               d="M -23.81143,125.29294 H 23.81143 M -11.9057,117.3558 h 23.8114 m -35.71713,-7.93713 h 47.62286 m -35.71713,-7.93715 h 23.8114" /><g
               transform="matrix(0,-2,-2,0,0,113.386)"
               id="g44"><g
                 id="g46" /><g
                 transform="translate(0,-113.386)"
                 id="g48" /></g></g><g
             id="g50" /><g
             id="g52" /><g
             id="g54"><g
               transform="scale(2)"
               id="g56"><g
                 id="g58" /></g><g
               id="g60"><g
                 id="g62"><path
                   id="path64"
                   style="fill:#000000;fill-opacity:1;fill-rule:nonzero;stroke:#000000;stroke-width:0.3985;stroke-linecap:butt;stroke-linejoin:miter;stroke-miterlimit:10;stroke-dasharray:none;stroke-opacity:1"
                   d="M 3.17429,0 C 3.17429,1.75311 1.75311,3.17429 0,3.17429 -1.75311,3.17429 -3.17429,1.75311 -3.17429,0 c 0,-1.75311 1.42118,-3.17429 3.17429,-3.17429 1.75311,0 3.17429,1.42118 3.17429,3.17429 z" /></g></g></g><g
             id="g66"><g
               transform="matrix(2,0,0,2,-61.615,106.523)"
               id="g68"><g
                 id="g70"><g
                   transform="translate(-6.641,-138.47)"
                   id="g72"><text
                     id="text76"
                     style="font-variant:normal;font-weight:normal;font-size:9.96263981px;font-family:LMRoman10;-inkscape-font-specification:LMRoman10-Regular;writing-mode:lr-tb;fill:#000000;fill-opacity:1;fill-rule:nonzero;stroke:none"
                     transform="matrix(1,0,0,-1,6.641,138.47)"><tspan
                       id="tspan74"
                       y="0"
                       x="0 6.635118">5V</tspan></text>
<g
                     transform="translate(6.641,138.47)"
                     id="g78" /></g></g><g
                 transform="translate(61.615,-106.523)"
                 id="g80" /></g></g><g
             id="g82" /><g
             id="g84" /><g
             id="g86"><g
               transform="matrix(2,0,0,2,56.693,226.772)"
               id="g88"><g
                 id="g90" /><g
                 transform="translate(-56.693,-226.772)"
                 id="g92" /></g></g><g
             id="g94" /><g
             id="g96" /><g
             id="g98" /><g
             id="g100" /><g
             id="g102" /><g
             id="g104"><g
               id="g106"><path
                 id="path108"
                 style="fill:#000000;fill-opacity:1;fill-rule:nonzero;stroke:#000000;stroke-width:0.79699999;stroke-linecap:butt;stroke-linejoin:miter;stroke-miterlimit:10;stroke-dasharray:none;stroke-opacity:1"
                 d="m 101.48149,138.33243 h 23.81145 v 63.49681 h -23.81145 z" /><path
                 id="path110"
                 style="fill:#ffffff;fill-opacity:1;fill-rule:nonzero;stroke:#000000;stroke-width:0.79699999;stroke-linecap:butt;stroke-linejoin:miter;stroke-miterlimit:10;stroke-dasharray:none;stroke-opacity:1"
                 d="m 89.57579,170.08086 c 0,-13.15086 10.66058,-23.81145 23.81145,-23.81145 13.15085,0 23.81143,10.66059 23.81143,23.81145 0,13.15084 -10.66058,23.81143 -23.81143,23.81143 -13.15087,0 -23.81145,-10.66059 -23.81145,-23.81143 z" /></g><g
               transform="matrix(-2,0,0,-2,113.386,170.079)"
               id="g112"><g
                 id="g114" /><g
                 transform="translate(-113.386,-170.079)"
                 id="g116" /></g></g><g
             id="g118"><g
               transform="matrix(2,0,0,2,104.25,163.274)"
               id="g120"><g
                 id="g122"><g
                   transform="translate(-172.506,-195.221)"
                   id="g124"><text
                     id="text128"
                     style="font-variant:normal;font-weight:normal;font-size:9.96263981px;font-family:LMRoman10;-inkscape-font-specification:LMRoman10-Regular;writing-mode:lr-tb;fill:#000000;fill-opacity:1;fill-rule:nonzero;stroke:none"
                     transform="matrix(1,0,0,-1,172.506,195.221)"><tspan
                       id="tspan126"
                       y="0"
                       x="0">M</tspan></text>
<g
                     transform="translate(172.506,195.221)"
                     id="g130" /></g></g><g
                 transform="translate(-104.25,-163.274)"
                 id="g132" /></g></g><g
             id="g134" /><g
             id="g136" /><g
             id="g138" /><g
             id="g140"><path
               id="path142"
               style="fill:none;stroke:#000000;stroke-width:0.3985;stroke-linecap:butt;stroke-linejoin:miter;stroke-miterlimit:10;stroke-dasharray:none;stroke-opacity:1"
               d="M 113.38724,100.54697 V 71.97282 h 27.77963" /><g
               id="g144"><path
                 id="path146"
                 style="fill:none;stroke:#000000;stroke-width:0.79699999;stroke-linecap:butt;stroke-linejoin:miter;stroke-miterlimit:10;stroke-dasharray:none;stroke-opacity:1"
                 d="M 141.16687,78.52068 V 66.5157 m 0,-4.36534 v -10.9135 m 0,-4.36534 V 34.86655" /></g><path
               id="path148"
               style="fill:none;stroke:#000000;stroke-width:0.3985;stroke-linecap:butt;stroke-linejoin:miter;stroke-miterlimit:10;stroke-dasharray:none;stroke-opacity:1"
               d="M 141.16687,56.69362 H 113.18799 M 141.16687,41.41441 H 113.38724 V 12.84026" /><g
               id="g150"><path
                 id="path152"
                 style="fill:none;stroke:#000000;stroke-width:0.79699999;stroke-linecap:butt;stroke-linejoin:miter;stroke-miterlimit:10;stroke-dasharray:none;stroke-opacity:1"
                 d="M 147.8337,72.17206 V 41.21516" /></g><g
               id="g154"><g
                 transform="matrix(2,0,0,-2,130.054,56.693)"
                 id="g156"><g
                   id="g158" /><g
                   transform="translate(-130.054,-56.693)"
                   id="g160" /></g><g
                 id="g162"><g
                   id="g164"><path
                     id="path166"
                     style="fill:#000000;fill-opacity:1;fill-rule:nonzero;stroke:#000000;stroke-width:0.3985;stroke-linecap:butt;stroke-linejoin:miter;stroke-miterlimit:10;stroke-dasharray:none;stroke-opacity:1"
                     d="m 126.58273,56.69362 v 3.9685 l 8.43309,-3.9685 -8.43309,-3.96852 v 3.96852" /></g></g></g><path
               id="path168"
               style="fill:none;stroke:#000000;stroke-width:0.3985;stroke-linecap:butt;stroke-linejoin:miter;stroke-miterlimit:10;stroke-dasharray:none;stroke-opacity:1"
               d="m 147.8337,41.41441 h 21.31205" /><path
               id="path170"
               style="fill:none;stroke:#000000;stroke-width:0.3985;stroke-linecap:butt;stroke-linejoin:miter;stroke-miterlimit:10;stroke-dasharray:none;stroke-opacity:1"
               d="M 113.38724,56.69362 V 13.03949" /><g
               id="g172"><g
                 transform="matrix(-2,0,0,2,113.386,41.414)"
                 id="g174"><g
                   id="g176" /><g
                   transform="translate(-113.386,-41.414)"
                   id="g178" /></g><g
                 id="g180"><g
                   id="g182"><path
                     id="path184"
                     style="fill:#000000;fill-opacity:1;fill-rule:nonzero;stroke:#000000;stroke-width:0.3985;stroke-linecap:butt;stroke-linejoin:miter;stroke-miterlimit:10;stroke-dasharray:none;stroke-opacity:1"
                     d="m 110.21294,41.41441 c 0,1.75312 1.42117,3.17429 3.1743,3.17429 1.75311,0 3.17428,-1.42117 3.17428,-3.17429 0,-1.75312 -1.42117,-3.1743 -3.17428,-3.1743 -1.75313,0 -3.1743,1.42118 -3.1743,3.1743 z" /></g></g></g><g
               transform="matrix(-2,0,0,2,105.448,87.25)"
               id="g186"><g
                 id="g188" /><g
                 transform="translate(-105.448,-87.25)"
                 id="g190" /></g></g><g
             id="g192"><g
               transform="matrix(2,0,0,2,113.386,56.693)"
               id="g194"><g
                 id="g196" /><g
                 transform="translate(-113.386,-56.693)"
                 id="g198" /></g></g><g
             id="g200" /><g
             id="g202" /><g
             id="g204"><g
               transform="matrix(-2,0,0,-2,56.693,0)"
               id="g206"><g
                 id="g208" /><g
                 transform="translate(-56.693)"
                 id="g210" /></g></g><g
             id="g212" /><g
             id="g214" /><path
             id="path216"
             style="fill:none;stroke:#000000;stroke-width:0.3985;stroke-linecap:butt;stroke-linejoin:miter;stroke-miterlimit:10;stroke-dasharray:none;stroke-opacity:1"
             d="m 113.38724,226.77448 h 0.3985 m -0.3985,0 h 56.69362 m 0,0 h 56.69362 m -0.39852,0 h 0.39852 v -0.39852 m 0,0.39852 v -40.81972 m 0,-31.74782 v -40.8197 m 0,0.3985 v -0.3985 h -0.39852 m 0.39852,0 h -56.69362 m 0,0 h -56.69362 m 0.3985,0 h -0.3985" /><g
             id="g218" /><g
             id="g220" /><g
             id="g222"><g
               transform="matrix(2,0,0,2,170.079,226.772)"
               id="g224"><g
                 id="g226" /><g
                 transform="translate(-170.079,-226.772)"
                 id="g228" /></g></g><g
             id="g230" /><g
             id="g232" /><g
             id="g234"><g
               transform="matrix(2,0,0,2,113.386,226.772)"
               id="g236"><g
                 id="g238" /><g
                 transform="translate(-113.386,-226.772)"
                 id="g240" /></g><g
               id="g242"><g
                 id="g244"><path
                   id="path246"
                   style="fill:#000000;fill-opacity:1;fill-rule:nonzero;stroke:#000000;stroke-width:0.3985;stroke-linecap:butt;stroke-linejoin:miter;stroke-miterlimit:10;stroke-dasharray:none;stroke-opacity:1"
                   d="m 116.56152,226.77448 c 0,1.75311 -1.42117,3.17428 -3.17428,3.17428 -1.75313,0 -3.1743,-1.42117 -3.1743,-3.17428 0,-1.75313 1.42117,-3.17431 3.1743,-3.17431 1.75311,0 3.17428,1.42118 3.17428,3.17431 z" /></g></g></g><g
             id="g248" /><g
             id="g250" /><g
             id="g252"><g
               id="g254"><path
                 id="path256"
                 style="fill:none;stroke:#000000;stroke-width:0.79699999;stroke-linecap:butt;stroke-linejoin:miter;stroke-miterlimit:10;stroke-dasharray:none;stroke-opacity:1"
                 d="m 226.77448,185.95476 19.84268,-31.74782 h -39.68538 l 19.8427,31.74782" /></g><path
               id="path258"
               style="fill:none;stroke:#000000;stroke-width:0.79699999;stroke-linecap:butt;stroke-linejoin:miter;stroke-miterlimit:10;stroke-dasharray:none;stroke-opacity:1"
               d="m 206.93178,185.95476 h 39.68538" /><g
               transform="matrix(0,2,2,0,226.772,170.079)"
               id="g260"><g
                 id="g262" /><g
                 transform="translate(-226.772,-170.079)"
                 id="g264" /></g></g><g
             id="g266" /><g
             id="g268" /><g
             id="g270" /><g
             id="g272" /><g
             id="g274"><g
               transform="matrix(-2,0,0,-2,170.079,113.386)"
               id="g276"><g
                 id="g278" /><g
                 transform="translate(-170.079,-113.386)"
                 id="g280" /></g></g><g
             id="g282" /><g
             id="g284" /><g
             id="g286"><g
               transform="matrix(2,0,0,2,113.386,113.386)"
               id="g288"><g
                 id="g290" /><g
                 transform="translate(-113.386,-113.386)"
                 id="g292" /></g><g
               id="g294"><g
                 id="g296"><path
                   id="path298"
                   style="fill:#000000;fill-opacity:1;fill-rule:nonzero;stroke:#000000;stroke-width:0.3985;stroke-linecap:butt;stroke-linejoin:miter;stroke-miterlimit:10;stroke-dasharray:none;stroke-opacity:1"
                   d="m 116.56152,113.38724 c 0,1.75311 -1.42117,3.17428 -3.17428,3.17428 -1.75313,0 -3.1743,-1.42117 -3.1743,-3.17428 0,-1.75313 1.42117,-3.1743 3.1743,-3.1743 1.75311,0 3.17428,1.42117 3.17428,3.1743 z" /></g></g></g><path
             id="path300"
             style="fill:none;stroke:#000000;stroke-width:0.3985;stroke-linecap:butt;stroke-linejoin:miter;stroke-miterlimit:10;stroke-dasharray:none;stroke-opacity:1"
             d="m 168.9465,41.41441 h 0.39852 m -0.39852,0 19.27594,-3e-5 m 63.49677,0 19.27597,3e-5 m -0.39852,0 h 0.39852" /><g
             id="g302" /><g
             id="g304" /><g
             id="g306"><path
               id="path308"
               style="fill:none;stroke:#000000;stroke-width:0.79699999;stroke-linecap:butt;stroke-linejoin:bevel;stroke-miterlimit:10;stroke-dasharray:none;stroke-opacity:1"
               d="m 187.82393,41.41438 5.7231,11.9057 10.64915,-23.81141 10.64917,23.81141 10.64917,-23.81141 10.64917,23.81141 10.64917,-23.81141 5.32459,11.90571" /><g
               transform="matrix(2,0,0,2,219.968,41.414)"
               id="g310"><g
                 id="g312" /><g
                 transform="translate(-219.968,-41.414)"
                 id="g314" /></g></g><g
             id="g316" /><g
             id="g318" /><g
             id="g320"><g
               transform="matrix(2,0,0,2,270.992,41.414)"
               id="g322"><g
                 id="g324" /><g
                 transform="translate(-270.992,-41.414)"
                 id="g326" /></g><g
               id="g328"><g
                 id="g330"><path
                   id="path332"
                   style="fill:#ffffff;fill-opacity:1;fill-rule:nonzero;stroke:#000000;stroke-width:0.3985;stroke-linecap:butt;stroke-linejoin:miter;stroke-miterlimit:10;stroke-dasharray:none;stroke-opacity:1"
                   d="m 274.16946,41.41441 c 0,1.75312 -1.42117,3.17429 -3.17428,3.17429 -1.75313,0 -3.1743,-1.42117 -3.1743,-3.17429 0,-1.75312 1.42117,-3.1743 3.1743,-3.1743 1.75311,0 3.17428,1.42118 3.17428,3.1743 z" /></g></g></g><g
             id="g334"><g
               transform="matrix(2,0,0,2,278.031,34.5)"
               id="g336"><g
                 id="g338"><g
                   transform="translate(-346.287,-66.447)"
                   id="g340"><text
                     id="text344"
                     style="font-variant:normal;font-weight:normal;font-size:9.96263981px;font-family:LMRoman10;-inkscape-font-specification:LMRoman10-Regular;writing-mode:lr-tb;fill:#000000;fill-opacity:1;fill-rule:nonzero;stroke:none"
                     transform="matrix(1,0,0,-1,346.287,66.447)"><tspan
                       id="tspan342"
                       y="0"
                       x="0 7.4719801 11.377335 16.916563 24.109589 31.721046">Ard.D9</tspan></text>
<g
                     transform="translate(346.287,66.447)"
                     id="g346" /></g></g><g
                 transform="translate(-278.031,-34.5)"
                 id="g348" /></g></g></g></g></g></g></svg>