<?xml version="1.0" encoding="UTF-8" standalone="no"?>
<!-- Created with Inkscape (http://www.inkscape.org/) -->

<svg
   xmlns:dc="http://purl.org/dc/elements/1.1/"
   xmlns:cc="http://creativecommons.org/ns#"
   xmlns:rdf="http://www.w3.org/1999/02/22-rdf-syntax-ns#"
   xmlns:svg="http://www.w3.org/2000/svg"
   xmlns="http://www.w3.org/2000/svg"
   xmlns:sodipodi="http://sodipodi.sourceforge.net/DTD/sodipodi-0.dtd"
   xmlns:inkscape="http://www.inkscape.org/namespaces/inkscape"
   width="164.2226mm"
   height="43.732101mm"
   viewBox="0 0 581.89109 154.95626"
   id="svg2"
   version="1.1"
   inkscape:version="0.91 r13725"
   sodipodi:docname="aviao.svg">
  <defs
     id="defs4" />
  <sodipodi:namedview
     id="base"
     pagecolor="#ffffff"
     bordercolor="#666666"
     borderopacity="1.0"
     inkscape:pageopacity="0.0"
     inkscape:pageshadow="2"
     inkscape:zoom="0.5"
     inkscape:cx="643.57316"
     inkscape:cy="698.28669"
     inkscape:document-units="px"
     inkscape:current-layer="layer1"
     showgrid="false"
     inkscape:window-width="956"
     inkscape:window-height="1016"
     inkscape:window-x="960"
     inkscape:window-y="0"
     inkscape:window-maximized="0"
     fit-margin-top="0"
     fit-margin-left="0"
     fit-margin-right="0"
     fit-margin-bottom="0" />
  <metadata
     id="metadata7">
    <rdf:RDF>
      <cc:Work
         rdf:about="">
        <dc:format>image/svg+xml</dc:format>
        <dc:type
           rdf:resource="http://purl.org/dc/dcmitype/StillImage" />
        <dc:title></dc:title>
      </cc:Work>
    </rdf:RDF>
  </metadata>
  <g
     inkscape:label="Layer 1"
     inkscape:groupmode="layer"
     id="layer1"
     transform="translate(-98.942419,-166.53887)">
    <path
       style="fill:none;fill-rule:evenodd;stroke:#000000;stroke-width:1px;stroke-linecap:butt;stroke-linejoin:miter;stroke-opacity:1"
       d="m 648.77047,236.36098 c -0.39424,12.36533 0.70711,30.50581 0.70711,38.18376 -19.36577,40.14097 -134.52666,35.681 -165.67798,38.24443 -26.92004,-0.3091 -101.98026,-3.98469 -125.78591,-7.03388 -55.22532,-7.07365 -112.96223,-14.27623 -165.03983,-20.93878 -29.21799,-3.738 -56.60558,-5.02254 -79.12967,-13.45375 0,0 -10.49507,-8.29944 -13.20277,-21.22303 -2.634289,-12.57317 -0.949117,-35.75026 5.53458,-53.69054 6.39671,-17.6996 12.89614,-28.48707 29.5885,-29.38468 18.84886,-1.01357 25.96394,28.00378 37.02994,46.37163 5.24482,8.7056 12.74302,12.80953 20.24571,16.56088 18.27612,9.13806 187.33116,-16.26346 216.37468,-16.26346 28.59633,-3.06174 49.47444,4.22192 63.63961,16.97056"
       id="path4228"
       inkscape:connector-curvature="0"
       sodipodi:nodetypes="cccsssssssscc" />
    <path
       style="fill:none;fill-rule:evenodd;stroke:#000000;stroke-width:1px;stroke-linecap:butt;stroke-linejoin:miter;stroke-opacity:1"
       d="m 472,230.8622 172,3 c 2.04696,0.0949 4.22687,0.89124 5.125,2.6875"
       id="path4232"
       inkscape:connector-curvature="0" />
    <path
       style="fill:none;fill-rule:evenodd;stroke:#000000;stroke-width:1px;stroke-linecap:butt;stroke-linejoin:miter;stroke-opacity:1"
       d="m 649.65436,236.00742 c 42.12586,6.64426 39.72399,31.44105 -0.17678,39.42121"
       id="path4234"
       inkscape:connector-curvature="0" />
    <path
       style="fill:none;fill-rule:evenodd;stroke:#000000;stroke-width:1px;stroke-linecap:butt;stroke-linejoin:miter;stroke-opacity:1"
       d="m 120.11348,243.47494 c 16.33572,4.50569 33.62738,4.00289 50.65281,4.02297 3.18684,0.004 23.87866,-1.93276 22.98097,-5.3033 -1.05186,-3.94941 -52.67413,-5.18694 -77.07464,-1.23744 -1.4729,0.23841 2.52134,2.23484 3.44086,2.51777 z"
       id="path4238"
       inkscape:connector-curvature="0"
       sodipodi:nodetypes="csssc" />
    <path
       style="fill:none;fill-rule:evenodd;stroke:#000000;stroke-width:1px;stroke-linecap:butt;stroke-linejoin:miter;stroke-opacity:1"
       d="m 385.75,215.3622 0,15.25 25.75,0.25 c 3.11368,4.94783 4.6354,4.42039 9.25,4.75 l 27.25,0 24.5,-4.5"
       id="path4240"
       inkscape:connector-curvature="0" />
    <path
       style="fill:none;fill-rule:evenodd;stroke:#000000;stroke-width:1px;stroke-linecap:butt;stroke-linejoin:miter;stroke-opacity:1"
       d="m 413.5,307.8622 143,-1 c 23.89592,-9.08894 -7.6382,-17 -20.5,-17 l -120.22121,12.61326 c -3.74137,0.56294 -4.52417,3.75374 -2.27879,5.38674 z"
       id="path4242"
       inkscape:connector-curvature="0" />
    <path
       style="fill:none;fill-rule:evenodd;stroke:#000000;stroke-width:1px;stroke-linecap:butt;stroke-linejoin:miter;stroke-opacity:1"
       d="m 657.07898,236.89131 0.35355,-45.96194 -2.47487,3.53553 -1.94455,42.07285"
       id="path4244"
       inkscape:connector-curvature="0" />
    <path
       inkscape:connector-curvature="0"
       id="path4246"
       d="m 657.07898,236.89131 0.35355,-45.96194 -2.47487,3.53553 -1.94455,42.07285"
       style="fill:none;fill-rule:evenodd;stroke:#000000;stroke-width:1px;stroke-linecap:butt;stroke-linejoin:miter;stroke-opacity:1" />
    <path
       style="fill:none;fill-rule:evenodd;stroke:#000000;stroke-width:1px;stroke-linecap:butt;stroke-linejoin:miter;stroke-opacity:1"
       d="m 652.78087,273.92937 -0.35355,45.96194 2.47487,-3.53553 1.94455,-42.07285"
       id="path4248"
       inkscape:connector-curvature="0" />
  </g>
</svg>
