<?xml version="1.0" encoding="UTF-8" standalone="no"?>
<svg
   xmlns:dc="http://purl.org/dc/elements/1.1/"
   xmlns:cc="http://creativecommons.org/ns#"
   xmlns:rdf="http://www.w3.org/1999/02/22-rdf-syntax-ns#"
   xmlns:svg="http://www.w3.org/2000/svg"
   xmlns="http://www.w3.org/2000/svg"
   viewBox="0 0 371.832 104.288"
   height="104.288"
   width="371.832"
   xml:space="preserve"
   id="svg2"
   version="1.1"><metadata
     id="metadata8"><rdf:RDF><cc:Work
         rdf:about=""><dc:format>image/svg+xml</dc:format><dc:type
           rdf:resource="http://purl.org/dc/dcmitype/StillImage" /></cc:Work></rdf:RDF></metadata><defs
     id="defs6" /><g
     transform="matrix(1.3333333,0,0,-1.3333333,0,104.288)"
     id="g10"><g
       transform="translate(3.374,24.21)"
       id="g12"><g
         id="g14"><g
           id="g16"><path
             id="path18"
             style="fill:none;stroke:#000000;stroke-width:0.3985;stroke-linecap:butt;stroke-linejoin:miter;stroke-miterlimit:10;stroke-dasharray:none;stroke-opacity:1"
             d="M 0,0 H 0.3985 M 0,0 H 13.60664 M 77.10342,0 H 90.71011 M 90.3116,0 h 0.39851 0.3985 m -0.3985,0 h 21.5436 m 47.62288,0 h 21.54364 m -0.39852,0 h 0.39852 0.3985 m -0.3985,0 h 21.54359 m 47.62288,0 h 21.54364 m -0.39851,0 h 0.39851" /><g
             id="g20" /><g
             id="g22" /><g
             id="g24"><path
               id="path26"
               style="fill:none;stroke:#000000;stroke-width:0.79699999;stroke-linecap:butt;stroke-linejoin:bevel;stroke-miterlimit:10;stroke-dasharray:none;stroke-opacity:1"
               d="M 13.20815,0 18.93123,11.9057 29.5804,-11.9057 40.22957,11.9057 50.87874,-11.9057 61.52791,11.9057 72.17706,-11.9057 77.50165,0" /><g
               transform="matrix(2,0,0,2,45.354,0)"
               id="g28"><g
                 id="g30" /><g
                 transform="translate(-45.354)"
                 id="g32" /></g></g><g
             id="g34" /><g
             id="g36" /><g
             id="g38"><g
               transform="scale(2)"
               id="g40"><g
                 id="g42" /></g><g
               id="g44"><g
                 id="g46"><path
                   id="path48"
                   style="fill:#ffffff;fill-opacity:1;fill-rule:nonzero;stroke:#000000;stroke-width:0.3985;stroke-linecap:butt;stroke-linejoin:miter;stroke-miterlimit:10;stroke-dasharray:none;stroke-opacity:1"
                   d="M 3.17429,0 C 3.17429,1.75311 1.75311,3.17429 0,3.17429 -1.75311,3.17429 -3.17429,1.75311 -3.17429,0 c 0,-1.75311 1.42118,-3.17429 3.17429,-3.17429 1.75311,0 3.17429,1.42118 3.17429,3.17429 z" /></g></g></g><g
             id="g50" /><g
             id="g52"><g
               transform="matrix(2,0,0,2,32.97,20.493)"
               id="g54"><g
                 id="g56"><g
                   transform="translate(-36.344,-44.703)"
                   id="g58"><text
                     id="text62"
                     style="font-variant:normal;font-weight:normal;font-size:9.96263981px;font-family:LMMathItalic10;-inkscape-font-specification:LMMathItalic10-Regular;writing-mode:lr-tb;fill:#000000;fill-opacity:1;fill-rule:nonzero;stroke:none"
                     transform="matrix(1,0,0,-1,36.344,44.703)"><tspan
                       id="tspan60"
                       y="0"
                       x="0">R</tspan></text>
<text
                     id="text66"
                     style="font-variant:normal;font-weight:normal;font-size:6.97384977px;font-family:LMMathItalic7;-inkscape-font-specification:LMMathItalic7-Regular;writing-mode:lr-tb;fill:#000000;fill-opacity:1;fill-rule:nonzero;stroke:none"
                     transform="matrix(1,0,0,-1,43.908,43.209)"><tspan
                       id="tspan64"
                       y="0"
                       x="0">a</tspan></text>
<g
                     transform="translate(36.344,44.703)"
                     id="g68" /></g></g><g
                 transform="translate(-32.97,-20.493)"
                 id="g70" /></g></g><g
             id="g72" /><g
             id="g74" /><g
             id="g76"><path
               id="path78"
               style="fill:none;stroke:#000000;stroke-width:0.79699999;stroke-linecap:butt;stroke-linejoin:bevel;stroke-miterlimit:10;stroke-dasharray:none;stroke-opacity:1"
               d="m 111.85521,-0.15936 c 0,6.57538 3.23383,11.90568 7.22301,11.90568 3.98918,0 7.223,-5.3303 7.223,-11.90568 0,-3.28752 -1.33252,-5.95256 -2.97627,-5.95256 -1.64377,0 -2.97627,2.66504 -2.97627,5.95256 0,6.57538 3.23382,11.90568 7.22301,11.90568 3.98918,0 7.22301,-5.3303 7.22301,-11.90568 0,-3.28752 -1.33253,-5.95256 -2.97628,-5.95256 -1.64377,0 -2.97627,2.66504 -2.97627,5.95256 0,6.57538 3.23382,11.90568 7.22301,11.90568 3.98918,0 7.223,-5.3303 7.223,-11.90568 0,-3.28752 -1.33252,-5.95256 -2.97629,-5.95256 -1.64375,0 -2.97627,2.66504 -2.97627,5.95256 0,6.57538 3.23383,11.90568 7.22301,11.90568 3.98918,0 7.22301,-5.3303 7.22301,-11.90568 0,-3.28752 -1.33251,-5.95256 -2.97628,-5.95256 -1.64375,0 -2.97627,2.66504 -2.97627,5.95256 0,6.57538 3.23383,11.90568 7.22301,11.90568 3.98918,0 7.22301,-5.3303 7.22301,-11.90568" /><g
               transform="matrix(2,0,0,2,136.063,0)"
               id="g80"><g
                 id="g82" /><g
                 transform="translate(-136.063)"
                 id="g84" /></g></g><g
             id="g86" /><g
             id="g88" /><g
             id="g90" /><g
             id="g92"><g
               transform="matrix(2,0,0,2,124.463,20.493)"
               id="g94"><g
                 id="g96"><g
                   transform="translate(-127.837,-44.703)"
                   id="g98"><text
                     id="text102"
                     style="font-variant:normal;font-weight:normal;font-size:9.96263981px;font-family:LMMathItalic10;-inkscape-font-specification:LMMathItalic10-Regular;writing-mode:lr-tb;fill:#000000;fill-opacity:1;fill-rule:nonzero;stroke:none"
                     transform="matrix(1,0,0,-1,127.837,44.703)"><tspan
                       id="tspan100"
                       y="0"
                       x="0">L</tspan></text>
<text
                     id="text106"
                     style="font-variant:normal;font-weight:normal;font-size:6.97384977px;font-family:LMMathItalic7;-inkscape-font-specification:LMMathItalic7-Regular;writing-mode:lr-tb;fill:#000000;fill-opacity:1;fill-rule:nonzero;stroke:none"
                     transform="matrix(1,0,0,-1,134.617,43.209)"><tspan
                       id="tspan104"
                       y="0"
                       x="0">a</tspan></text>
<g
                     transform="translate(127.837,44.703)"
                     id="g108" /></g></g><g
                 transform="translate(-124.463,-20.493)"
                 id="g110" /></g></g><g
             id="g112" /><g
             id="g114" /><g
             id="g116"><path
               id="path118"
               style="fill:none;stroke:#000000;stroke-width:0.79699999;stroke-linecap:butt;stroke-linejoin:miter;stroke-miterlimit:10;stroke-dasharray:none;stroke-opacity:1"
               d="M 226.77527,23.81143 C 213.6244,23.81143 202.96382,13.15085 202.96382,0 c 0,-13.15085 10.66058,-23.81143 23.81145,-23.81143 13.15085,0 23.81143,10.66058 23.81143,23.81143 0,13.15085 -10.66058,23.81143 -23.81143,23.81143 z" /><g
               transform="matrix(0,2,-2,0,241.779,-7.749)"
               id="g120"><g
                 transform="translate(-245.153,-16.461)"
                 id="g122"><text
                   id="text126"
                   style="font-variant:normal;font-weight:normal;font-size:9.96263981px;font-family:LMMathSymbols10;-inkscape-font-specification:LMMathSymbols10-Regular;writing-mode:lr-tb;fill:#000000;fill-opacity:1;fill-rule:nonzero;stroke:none"
                   transform="matrix(1,0,0,-1,245.153,16.461)"><tspan
                     id="tspan124"
                     y="0"
                     x="0">−</tspan></text>
<g
                   transform="translate(245.153,16.461)"
                   id="g128" /></g><g
                 transform="translate(-241.779,7.749)"
                 id="g130" /></g><g
               transform="matrix(0,2,-2,0,221.721,-7.749)"
               id="g132"><g
                 transform="translate(-225.095,-16.461)"
                 id="g134"><text
                   id="text138"
                   style="font-variant:normal;font-weight:normal;font-size:9.96263981px;font-family:LMRoman10;-inkscape-font-specification:LMRoman10-Regular;writing-mode:lr-tb;fill:#000000;fill-opacity:1;fill-rule:nonzero;stroke:none"
                   transform="matrix(1,0,0,-1,225.095,16.461)"><tspan
                     id="tspan136"
                     y="0"
                     x="0">+</tspan></text>
<g
                   transform="translate(225.095,16.461)"
                   id="g140" /></g><g
                 transform="translate(-221.721,7.749)"
                 id="g142" /></g><g
               transform="matrix(2,0,0,2,226.772,0)"
               id="g144"><g
                 id="g146" /><g
                 transform="translate(-226.772)"
                 id="g148" /></g></g><g
             id="g150" /><g
             id="g152" /><g
             id="g154"><g
               transform="matrix(2,0,0,2,272.126,0)"
               id="g156"><g
                 id="g158" /><g
                 transform="translate(-272.126)"
                 id="g160" /></g><g
               id="g162"><g
                 id="g164"><path
                   id="path166"
                   style="fill:#ffffff;fill-opacity:1;fill-rule:nonzero;stroke:#000000;stroke-width:0.3985;stroke-linecap:butt;stroke-linejoin:miter;stroke-miterlimit:10;stroke-dasharray:none;stroke-opacity:1"
                   d="m 275.30463,0 c 0,1.75311 -1.42118,3.17429 -3.17429,3.17429 -1.75313,0 -3.1743,-1.42118 -3.1743,-3.17429 0,-1.75311 1.42117,-3.17429 3.1743,-3.17429 1.75311,0 3.17429,1.42118 3.17429,3.17429 z" /></g></g></g><g
             id="g168" /><g
             id="g170" /><g
             id="g172" /><g
             id="g174"><g
               transform="matrix(2,0,0,2,210.748,36.184)"
               id="g176"><g
                 id="g178"><g
                   transform="translate(-214.122,-60.394)"
                   id="g180"><text
                     id="text184"
                     style="font-variant:normal;font-weight:normal;font-size:9.96263981px;font-family:LMMathItalic10;-inkscape-font-specification:LMMathItalic10-Regular;writing-mode:lr-tb;fill:#000000;fill-opacity:1;fill-rule:nonzero;stroke:none"
                     transform="matrix(1,0,0,-1,214.122,60.394)"><tspan
                       id="tspan182"
                       y="0"
                       x="0">k</tspan></text>
<text
                     id="text188"
                     style="font-variant:normal;font-weight:normal;font-size:6.97384977px;font-family:LMMathItalic7;-inkscape-font-specification:LMMathItalic7-Regular;writing-mode:lr-tb;fill:#000000;fill-opacity:1;fill-rule:nonzero;stroke:none"
                     transform="matrix(1,0,0,-1,219.309,58.899)"><tspan
                       id="tspan186"
                       y="0"
                       x="0">e</tspan></text>
<text
                     id="text192"
                     style="font-variant:normal;font-weight:normal;font-size:9.96263981px;font-family:LMMathItalic10;-inkscape-font-specification:LMMathItalic10-Regular;writing-mode:lr-tb;fill:#000000;fill-opacity:1;fill-rule:nonzero;stroke:none"
                     transform="matrix(1,0,0,-1,223.587,60.394)"><tspan
                       id="tspan190"
                       y="0"
                       x="0">ω</tspan></text>
<g
                     transform="translate(214.122,60.394)"
                     id="g194" /></g></g><g
                 transform="translate(-210.748,-36.184)"
                 id="g196" /></g></g></g></g></g></g></svg>