<?xml version="1.0" encoding="UTF-8" standalone="no"?>
<svg
   xmlns:dc="http://purl.org/dc/elements/1.1/"
   xmlns:cc="http://creativecommons.org/ns#"
   xmlns:rdf="http://www.w3.org/1999/02/22-rdf-syntax-ns#"
   xmlns:svg="http://www.w3.org/2000/svg"
   xmlns="http://www.w3.org/2000/svg"
   viewBox="0 0 397.1225 113.93375"
   height="113.93375"
   width="397.1225"
   xml:space="preserve"
   version="1.1"
   id="svg2"><metadata
     id="metadata8"><rdf:RDF><cc:Work
         rdf:about=""><dc:format>image/svg+xml</dc:format><dc:type
           rdf:resource="http://purl.org/dc/dcmitype/StillImage" /></cc:Work></rdf:RDF></metadata><defs
     id="defs6" /><g
     transform="matrix(1.25,0,0,-1.25,0,113.93375)"
     id="g10"><g
       transform="translate(14.192,31.947)"
       id="g12"><g
         id="g14"><g
           id="g16"><path
             id="path18"
             style="fill:none;stroke:#000000;stroke-width:0.3985;stroke-linecap:butt;stroke-linejoin:miter;stroke-miterlimit:10;stroke-dasharray:none;stroke-opacity:1"
             d="M 0,0 0.3985,0 M 0,0 39.1186,0 m 63.49679,0 39.11863,0 m -0.39849,0 0.39849,0 0.39852,0 m -0.39852,0 39.11863,0 m 63.49676,0 39.11865,0 m -0.39851,0 0.39851,0" /><g
             id="g20"><g
               transform="matrix(2,0,0,2,-14.192,38.611)"
               id="g22"><g
                 id="g24"><g
                   transform="translate(0,-70.558)"
                   id="g26"><text
                     id="text28"
                     style="font-variant:normal;font-weight:normal;font-size:9.96263981px;font-family:LMRoman10;-inkscape-font-specification:LMRoman10-Regular;writing-mode:lr-tb;fill:#000000;fill-opacity:1;fill-rule:nonzero;stroke:none"
                     transform="matrix(1,0,0,-1,0,70.558)"><tspan
                       id="tspan30"
                       y="0"
                       x="0 6.635118">5V</tspan></text>
<g
                     transform="translate(0,70.558)"
                     id="g32" /></g></g><g
                 transform="translate(14.192,-38.611)"
                 id="g34" /></g><g
               id="g36"><g
                 id="g38"><path
                   id="path40"
                   style="fill:none;stroke:#000000;stroke-width:0.3985;stroke-linecap:butt;stroke-linejoin:miter;stroke-miterlimit:10;stroke-dasharray:none;stroke-opacity:1"
                   d="M 0,0 0,23.81085" /><path
                   id="path42"
                   style="fill:none;stroke:#000000;stroke-width:0.79699999;stroke-linecap:butt;stroke-linejoin:miter;stroke-miterlimit:10;stroke-dasharray:none;stroke-opacity:1"
                   d="M -7.93695,12.69914 0,23.81085 7.93695,12.69914" /></g></g></g><g
             id="g44" /><g
             id="g46" /><g
             id="g48"><path
               id="path50"
               style="fill:none;stroke:#000000;stroke-width:0.79699999;stroke-linecap:butt;stroke-linejoin:bevel;stroke-miterlimit:10;stroke-dasharray:none;stroke-opacity:1"
               d="M 38.7201,0 44.44319,11.9057 55.09236,-11.9057 65.74153,11.9057 76.3907,-11.9057 87.03986,11.9057 97.68903,-11.9057 103.01361,0" /><g
               transform="matrix(2,0,0,2,70.866,0)"
               id="g52"><g
                 id="g54" /><g
                 transform="translate(-70.866,0)"
                 id="g56" /></g></g><g
             id="g58" /><g
             id="g60" /><g
             id="g62" /><g
             id="g64" /><g
             id="g66"><g
               transform="matrix(2,0,0,2,58.832,21.684)"
               id="g68"><g
                 id="g70"><g
                   transform="translate(-73.024,-53.631)"
                   id="g72"><text
                     id="text74"
                     style="font-variant:normal;font-weight:normal;font-size:9.96263981px;font-family:LMMathItalic10;-inkscape-font-specification:LMMathItalic10-Regular;writing-mode:lr-tb;fill:#000000;fill-opacity:1;fill-rule:nonzero;stroke:none"
                     transform="matrix(1,0,0,-1,73.024,53.631)"><tspan
                       id="tspan76"
                       y="0"
                       x="0">R</tspan></text>
<text
                     id="text78"
                     style="font-variant:normal;font-weight:normal;font-size:6.97384977px;font-family:LMRoman7;-inkscape-font-specification:LMRoman7-Regular;writing-mode:lr-tb;fill:#000000;fill-opacity:1;fill-rule:nonzero;stroke:none"
                     transform="matrix(1,0,0,-1,80.588,52.137)"><tspan
                       id="tspan80"
                       y="0"
                       x="0">1</tspan></text>
<g
                     transform="translate(73.024,53.631)"
                     id="g82" /></g></g><g
                 transform="translate(-58.832,-21.684)"
                 id="g84" /></g></g><g
             id="g86" /><g
             id="g88" /><g
             id="g90" /><g
             id="g92"><path
               id="path94"
               style="fill:none;stroke:#000000;stroke-width:0.79699999;stroke-linecap:butt;stroke-linejoin:bevel;stroke-miterlimit:10;stroke-dasharray:none;stroke-opacity:1"
               d="m 180.45413,0 5.72309,11.9057 10.64917,-23.8114 10.64917,23.8114 10.64917,-23.8114 10.64917,23.8114 10.64917,-23.8114 L 244.74765,0" /><g
               transform="matrix(2,0,0,2,212.598,0)"
               id="g96"><g
                 id="g98" /><g
                 transform="translate(-212.598,0)"
                 id="g100" /></g></g><g
             id="g102" /><g
             id="g104" /><g
             id="g106" /><g
             id="g108" /><g
             id="g110"><g
               transform="matrix(2,0,0,2,200.564,21.684)"
               id="g112"><g
                 id="g114"><g
                   transform="translate(-214.756,-53.631)"
                   id="g116"><text
                     id="text118"
                     style="font-variant:normal;font-weight:normal;font-size:9.96263981px;font-family:LMMathItalic10;-inkscape-font-specification:LMMathItalic10-Regular;writing-mode:lr-tb;fill:#000000;fill-opacity:1;fill-rule:nonzero;stroke:none"
                     transform="matrix(1,0,0,-1,214.756,53.631)"><tspan
                       id="tspan120"
                       y="0"
                       x="0">R</tspan></text>
<text
                     id="text122"
                     style="font-variant:normal;font-weight:normal;font-size:6.97384977px;font-family:LMRoman7;-inkscape-font-specification:LMRoman7-Regular;writing-mode:lr-tb;fill:#000000;fill-opacity:1;fill-rule:nonzero;stroke:none"
                     transform="matrix(1,0,0,-1,222.321,52.137)"><tspan
                       id="tspan124"
                       y="0"
                       x="0">2</tspan></text>
<g
                     transform="translate(214.756,53.631)"
                     id="g126" /></g></g><g
                 transform="translate(-200.564,-21.684)"
                 id="g128" /></g></g><g
             id="g130"><g
               transform="matrix(2,0,0,2,283.464,0)"
               id="g132"><g
                 id="g134" /><g
                 transform="translate(-283.464,0)"
                 id="g136" /></g><g
               id="g138"><g
                 id="g140"><path
                   id="path142"
                   style="fill:none;stroke:#000000;stroke-width:0.3985;stroke-linecap:butt;stroke-linejoin:miter;stroke-miterlimit:10;stroke-dasharray:none;stroke-opacity:1"
                   d="m 283.46806,0 0,-19.84268" /><path
                   id="path144"
                   style="fill:none;stroke:#000000;stroke-width:0.3985;stroke-linecap:butt;stroke-linejoin:miter;stroke-miterlimit:10;stroke-dasharray:none;stroke-opacity:1"
                   d="m 263.62538,-19.84268 39.68537,0" /><path
                   id="path146"
                   style="fill:none;stroke:#000000;stroke-width:0.3985;stroke-linecap:butt;stroke-linejoin:miter;stroke-miterlimit:10;stroke-dasharray:none;stroke-opacity:1"
                   d="m 267.59389,-23.81116 31.74835,0 m -27.77988,-3.96847 23.8114,0 m -19.84265,-3.96875 15.8739,0" /></g></g></g><path
             id="path148"
             style="fill:none;stroke:#000000;stroke-width:0.3985;stroke-linecap:butt;stroke-linejoin:miter;stroke-miterlimit:10;stroke-dasharray:none;stroke-opacity:1"
             d="m 141.73402,0 0,0.3985 m 0,-0.3985 -2e-5,14.17337 m 0,0 2e-5,14.17342 m 0,-0.3985 0,0.3985" /><g
             id="g150" /><g
             id="g152" /><g
             id="g154"><g
               transform="matrix(0,2,-2,0,141.732,14.173)"
               id="g156"><g
                 id="g158" /><g
                 transform="translate(-141.732,-14.173)"
                 id="g160" /></g></g><g
             id="g162" /><g
             id="g164" /><g
             id="g166"><g
               transform="matrix(2,0,0,2,141.732,0)"
               id="g168"><g
                 id="g170" /><g
                 transform="translate(-141.732,0)"
                 id="g172" /></g><g
               id="g174"><g
                 id="g176"><path
                   id="path178"
                   style="fill:#000000;fill-opacity:1;fill-rule:nonzero;stroke:#000000;stroke-width:0.3985;stroke-linecap:butt;stroke-linejoin:miter;stroke-miterlimit:10;stroke-dasharray:none;stroke-opacity:1"
                   d="m 144.90833,0 c 0,1.75311 -1.42118,3.17429 -3.17431,3.17429 -1.75311,0 -3.17428,-1.42118 -3.17428,-3.17429 0,-1.75311 1.42117,-3.17429 3.17428,-3.17429 1.75313,0 3.17431,1.42118 3.17431,3.17429 z" /></g></g></g><g
             id="g180"><g
               transform="matrix(2,0,0,2,141.732,28.347)"
               id="g182"><g
                 id="g184" /><g
                 transform="translate(-141.732,-28.347)"
                 id="g186" /></g><g
               id="g188"><g
                 id="g190"><path
                   id="path192"
                   style="fill:#ffffff;fill-opacity:1;fill-rule:nonzero;stroke:#000000;stroke-width:0.3985;stroke-linecap:butt;stroke-linejoin:miter;stroke-miterlimit:10;stroke-dasharray:none;stroke-opacity:1"
                   d="m 144.90833,28.34679 c 0,1.75312 -1.42118,3.1743 -3.17431,3.1743 -1.75311,0 -3.17428,-1.42118 -3.17428,-3.1743 0,-1.75313 1.42117,-3.1743 3.17428,-3.1743 1.75313,0 3.17431,1.42117 3.17431,3.1743 z" /></g></g></g><g
             id="g194"><g
               transform="matrix(2,0,0,2,105.169,35.825)"
               id="g196"><g
                 id="g198"><g
                   transform="translate(-119.361,-67.772)"
                   id="g200"><text
                     id="text202"
                     style="font-variant:normal;font-weight:normal;font-size:9.96263981px;font-family:LMRoman10;-inkscape-font-specification:LMRoman10-Regular;writing-mode:lr-tb;fill:#000000;fill-opacity:1;fill-rule:nonzero;stroke:none"
                     transform="matrix(1,0,0,-1,119.361,67.772)"><tspan
                       id="tspan204"
                       y="0"
                       x="0 7.4719801 11.377335 16.916563 24.109589 31.58157">Ard.A0</tspan></text>
<g
                     transform="translate(119.361,67.772)"
                     id="g206" /></g></g><g
                 transform="translate(-105.169,-35.825)"
                 id="g208" /></g></g></g></g></g></g></svg>