<?xml version="1.0" encoding="UTF-8" standalone="no"?>
<svg
   xmlns:dc="http://purl.org/dc/elements/1.1/"
   xmlns:cc="http://creativecommons.org/ns#"
   xmlns:rdf="http://www.w3.org/1999/02/22-rdf-syntax-ns#"
   xmlns:svg="http://www.w3.org/2000/svg"
   xmlns="http://www.w3.org/2000/svg"
   viewBox="0 0 247.86 40.068748"
   height="40.068748"
   width="247.86"
   xml:space="preserve"
   version="1.1"
   id="svg2"><metadata
     id="metadata8"><rdf:RDF><cc:Work
         rdf:about=""><dc:format>image/svg+xml</dc:format><dc:type
           rdf:resource="http://purl.org/dc/dcmitype/StillImage" /></cc:Work></rdf:RDF></metadata><defs
     id="defs6" /><g
     transform="matrix(1.25,0,0,-1.25,0,40.06875)"
     id="g10"><g
       transform="translate(14.312,6.752)"
       id="g12"><g
         id="g14"><g
           id="g16"><path
             id="path18"
             style="fill:none;stroke:#000000;stroke-width:0.3985;stroke-linecap:butt;stroke-linejoin:miter;stroke-miterlimit:10;stroke-dasharray:none;stroke-opacity:1"
             d="M 0,0 26.64601,0 M 58.3944,0 85.04042,0 m 0,0 26.64601,0 m 31.7484,0 26.64603,0" /><g
             id="g20"><g
               transform="translate(-10.991,-3.431)"
               id="g22"><g
                 id="g24"><g
                   transform="translate(-3.321,-3.321)"
                   id="g26"><text
                     id="text28"
                     style="font-variant:normal;font-weight:normal;font-size:9.96263981px;font-family:LMRoman10;-inkscape-font-specification:LMRoman10-Regular;writing-mode:lr-tb;fill:#000000;fill-opacity:1;fill-rule:nonzero;stroke:none"
                     transform="matrix(1,0,0,-1,3.321,3.321)"><tspan
                       id="tspan30"
                       y="0"
                       x="0">A</tspan></text>
<g
                     transform="translate(3.321,3.321)"
                     id="g32" /></g></g><g
                 transform="translate(10.991,3.431)"
                 id="g34" /></g></g><g
             id="g36" /><g
             id="g38" /><g
             id="g40"><path
               id="path42"
               style="fill:none;stroke:#000000;stroke-width:0.79699999;stroke-linecap:butt;stroke-linejoin:miter;stroke-miterlimit:10;stroke-dasharray:none;stroke-opacity:1"
               d="m 26.64601,0 2.64569,5.95285 5.29138,-11.9057 5.29139,11.9057 5.29138,-11.9057 5.29138,11.9057 5.29138,-11.9057 L 58.3943,0" /><g
               transform="translate(42.52,0)"
               id="g44"><g
                 id="g46" /><g
                 transform="translate(-42.52,0)"
                 id="g48" /></g></g><g
             id="g50"><g
               transform="translate(29.807,12.005)"
               id="g52"><g
                 id="g54"><g
                   transform="translate(-44.119,-18.757)"
                   id="g56"><text
                     id="text58"
                     style="font-variant:normal;font-weight:normal;font-size:9.96263981px;font-family:LMMathItalic10;-inkscape-font-specification:LMMathItalic10-Regular;writing-mode:lr-tb;fill:#000000;fill-opacity:1;fill-rule:nonzero;stroke:none"
                     transform="matrix(1,0,0,-1,44.119,18.757)"><tspan
                       id="tspan60"
                       y="0"
                       x="0 5.0122042">pR</tspan></text>
<text
                     id="text62"
                     style="font-variant:normal;font-weight:normal;font-size:6.97384977px;font-family:LMMathItalic7;-inkscape-font-specification:LMMathItalic7-Regular;writing-mode:lr-tb;fill:#000000;fill-opacity:1;fill-rule:nonzero;stroke:none"
                     transform="matrix(1,0,0,-1,56.696,17.263)"><tspan
                       id="tspan64"
                       y="0"
                       x="0 5.9912343">AB</tspan></text>
<g
                     transform="translate(44.119,18.757)"
                     id="g66" /></g></g><g
                 transform="translate(-29.807,-12.005)"
                 id="g68" /></g></g><g
             id="g70"><g
               id="g72"><g
                 id="g74" /></g><g
               id="g76"><g
                 id="g78"><path
                   id="path80"
                   style="fill:#ffffff;fill-opacity:1;fill-rule:nonzero;stroke:#000000;stroke-width:0.3985;stroke-linecap:butt;stroke-linejoin:miter;stroke-miterlimit:10;stroke-dasharray:none;stroke-opacity:1"
                   d="M 1.58714,0 C 1.58714,0.87656 0.87656,1.58714 0,1.58714 -0.87656,1.58714 -1.58714,0.87656 -1.58714,0 c 0,-0.87656 0.71058,-1.58714 1.58714,-1.58714 0.87656,0 1.58714,0.71058 1.58714,1.58714 z" /></g></g></g><g
             id="g82"><g
               transform="translate(85.04,0)"
               id="g84"><g
                 id="g86" /><g
                 transform="translate(-85.04,0)"
                 id="g88" /></g><g
               id="g90"><g
                 id="g92"><path
                   id="path94"
                   style="fill:#000000;fill-opacity:1;fill-rule:nonzero;stroke:#000000;stroke-width:0.3985;stroke-linecap:butt;stroke-linejoin:miter;stroke-miterlimit:10;stroke-dasharray:none;stroke-opacity:1"
                   d="m 86.62756,0 c 0,0.87656 -0.71058,1.58714 -1.58714,1.58714 -0.87656,0 -1.58714,-0.71058 -1.58714,-1.58714 0,-0.87656 0.71058,-1.58714 1.58714,-1.58714 0.87656,0 1.58714,0.71058 1.58714,1.58714 z" /></g></g></g><g
             id="g96"><g
               transform="translate(85.04,0)"
               id="g98"><g
                 id="g100" /><g
                 transform="translate(-85.04,0)"
                 id="g102" /></g></g><g
             id="g104" /><g
             id="g106" /><g
             id="g108"><path
               id="path110"
               style="fill:none;stroke:#000000;stroke-width:0.79699999;stroke-linecap:butt;stroke-linejoin:miter;stroke-miterlimit:10;stroke-dasharray:none;stroke-opacity:1"
               d="m 111.68643,0 2.64569,5.95285 5.29138,-11.9057 5.29139,11.9057 5.29138,-11.9057 5.2914,11.9057 5.29138,-11.9057 L 143.43474,0" /><g
               transform="translate(127.559,0)"
               id="g112"><g
                 id="g114" /><g
                 transform="translate(-127.559,0)"
                 id="g116" /></g></g><g
             id="g118"><g
               transform="translate(102.393,12.559)"
               id="g120"><g
                 id="g122"><g
                   transform="translate(-116.705,-19.311)"
                   id="g124"><text
                     id="text126"
                     style="font-variant:normal;font-weight:normal;font-size:9.96263981px;font-family:LMRoman10;-inkscape-font-specification:LMRoman10-Regular;writing-mode:lr-tb;fill:#000000;fill-opacity:1;fill-rule:nonzero;stroke:none"
                     transform="matrix(1,0,0,-1,116.705,19.311)"><tspan
                       id="tspan128"
                       y="0"
                       x="0 3.8744707">(1</tspan></text>
<text
                     id="text130"
                     style="font-variant:normal;font-weight:normal;font-size:9.96263981px;font-family:LMMathSymbols10;-inkscape-font-specification:LMMathSymbols10-Regular;writing-mode:lr-tb;fill:#000000;fill-opacity:1;fill-rule:nonzero;stroke:none"
                     transform="matrix(1,0,0,-1,127.775,19.311)"><tspan
                       id="tspan132"
                       y="0"
                       x="0">−</tspan></text>
<text
                     id="text134"
                     style="font-variant:normal;font-weight:normal;font-size:9.96263981px;font-family:LMMathItalic10;-inkscape-font-specification:LMMathItalic10-Regular;writing-mode:lr-tb;fill:#000000;fill-opacity:1;fill-rule:nonzero;stroke:none"
                     transform="matrix(1,0,0,-1,137.737,19.311)"><tspan
                       id="tspan136"
                       y="0"
                       x="0">p</tspan></text>
<text
                     id="text138"
                     style="font-variant:normal;font-weight:normal;font-size:9.96263981px;font-family:LMRoman10;-inkscape-font-specification:LMRoman10-Regular;writing-mode:lr-tb;fill:#000000;fill-opacity:1;fill-rule:nonzero;stroke:none"
                     transform="matrix(1,0,0,-1,142.75,19.311)"><tspan
                       id="tspan140"
                       y="0"
                       x="0">)</tspan></text>
<text
                     id="text142"
                     style="font-variant:normal;font-weight:normal;font-size:9.96263981px;font-family:LMMathItalic10;-inkscape-font-specification:LMMathItalic10-Regular;writing-mode:lr-tb;fill:#000000;fill-opacity:1;fill-rule:nonzero;stroke:none"
                     transform="matrix(1,0,0,-1,146.624,19.311)"><tspan
                       id="tspan144"
                       y="0"
                       x="0">R</tspan></text>
<text
                     id="text146"
                     style="font-variant:normal;font-weight:normal;font-size:6.97384977px;font-family:LMMathItalic7;-inkscape-font-specification:LMMathItalic7-Regular;writing-mode:lr-tb;fill:#000000;fill-opacity:1;fill-rule:nonzero;stroke:none"
                     transform="matrix(1,0,0,-1,154.189,17.816)"><tspan
                       id="tspan148"
                       y="0"
                       x="0 5.9912343">AB</tspan></text>
<g
                     transform="translate(116.705,19.311)"
                     id="g150" /></g></g><g
                 transform="translate(-102.393,-12.559)"
                 id="g152" /></g></g><g
             id="g154"><g
               transform="translate(170.079,0)"
               id="g156"><g
                 id="g158" /><g
                 transform="translate(-170.079,0)"
                 id="g160" /></g><g
               id="g162"><g
                 id="g164"><path
                   id="path166"
                   style="fill:#ffffff;fill-opacity:1;fill-rule:nonzero;stroke:#000000;stroke-width:0.3985;stroke-linecap:butt;stroke-linejoin:miter;stroke-miterlimit:10;stroke-dasharray:none;stroke-opacity:1"
                   d="m 171.668,0 c 0,0.87656 -0.71059,1.58714 -1.58714,1.58714 -0.87658,0 -1.58716,-0.71058 -1.58716,-1.58714 0,-0.87656 0.71058,-1.58714 1.58716,-1.58714 0.87655,0 1.58714,0.71058 1.58714,1.58714 z" /></g></g></g><g
             id="g168"><g
               transform="translate(173.599,-3.431)"
               id="g170"><g
                 id="g172"><g
                   transform="translate(-187.911,-3.321)"
                   id="g174"><text
                     id="text176"
                     style="font-variant:normal;font-weight:normal;font-size:9.96263981px;font-family:LMRoman10;-inkscape-font-specification:LMRoman10-Regular;writing-mode:lr-tb;fill:#000000;fill-opacity:1;fill-rule:nonzero;stroke:none"
                     transform="matrix(1,0,0,-1,187.911,3.321)"><tspan
                       id="tspan178"
                       y="0"
                       x="0">B</tspan></text>
<g
                     transform="translate(187.911,3.321)"
                     id="g180" /></g></g><g
                 transform="translate(-173.599,3.431)"
                 id="g182" /></g></g><path
             id="path184"
             style="fill:none;stroke:#000000;stroke-width:0.3985;stroke-linecap:butt;stroke-linejoin:miter;stroke-miterlimit:10;stroke-dasharray:none;stroke-opacity:1"
             d="m 85.04042,0 -2e-5,7.08669 m 0,0 2e-5,7.0867" /><g
             id="g186" /><g
             id="g188" /><g
             id="g190"><g
               transform="matrix(0,1,-1,0,85.04,7.087)"
               id="g192"><g
                 id="g194" /><g
                 transform="translate(-85.04,-7.087)"
                 id="g196" /></g></g><g
             id="g198"><g
               transform="translate(85.04,14.173)"
               id="g200"><g
                 id="g202" /><g
                 transform="translate(-85.04,-14.173)"
                 id="g204" /></g><g
               id="g206"><g
                 id="g208"><path
                   id="path210"
                   style="fill:#ffffff;fill-opacity:1;fill-rule:nonzero;stroke:#000000;stroke-width:0.3985;stroke-linecap:butt;stroke-linejoin:miter;stroke-miterlimit:10;stroke-dasharray:none;stroke-opacity:1"
                   d="m 86.62756,14.17339 c 0,0.87657 -0.71058,1.58715 -1.58714,1.58715 -0.87656,0 -1.58714,-0.71058 -1.58714,-1.58715 0,-0.87656 0.71058,-1.58715 1.58714,-1.58715 0.87656,0 1.58714,0.71059 1.58714,1.58715 z" /></g></g></g><g
             id="g212"><g
               transform="translate(80.889,17.693)"
               id="g214"><g
                 id="g216"><g
                   transform="translate(-95.201,-24.445)"
                   id="g218"><text
                     id="text220"
                     style="font-variant:normal;font-weight:normal;font-size:9.96263981px;font-family:LMRoman10;-inkscape-font-specification:LMRoman10-Regular;writing-mode:lr-tb;fill:#000000;fill-opacity:1;fill-rule:nonzero;stroke:none"
                     transform="matrix(1,0,0,-1,95.201,24.445)"><tspan
                       id="tspan222"
                       y="0"
                       x="0">m</tspan></text>
<g
                     transform="translate(95.201,24.445)"
                     id="g224" /></g></g><g
                 transform="translate(-80.889,-17.693)"
                 id="g226" /></g></g></g></g></g></g></svg>