<?xml version="1.0" encoding="UTF-8" standalone="no"?>
<svg
   xmlns:dc="http://purl.org/dc/elements/1.1/"
   xmlns:cc="http://creativecommons.org/ns#"
   xmlns:rdf="http://www.w3.org/1999/02/22-rdf-syntax-ns#"
   xmlns:svg="http://www.w3.org/2000/svg"
   xmlns="http://www.w3.org/2000/svg"
   viewBox="0 0 106.1275 45.73875"
   height="45.73875"
   width="106.1275"
   xml:space="preserve"
   version="1.1"
   id="svg2"><metadata
     id="metadata8"><rdf:RDF><cc:Work
         rdf:about=""><dc:format>image/svg+xml</dc:format><dc:type
           rdf:resource="http://purl.org/dc/dcmitype/StillImage" /></cc:Work></rdf:RDF></metadata><defs
     id="defs6" /><g
     transform="matrix(1.25,0,0,-1.25,0,45.73875)"
     id="g10"><g
       transform="translate(14.312,6.752)"
       id="g12"><g
         id="g14"><g
           id="g16"><path
             id="path18"
             style="fill:none;stroke:#000000;stroke-width:0.3985;stroke-linecap:butt;stroke-linejoin:miter;stroke-miterlimit:10;stroke-dasharray:none;stroke-opacity:1"
             d="M 0,0 12.47261,0 M 44.221,0 56.69362,0" /><g
             id="g20"><g
               transform="translate(-10.991,-3.431)"
               id="g22"><g
                 id="g24"><g
                   transform="translate(-3.321,-3.321)"
                   id="g26"><text
                     id="text28"
                     style="font-variant:normal;font-weight:normal;font-size:9.96263981px;font-family:LMRoman10;-inkscape-font-specification:LMRoman10-Regular;writing-mode:lr-tb;fill:#000000;fill-opacity:1;fill-rule:nonzero;stroke:none"
                     transform="matrix(1,0,0,-1,3.321,3.321)"><tspan
                       id="tspan30"
                       y="0"
                       x="0">A</tspan></text>
<g
                     transform="translate(3.321,3.321)"
                     id="g32" /></g></g><g
                 transform="translate(10.991,3.431)"
                 id="g34" /></g></g><g
             id="g36" /><g
             id="g38" /><g
             id="g40"><path
               id="path42"
               style="fill:none;stroke:#000000;stroke-width:0.79699999;stroke-linecap:butt;stroke-linejoin:miter;stroke-miterlimit:10;stroke-dasharray:none;stroke-opacity:1"
               d="m 12.47261,0 2.64569,5.95285 5.29138,-11.9057 5.29139,11.9057 5.29138,-11.9057 5.29138,11.9057 5.29138,-11.9057 L 44.2209,0" /><g
               id="g44"><path
                 id="path46"
                 style="fill:none;stroke:#000000;stroke-width:0.79699999;stroke-linecap:butt;stroke-linejoin:miter;stroke-miterlimit:10;stroke-dasharray:none;stroke-opacity:1"
                 d="m 28.3468,15.87419 0,-6.81303" /><g
                 transform="matrix(0,-1,1,0,28.3468,9.06116)"
                 id="g48"><g
                   id="g50"><path
                     id="path52"
                     style="fill:#000000;fill-opacity:1;fill-rule:nonzero;stroke:none"
                     d="m 3.1083,0 c -1.29513,0.25902 -3.62635,0.77707 -5.1805,1.94269 1.29513,-1.42464 1.29513,-2.46074 0,-3.88538 C -0.51805,-0.77707 1.81317,-0.25902 3.1083,0 Z" /></g></g></g><g
               transform="translate(28.347,0)"
               id="g54"><g
                 id="g56" /><g
                 transform="translate(-28.347,0)"
                 id="g58" /></g></g><g
             id="g60"><g
               id="g62"><g
                 id="g64" /></g><g
               id="g66"><g
                 id="g68"><path
                   id="path70"
                   style="fill:#ffffff;fill-opacity:1;fill-rule:nonzero;stroke:#000000;stroke-width:0.3985;stroke-linecap:butt;stroke-linejoin:miter;stroke-miterlimit:10;stroke-dasharray:none;stroke-opacity:1"
                   d="M 1.58714,0 C 1.58714,0.87656 0.87656,1.58714 0,1.58714 -0.87656,1.58714 -1.58714,0.87656 -1.58714,0 c 0,-0.87656 0.71058,-1.58714 1.58714,-1.58714 0.87656,0 1.58714,0.71058 1.58714,1.58714 z" /></g></g></g><g
             id="g72"><g
               transform="translate(56.693,0)"
               id="g74"><g
                 id="g76" /><g
                 transform="translate(-56.693,0)"
                 id="g78" /></g><g
               id="g80"><g
                 id="g82"><path
                   id="path84"
                   style="fill:#ffffff;fill-opacity:1;fill-rule:nonzero;stroke:#000000;stroke-width:0.3985;stroke-linecap:butt;stroke-linejoin:miter;stroke-miterlimit:10;stroke-dasharray:none;stroke-opacity:1"
                   d="m 58.28076,0 c 0,0.87656 -0.71058,1.58714 -1.58714,1.58714 -0.87657,0 -1.58716,-0.71058 -1.58716,-1.58714 0,-0.87656 0.71059,-1.58714 1.58716,-1.58714 0.87656,0 1.58714,0.71058 1.58714,1.58714 z" /></g></g></g><g
             id="g86"><g
               transform="translate(60.213,-3.431)"
               id="g88"><g
                 id="g90"><g
                   transform="translate(-74.525,-3.321)"
                   id="g92"><text
                     id="text94"
                     style="font-variant:normal;font-weight:normal;font-size:9.96263981px;font-family:LMRoman10;-inkscape-font-specification:LMRoman10-Regular;writing-mode:lr-tb;fill:#000000;fill-opacity:1;fill-rule:nonzero;stroke:none"
                     transform="matrix(1,0,0,-1,74.525,3.321)"><tspan
                       id="tspan96"
                       y="0"
                       x="0">B</tspan></text>
<g
                     transform="translate(74.525,3.321)"
                     id="g98" /></g></g><g
                 transform="translate(-60.213,3.431)"
                 id="g100" /></g></g><path
             id="path102"
             style="fill:none;stroke:#000000;stroke-width:0.3985;stroke-linecap:butt;stroke-linejoin:miter;stroke-miterlimit:10;stroke-dasharray:none;stroke-opacity:1"
             d="m 28.3468,15.87419 -1e-5,1.41742 m 0,0 1e-5,1.41742" /><g
             id="g104" /><g
             id="g106" /><g
             id="g108"><g
               transform="matrix(0,1,-1,0,28.347,17.291)"
               id="g110"><g
                 id="g112" /><g
                 transform="translate(-28.347,-17.291)"
                 id="g114" /></g></g><g
             id="g116"><g
               transform="translate(28.347,18.709)"
               id="g118"><g
                 id="g120" /><g
                 transform="translate(-28.347,-18.709)"
                 id="g122" /></g><g
               id="g124"><g
                 id="g126"><path
                   id="path128"
                   style="fill:#ffffff;fill-opacity:1;fill-rule:nonzero;stroke:#000000;stroke-width:0.3985;stroke-linecap:butt;stroke-linejoin:miter;stroke-miterlimit:10;stroke-dasharray:none;stroke-opacity:1"
                   d="m 29.93394,18.70903 c 0,0.87657 -0.71058,1.58716 -1.58714,1.58716 -0.87655,0 -1.58714,-0.71059 -1.58714,-1.58716 0,-0.87656 0.71059,-1.58714 1.58714,-1.58714 0.87656,0 1.58714,0.71058 1.58714,1.58714 z" /></g></g></g><g
             id="g130"><g
               transform="translate(24.196,22.229)"
               id="g132"><g
                 id="g134"><g
                   transform="translate(-38.508,-28.981)"
                   id="g136"><text
                     id="text138"
                     style="font-variant:normal;font-weight:normal;font-size:9.96263981px;font-family:LMRoman10;-inkscape-font-specification:LMRoman10-Regular;writing-mode:lr-tb;fill:#000000;fill-opacity:1;fill-rule:nonzero;stroke:none"
                     transform="matrix(1,0,0,-1,38.508,28.981)"><tspan
                       id="tspan140"
                       y="0"
                       x="0">m</tspan></text>
<g
                     transform="translate(38.508,28.981)"
                     id="g142" /></g></g><g
                 transform="translate(-24.196,-22.229)"
                 id="g144" /></g></g></g></g></g></g></svg>