<?xml version="1.0" encoding="utf-8" standalone="no"?>
<!DOCTYPE svg PUBLIC "-//W3C//DTD SVG 1.1//EN"
  "http://www.w3.org/Graphics/SVG/1.1/DTD/svg11.dtd">
<!-- Created with matplotlib (http://matplotlib.org/) -->
<svg height="345.6pt" version="1.1" viewBox="0 0 460.8 345.6" width="460.8pt" xmlns="http://www.w3.org/2000/svg" xmlns:xlink="http://www.w3.org/1999/xlink">
 <defs>
  <style type="text/css">
*{stroke-linecap:butt;stroke-linejoin:round;}
  </style>
 </defs>
 <g id="figure_1">
  <g id="patch_1">
   <path d="M 0 345.6 
L 460.8 345.6 
L 460.8 0 
L 0 0 
z
" style="fill:#ffffff;"/>
  </g>
  <g id="axes_1">
   <g id="patch_2">
    <path d="M 57.6 307.584 
L 414.72 307.584 
L 414.72 41.472 
L 57.6 41.472 
z
" style="fill:#ffffff;"/>
   </g>
   <g id="matplotlib.axis_1">
    <g id="xtick_1">
     <g id="line2d_1">
      <defs>
       <path d="M 0 0 
L 0 3.5 
" id="me39bbd411f" style="stroke:#000000;stroke-width:0.8;"/>
      </defs>
      <g>
       <use style="stroke:#000000;stroke-width:0.8;" x="86.189786" xlink:href="#me39bbd411f" y="307.584"/>
      </g>
     </g>
     <g id="text_1">
      <!-- −1.5 -->
      <defs>
       <path d="M 10.59375 35.5 
L 73.1875 35.5 
L 73.1875 27.203125 
L 10.59375 27.203125 
z
" id="DejaVuSans-2212"/>
       <path d="M 12.40625 8.296875 
L 28.515625 8.296875 
L 28.515625 63.921875 
L 10.984375 60.40625 
L 10.984375 69.390625 
L 28.421875 72.90625 
L 38.28125 72.90625 
L 38.28125 8.296875 
L 54.390625 8.296875 
L 54.390625 0 
L 12.40625 0 
z
" id="DejaVuSans-31"/>
       <path d="M 10.6875 12.40625 
L 21 12.40625 
L 21 0 
L 10.6875 0 
z
" id="DejaVuSans-2e"/>
       <path d="M 10.796875 72.90625 
L 49.515625 72.90625 
L 49.515625 64.59375 
L 19.828125 64.59375 
L 19.828125 46.734375 
Q 21.96875 47.46875 24.109375 47.828125 
Q 26.265625 48.1875 28.421875 48.1875 
Q 40.625 48.1875 47.75 41.5 
Q 54.890625 34.8125 54.890625 23.390625 
Q 54.890625 11.625 47.5625 5.09375 
Q 40.234375 -1.421875 26.90625 -1.421875 
Q 22.3125 -1.421875 17.546875 -0.640625 
Q 12.796875 0.140625 7.71875 1.703125 
L 7.71875 11.625 
Q 12.109375 9.234375 16.796875 8.0625 
Q 21.484375 6.890625 26.703125 6.890625 
Q 35.15625 6.890625 40.078125 11.328125 
Q 45.015625 15.765625 45.015625 23.390625 
Q 45.015625 31 40.078125 35.4375 
Q 35.15625 39.890625 26.703125 39.890625 
Q 22.75 39.890625 18.8125 39.015625 
Q 14.890625 38.140625 10.796875 36.28125 
z
" id="DejaVuSans-35"/>
      </defs>
      <g transform="translate(74.04838 322.182437)scale(0.1 -0.1)">
       <use xlink:href="#DejaVuSans-2212"/>
       <use x="83.789062" xlink:href="#DejaVuSans-31"/>
       <use x="147.412109" xlink:href="#DejaVuSans-2e"/>
       <use x="179.199219" xlink:href="#DejaVuSans-35"/>
      </g>
     </g>
    </g>
    <g id="xtick_2">
     <g id="line2d_2">
      <g>
       <use style="stroke:#000000;stroke-width:0.8;" x="135.845687" xlink:href="#me39bbd411f" y="307.584"/>
      </g>
     </g>
     <g id="text_2">
      <!-- −1.0 -->
      <defs>
       <path d="M 31.78125 66.40625 
Q 24.171875 66.40625 20.328125 58.90625 
Q 16.5 51.421875 16.5 36.375 
Q 16.5 21.390625 20.328125 13.890625 
Q 24.171875 6.390625 31.78125 6.390625 
Q 39.453125 6.390625 43.28125 13.890625 
Q 47.125 21.390625 47.125 36.375 
Q 47.125 51.421875 43.28125 58.90625 
Q 39.453125 66.40625 31.78125 66.40625 
z
M 31.78125 74.21875 
Q 44.046875 74.21875 50.515625 64.515625 
Q 56.984375 54.828125 56.984375 36.375 
Q 56.984375 17.96875 50.515625 8.265625 
Q 44.046875 -1.421875 31.78125 -1.421875 
Q 19.53125 -1.421875 13.0625 8.265625 
Q 6.59375 17.96875 6.59375 36.375 
Q 6.59375 54.828125 13.0625 64.515625 
Q 19.53125 74.21875 31.78125 74.21875 
z
" id="DejaVuSans-30"/>
      </defs>
      <g transform="translate(123.70428 322.182437)scale(0.1 -0.1)">
       <use xlink:href="#DejaVuSans-2212"/>
       <use x="83.789062" xlink:href="#DejaVuSans-31"/>
       <use x="147.412109" xlink:href="#DejaVuSans-2e"/>
       <use x="179.199219" xlink:href="#DejaVuSans-30"/>
      </g>
     </g>
    </g>
    <g id="xtick_3">
     <g id="line2d_3">
      <g>
       <use style="stroke:#000000;stroke-width:0.8;" x="185.501587" xlink:href="#me39bbd411f" y="307.584"/>
      </g>
     </g>
     <g id="text_3">
      <!-- −0.5 -->
      <g transform="translate(173.36018 322.182437)scale(0.1 -0.1)">
       <use xlink:href="#DejaVuSans-2212"/>
       <use x="83.789062" xlink:href="#DejaVuSans-30"/>
       <use x="147.412109" xlink:href="#DejaVuSans-2e"/>
       <use x="179.199219" xlink:href="#DejaVuSans-35"/>
      </g>
     </g>
    </g>
    <g id="xtick_4">
     <g id="line2d_4">
      <g>
       <use style="stroke:#000000;stroke-width:0.8;" x="235.157487" xlink:href="#me39bbd411f" y="307.584"/>
      </g>
     </g>
     <g id="text_4">
      <!-- 0.0 -->
      <g transform="translate(227.205924 322.182437)scale(0.1 -0.1)">
       <use xlink:href="#DejaVuSans-30"/>
       <use x="63.623047" xlink:href="#DejaVuSans-2e"/>
       <use x="95.410156" xlink:href="#DejaVuSans-30"/>
      </g>
     </g>
    </g>
    <g id="xtick_5">
     <g id="line2d_5">
      <g>
       <use style="stroke:#000000;stroke-width:0.8;" x="284.813387" xlink:href="#me39bbd411f" y="307.584"/>
      </g>
     </g>
     <g id="text_5">
      <!-- 0.5 -->
      <g transform="translate(276.861824 322.182437)scale(0.1 -0.1)">
       <use xlink:href="#DejaVuSans-30"/>
       <use x="63.623047" xlink:href="#DejaVuSans-2e"/>
       <use x="95.410156" xlink:href="#DejaVuSans-35"/>
      </g>
     </g>
    </g>
    <g id="xtick_6">
     <g id="line2d_6">
      <g>
       <use style="stroke:#000000;stroke-width:0.8;" x="334.469287" xlink:href="#me39bbd411f" y="307.584"/>
      </g>
     </g>
     <g id="text_6">
      <!-- 1.0 -->
      <g transform="translate(326.517724 322.182437)scale(0.1 -0.1)">
       <use xlink:href="#DejaVuSans-31"/>
       <use x="63.623047" xlink:href="#DejaVuSans-2e"/>
       <use x="95.410156" xlink:href="#DejaVuSans-30"/>
      </g>
     </g>
    </g>
    <g id="xtick_7">
     <g id="line2d_7">
      <g>
       <use style="stroke:#000000;stroke-width:0.8;" x="384.125187" xlink:href="#me39bbd411f" y="307.584"/>
      </g>
     </g>
     <g id="text_7">
      <!-- 1.5 -->
      <g transform="translate(376.173624 322.182437)scale(0.1 -0.1)">
       <use xlink:href="#DejaVuSans-31"/>
       <use x="63.623047" xlink:href="#DejaVuSans-2e"/>
       <use x="95.410156" xlink:href="#DejaVuSans-35"/>
      </g>
     </g>
    </g>
    <g id="text_8">
     <!-- t [s] -->
     <defs>
      <path d="M 18.3125 70.21875 
L 18.3125 54.6875 
L 36.8125 54.6875 
L 36.8125 47.703125 
L 18.3125 47.703125 
L 18.3125 18.015625 
Q 18.3125 11.328125 20.140625 9.421875 
Q 21.96875 7.515625 27.59375 7.515625 
L 36.8125 7.515625 
L 36.8125 0 
L 27.59375 0 
Q 17.1875 0 13.234375 3.875 
Q 9.28125 7.765625 9.28125 18.015625 
L 9.28125 47.703125 
L 2.6875 47.703125 
L 2.6875 54.6875 
L 9.28125 54.6875 
L 9.28125 70.21875 
z
" id="DejaVuSans-74"/>
      <path id="DejaVuSans-20"/>
      <path d="M 8.59375 75.984375 
L 29.296875 75.984375 
L 29.296875 69 
L 17.578125 69 
L 17.578125 -6.203125 
L 29.296875 -6.203125 
L 29.296875 -13.1875 
L 8.59375 -13.1875 
z
" id="DejaVuSans-5b"/>
      <path d="M 44.28125 53.078125 
L 44.28125 44.578125 
Q 40.484375 46.53125 36.375 47.5 
Q 32.28125 48.484375 27.875 48.484375 
Q 21.1875 48.484375 17.84375 46.4375 
Q 14.5 44.390625 14.5 40.28125 
Q 14.5 37.15625 16.890625 35.375 
Q 19.28125 33.59375 26.515625 31.984375 
L 29.59375 31.296875 
Q 39.15625 29.25 43.1875 25.515625 
Q 47.21875 21.78125 47.21875 15.09375 
Q 47.21875 7.46875 41.1875 3.015625 
Q 35.15625 -1.421875 24.609375 -1.421875 
Q 20.21875 -1.421875 15.453125 -0.5625 
Q 10.6875 0.296875 5.421875 2 
L 5.421875 11.28125 
Q 10.40625 8.6875 15.234375 7.390625 
Q 20.0625 6.109375 24.8125 6.109375 
Q 31.15625 6.109375 34.5625 8.28125 
Q 37.984375 10.453125 37.984375 14.40625 
Q 37.984375 18.0625 35.515625 20.015625 
Q 33.0625 21.96875 24.703125 23.78125 
L 21.578125 24.515625 
Q 13.234375 26.265625 9.515625 29.90625 
Q 5.8125 33.546875 5.8125 39.890625 
Q 5.8125 47.609375 11.28125 51.796875 
Q 16.75 56 26.8125 56 
Q 31.78125 56 36.171875 55.265625 
Q 40.578125 54.546875 44.28125 53.078125 
z
" id="DejaVuSans-73"/>
      <path d="M 30.421875 75.984375 
L 30.421875 -13.1875 
L 9.71875 -13.1875 
L 9.71875 -6.203125 
L 21.390625 -6.203125 
L 21.390625 69 
L 9.71875 69 
L 9.71875 75.984375 
z
" id="DejaVuSans-5d"/>
     </defs>
     <g transform="translate(226.104531 335.860562)scale(0.1 -0.1)">
      <use xlink:href="#DejaVuSans-74"/>
      <use x="39.208984" xlink:href="#DejaVuSans-20"/>
      <use x="70.996094" xlink:href="#DejaVuSans-5b"/>
      <use x="110.009766" xlink:href="#DejaVuSans-73"/>
      <use x="162.109375" xlink:href="#DejaVuSans-5d"/>
     </g>
    </g>
   </g>
   <g id="matplotlib.axis_2">
    <g id="ytick_1">
     <g id="line2d_8">
      <defs>
       <path d="M 0 0 
L -3.5 0 
" id="m3bc2243979" style="stroke:#000000;stroke-width:0.8;"/>
      </defs>
      <g>
       <use style="stroke:#000000;stroke-width:0.8;" x="57.6" xlink:href="#m3bc2243979" y="272.213217"/>
      </g>
     </g>
     <g id="text_9">
      <!-- −1.0 -->
      <g transform="translate(26.317187 276.012435)scale(0.1 -0.1)">
       <use xlink:href="#DejaVuSans-2212"/>
       <use x="83.789062" xlink:href="#DejaVuSans-31"/>
       <use x="147.412109" xlink:href="#DejaVuSans-2e"/>
       <use x="179.199219" xlink:href="#DejaVuSans-30"/>
      </g>
     </g>
    </g>
    <g id="ytick_2">
     <g id="line2d_9">
      <g>
       <use style="stroke:#000000;stroke-width:0.8;" x="57.6" xlink:href="#m3bc2243979" y="223.667248"/>
      </g>
     </g>
     <g id="text_10">
      <!-- −0.5 -->
      <g transform="translate(26.317187 227.466467)scale(0.1 -0.1)">
       <use xlink:href="#DejaVuSans-2212"/>
       <use x="83.789062" xlink:href="#DejaVuSans-30"/>
       <use x="147.412109" xlink:href="#DejaVuSans-2e"/>
       <use x="179.199219" xlink:href="#DejaVuSans-35"/>
      </g>
     </g>
    </g>
    <g id="ytick_3">
     <g id="line2d_10">
      <g>
       <use style="stroke:#000000;stroke-width:0.8;" x="57.6" xlink:href="#m3bc2243979" y="175.12128"/>
      </g>
     </g>
     <g id="text_11">
      <!-- 0.0 -->
      <g transform="translate(34.696875 178.920498)scale(0.1 -0.1)">
       <use xlink:href="#DejaVuSans-30"/>
       <use x="63.623047" xlink:href="#DejaVuSans-2e"/>
       <use x="95.410156" xlink:href="#DejaVuSans-30"/>
      </g>
     </g>
    </g>
    <g id="ytick_4">
     <g id="line2d_11">
      <g>
       <use style="stroke:#000000;stroke-width:0.8;" x="57.6" xlink:href="#m3bc2243979" y="126.575311"/>
      </g>
     </g>
     <g id="text_12">
      <!-- 0.5 -->
      <g transform="translate(34.696875 130.37453)scale(0.1 -0.1)">
       <use xlink:href="#DejaVuSans-30"/>
       <use x="63.623047" xlink:href="#DejaVuSans-2e"/>
       <use x="95.410156" xlink:href="#DejaVuSans-35"/>
      </g>
     </g>
    </g>
    <g id="ytick_5">
     <g id="line2d_12">
      <g>
       <use style="stroke:#000000;stroke-width:0.8;" x="57.6" xlink:href="#m3bc2243979" y="78.029343"/>
      </g>
     </g>
     <g id="text_13">
      <!-- 1.0 -->
      <g transform="translate(34.696875 81.828561)scale(0.1 -0.1)">
       <use xlink:href="#DejaVuSans-31"/>
       <use x="63.623047" xlink:href="#DejaVuSans-2e"/>
       <use x="95.410156" xlink:href="#DejaVuSans-30"/>
      </g>
     </g>
    </g>
   </g>
   <g id="line2d_13">
    <path clip-path="url(#p2f55f39e80)" d="M 235.157487 78.029343 
L 236.247649 78.236644 
L 241.181353 79.027619 
L 246.08088 79.574567 
L 250.958473 79.887261 
L 255.825803 79.978183 
L 260.693836 79.862539 
L 265.572688 79.558367 
L 270.471475 79.086696 
L 280.359372 77.741333 
L 305.798009 73.605735 
L 311.006201 72.993602 
L 316.240919 72.578522 
L 321.490503 72.423002 
L 326.740002 72.593065 
L 331.971021 73.157282 
L 337.161618 74.185445 
L 342.286288 75.746841 
L 347.316037 77.908126 
L 352.218586 80.730822 
L 356.958698 84.268493 
L 361.498664 88.563695 
L 365.798949 93.644867 
L 369.818986 99.523335 
L 373.518126 106.190676 
L 376.856699 113.61668 
L 379.797167 121.748168 
L 382.305301 130.508864 
L 384.351345 139.800488 
L 385.911086 149.505117 
L 386.966766 159.488769 
L 387.507797 169.606039 
L 387.531203 179.705511 
L 387.041784 189.635584 
L 386.05197 199.250301 
L 384.581399 208.414776 
L 382.656218 217.009855 
L 380.30819 224.93573 
L 377.573632 232.114334 
L 374.492272 238.490461 
L 371.106075 244.031671 
L 367.458108 248.727124 
L 363.591481 252.585563 
L 359.548409 255.63268 
L 355.369425 257.908126 
L 351.092743 259.462391 
L 346.753784 260.353746 
L 342.38485 260.645404 
L 338.014938 260.403 
L 333.669674 259.692449 
L 329.371342 258.578207 
L 325.138998 257.121925 
L 320.988637 255.381475 
L 316.933406 253.410291 
L 312.983842 251.256995 
L 309.148119 248.965248 
L 305.432309 246.57377 
L 298.375656 241.622887 
L 291.829476 236.623592 
L 285.790176 231.733679 
L 277.641694 224.829261 
L 257.110076 207.143244 
L 252.487094 203.479285 
L 248.373433 200.494361 
L 244.669389 198.13028 
L 242.382319 196.871903 
L 240.211728 195.850465 
L 238.134059 195.052999 
L 236.126992 194.468247 
L 234.169272 194.086688 
L 232.240527 193.900518 
L 230.321101 193.9036 
L 228.391882 194.091371 
L 226.434148 194.460732 
L 224.429428 195.009921 
L 221.294101 196.169841 
L 217.949763 197.735053 
L 214.333896 199.71018 
L 210.383231 202.099807 
L 204.484807 205.930256 
L 185.700831 218.346493 
L 178.747918 222.533577 
L 173.756769 225.286993 
L 168.489773 227.910911 
L 162.965546 230.296667 
L 160.116076 231.360142 
L 157.21496 232.313168 
L 154.268346 233.135955 
L 151.283428 233.807533 
L 148.268496 234.305933 
L 145.232985 234.608434 
L 142.187506 234.691885 
L 139.143855 234.533095 
L 136.115006 234.109307 
L 133.115075 233.398744 
L 130.159251 232.381225 
L 127.263704 231.03884 
L 124.445443 229.356665 
L 121.72215 227.323498 
L 119.11197 224.932585 
L 116.633263 222.1823 
L 114.30433 219.076748 
L 112.143103 215.626245 
L 110.166822 211.84764 
L 108.391694 207.764448 
L 106.832555 203.406753 
L 105.50254 198.810884 
L 104.412779 194.018832 
L 103.572126 189.077446 
L 102.986937 184.03741 
L 102.660901 178.952052 
L 102.594942 173.876026 
L 102.787183 168.863938 
L 103.232984 163.968974 
L 103.925052 159.241591 
L 104.853607 154.728336 
L 106.006609 150.47084 
L 107.370034 146.505031 
L 108.928178 142.860569 
L 110.663989 139.560543 
L 112.559401 136.621396 
L 114.595676 134.053066 
L 116.753729 131.859329 
L 119.014427 130.038288 
L 121.358866 128.582985 
L 123.768615 127.482085 
L 126.225918 126.720606 
L 128.713861 126.280653 
L 131.216508 126.142133 
L 133.718989 126.283427 
L 136.207567 126.681998 
L 138.669671 127.314935 
L 141.093898 128.159418 
L 143.470003 129.193108 
L 145.788865 130.394456 
L 148.042439 131.742948 
L 150.223698 133.219284 
L 152.326569 134.805498 
L 154.345862 136.485025 
L 158.116935 140.064942 
L 161.510293 143.854966 
L 164.508846 147.772442 
L 167.102958 151.753828 
L 169.288634 155.751918 
L 171.065995 159.732934 
L 172.43805 163.673724 
L 173.409745 167.559184 
L 173.987259 171.379942 
L 174.177523 175.130294 
L 173.987947 178.806372 
L 173.426311 182.404492 
L 172.500827 185.91964 
L 171.22035 189.344056 
L 169.594726 192.66589 
L 167.635279 195.867923 
L 165.355416 198.926374 
L 162.771363 201.80983 
L 159.902984 204.478389 
L 156.774684 206.883142 
L 153.416334 208.966161 
L 151.661942 209.866605 
L 149.864166 210.661194 
L 148.028657 211.340617 
L 146.161548 211.895304 
L 144.269468 212.315551 
L 142.359539 212.59166 
L 140.439379 212.714092 
L 138.517084 212.673662 
L 136.601207 212.461729 
L 134.700725 212.070426 
L 132.82499 211.492889 
L 130.983677 210.723497 
L 129.186711 209.758122 
L 127.444184 208.594365 
L 125.766262 207.231783 
L 124.163079 205.672095 
L 122.644623 203.91935 
L 121.220611 201.980064 
L 119.900363 199.863298 
L 118.692669 197.58068 
L 117.60566 195.146365 
L 116.646681 192.576926 
L 115.82217 189.891173 
L 115.137552 187.109911 
L 114.597142 184.255626 
L 114.204072 181.352123 
L 113.96023 178.424118 
L 113.866225 175.496799 
L 113.921378 172.595366 
L 114.123728 169.744577 
L 114.47007 166.968308 
L 114.956009 164.289132 
L 115.576038 161.727957 
L 116.323628 159.303708 
L 117.19134 157.033067 
L 118.170942 154.930294 
L 119.253539 153.007104 
L 120.429702 151.27262 
L 121.689601 149.733388 
L 123.023138 148.393448 
L 124.420067 147.254464 
L 125.870115 146.315888 
L 127.363091 145.575161 
L 128.88898 145.027939 
L 130.43803 144.668325 
L 132.000826 144.489119 
L 133.568347 144.482054 
L 135.13202 144.638034 
L 136.683753 144.947352 
L 138.21596 145.39989 
L 139.72158 145.985311 
L 141.194084 146.69321 
L 144.016268 148.435339 
L 146.640721 150.546575 
L 149.033527 152.952954 
L 151.167973 155.587851 
L 153.02375 158.392629 
L 154.586144 161.316549 
L 155.845247 164.316175 
L 156.795262 167.354437 
L 157.433904 170.399503 
L 157.761928 173.423569 
L 157.78278 176.401621 
L 157.502372 179.310259 
L 156.928976 182.126581 
L 156.073223 184.827193 
L 154.948198 187.387357 
L 153.569616 189.780312 
L 151.956054 191.976828 
L 150.129213 193.945013 
L 148.114188 195.650455 
L 145.939703 197.056746 
L 143.638267 198.126443 
L 141.246216 198.822505 
L 138.803572 199.110211 
L 137.576711 199.091288 
L 136.353691 198.959521 
L 135.140352 198.712333 
L 133.94265 198.347784 
L 132.76662 197.864668 
L 131.61834 197.262594 
L 130.503885 196.542072 
L 129.42928 195.704577 
L 128.400447 194.752615 
L 127.423153 193.689767 
L 126.502955 192.520714 
L 124.854674 189.888275 
L 123.493683 186.914649 
L 122.451152 183.67519 
L 121.749843 180.258402 
L 121.402962 176.761827 
L 121.413488 173.287017 
L 121.774039 169.934079 
L 122.467297 166.796344 
L 123.466947 163.955692 
L 124.739043 161.478975 
L 126.24367 159.415778 
L 127.936766 157.797619 
L 128.839538 157.16044 
L 129.77195 156.638459 
L 131.702249 155.936295 
L 133.681613 155.675511 
L 135.666167 155.829644 
L 137.615177 156.364257 
L 139.491719 157.239666 
L 141.263096 158.413338 
L 142.901019 159.841868 
L 144.381618 161.482483 
L 145.685317 163.294105 
L 146.796628 165.237987 
L 147.703894 167.27802 
L 148.39901 169.380755 
L 148.877169 171.515225 
L 149.136613 173.652624 
L 149.178439 175.765908 
L 149.006439 177.829368 
L 148.626983 179.818214 
L 148.048945 181.708209 
L 147.283664 183.475404 
L 146.344919 185.095972 
L 145.248922 186.546207 
L 144.014298 187.802683 
L 142.662038 188.842598 
L 141.215414 189.644325 
L 139.699816 190.18815 
L 138.142517 190.457183 
L 136.572327 190.438411 
L 135.019143 190.123824 
L 133.513375 189.511534 
L 132.08527 188.606788 
L 130.76414 187.422765 
L 129.577519 185.98103 
L 128.550305 184.311571 
L 127.703915 182.452322 
L 127.05552 180.448166 
L 126.617408 178.349432 
L 126.396519 176.209977 
L 126.394196 174.084982 
L 126.606173 172.028629 
L 127.022785 170.091845 
L 127.629416 168.320295 
L 128.407116 166.752754 
L 129.333374 165.419966 
L 130.382972 164.344039 
L 131.52888 163.538349 
L 132.74313 163.007908 
L 133.997642 162.750104 
L 135.264949 162.755687 
L 136.518822 163.00992 
L 137.73477 163.493759 
L 138.890422 164.184999 
L 139.965791 165.059317 
L 140.943453 166.09116 
L 141.808625 167.254476 
L 142.549191 168.52327 
L 143.155673 169.872006 
L 143.62117 171.275863 
L 144.046095 173.43284 
L 144.139632 175.58315 
L 143.908419 177.654349 
L 143.369876 179.578284 
L 142.853317 180.747346 
L 142.222748 181.80463 
L 141.49047 182.733361 
L 140.670438 183.518016 
L 139.778118 184.144618 
L 138.830313 184.601093 
L 137.844944 184.877681 
L 136.840795 184.967395 
L 135.837201 184.86649 
L 134.853697 184.574901 
L 133.909618 184.096628 
L 133.023672 183.440006 
L 132.213483 182.617832 
L 131.495144 181.647316 
L 130.882768 180.549817 
L 130.187824 178.721092 
L 129.784919 176.759963 
L 129.686404 174.771001 
L 129.888446 172.85921 
L 130.371584 171.122036 
L 131.102446 169.64236 
L 131.705639 168.831066 
L 132.383922 168.175954 
L 133.12084 167.685626 
L 133.89929 167.364189 
L 134.70197 167.211519 
L 135.511789 167.223646 
L 136.312238 167.393238 
L 137.461515 167.919978 
L 138.507313 168.734086 
L 139.409405 169.784213 
L 140.135825 171.014474 
L 140.663358 172.367088 
L 140.97767 173.784331 
L 141.073189 175.20994 
L 140.952795 176.590093 
L 140.627389 177.874209 
L 140.115336 179.015706 
L 139.441785 179.972893 
L 138.637838 180.710077 
L 138.113681 181.031579 
L 138.113681 181.031579 
" style="fill:none;stroke:#1f77b4;stroke-linecap:square;stroke-width:1.5;"/>
   </g>
   <g id="line2d_14">
    <path clip-path="url(#p2f55f39e80)" d="M 235.157487 78.029343 
L 236.249446 77.916912 
L 241.236539 77.261958 
L 246.263033 76.37752 
L 251.340418 75.273795 
L 256.479576 73.964412 
L 261.690597 72.466776 
L 272.363381 68.997868 
L 294.874339 61.100509 
L 300.754916 59.195999 
L 306.729354 57.441897 
L 312.78806 55.913952 
L 318.91735 54.696353 
L 325.099028 53.88129 
L 331.309995 53.568 
L 337.521932 53.861178 
L 343.701072 54.868645 
L 349.808119 56.698206 
L 355.798347 59.453647 
L 361.621928 63.229928 
L 367.224516 68.107696 
L 372.548134 74.147367 
L 377.53236 81.383137 
L 382.115814 89.817402 
L 386.237908 99.416146 
L 389.840794 110.105868 
L 392.871419 121.7726 
L 395.283567 134.263416 
L 397.039756 147.390627 
L 398.112851 160.938587 
L 398.487273 174.672725 
L 398.1597 188.350153 
L 397.139204 201.730978 
L 395.446811 214.589374 
L 393.114522 226.723473 
L 390.183877 237.963325 
L 386.704166 248.176381 
L 382.730439 257.270297 
L 378.32143 265.193104 
L 373.537539 271.931074 
L 368.438974 277.504752 
L 363.084123 281.96374 
L 357.528221 285.3808 
L 351.822316 287.84581 
L 346.012548 289.459981 
L 340.139703 290.330657 
L 334.239016 290.566869 
L 328.340182 290.275739 
L 322.467526 289.559728 
L 316.640296 288.514674 
L 310.873035 287.228525 
L 299.555642 284.241574 
L 283.17065 279.654661 
L 277.859943 278.288806 
L 272.615623 277.063408 
L 267.429812 276.004602 
L 262.293437 275.133258 
L 257.196478 274.465538 
L 252.128199 274.01337 
L 247.077352 273.784845 
L 242.03237 273.784518 
L 236.981537 274.013615 
L 231.913155 274.470144 
L 226.815713 275.148909 
L 221.678048 276.041424 
L 216.489517 277.135736 
L 211.240186 278.416154 
L 205.921024 279.862887 
L 195.04296 283.152938 
L 178.055008 288.551206 
L 172.209008 290.288315 
L 166.277201 291.895602 
L 160.268008 293.302026 
L 154.193691 294.428526 
L 148.070752 295.188378 
L 141.920308 295.488 
L 135.768412 295.228329 
L 129.646278 294.306866 
L 123.590395 292.620464 
L 117.642468 290.068909 
L 111.849162 286.559255 
L 106.261603 282.010831 
L 100.934614 276.360706 
L 95.925664 269.569304 
L 91.293531 261.625762 
L 87.096716 252.55253 
L 83.391644 242.408685 
L 80.230748 231.291439 
L 77.660522 219.335435 
L 75.719679 206.70958 
L 74.437534 193.611414 
L 73.832727 180.259278 
L 73.912402 166.882807 
L 74.671891 153.712484 
L 76.09494 140.969117 
L 78.154463 128.854114 
L 80.813745 117.541324 
L 84.028018 107.171003 
L 87.746285 97.84623 
L 91.913251 89.631806 
L 96.471271 82.555426 
L 101.362165 76.610744 
L 106.52886 71.761823 
L 111.916763 67.948432 
L 117.474863 65.091691 
L 123.156543 63.099623 
L 128.920111 61.872292 
L 134.729094 61.306303 
L 140.552315 61.298548 
L 146.363795 61.749154 
L 152.142536 62.563674 
L 157.872195 63.654591 
L 163.540708 64.942227 
L 174.66494 67.830337 
L 190.790775 72.117014 
L 196.026275 73.365109 
L 201.201459 74.471589 
L 206.324163 75.414094 
L 211.403241 76.175061 
L 216.448334 76.741234 
L 221.469659 77.103255 
L 226.477821 77.255341 
L 231.483632 77.195033 
L 236.497949 76.923049 
L 241.531515 76.443216 
L 246.594795 75.762498 
L 251.697815 74.891105 
L 256.849994 73.842695 
L 262.059956 72.634646 
L 272.682558 69.829927 
L 294.861793 63.575995 
L 300.603962 62.135791 
L 306.415875 60.859563 
L 312.287397 59.816963 
L 318.204649 59.084523 
L 324.149677 58.745077 
L 330.100147 58.886712 
L 336.029122 59.601187 
L 341.90492 60.981732 
L 347.691116 63.120189 
L 353.346695 66.103496 
L 358.826409 70.009562 
L 364.081352 74.902677 
L 369.059783 80.828669 
L 373.70819 87.810125 
L 377.972596 95.842043 
L 381.800061 104.888374 
L 385.140332 114.879862 
L 387.947559 125.713614 
L 390.181988 137.254649 
L 391.811514 149.339568 
L 392.812997 161.782246 
L 393.173246 174.381233 
L 392.889579 186.928359 
L 391.969941 199.217872 
L 390.432543 211.055391 
L 388.305075 222.265961 
L 385.623531 232.700614 
L 382.430758 242.241031 
L 378.774811 250.802104 
L 374.707234 258.332414 
L 370.281363 264.812844 
L 365.550748 270.25367 
L 360.567744 274.690555 
L 355.382332 278.179902 
L 350.041182 280.793962 
L 344.586964 282.61606 
L 339.057901 283.736192 
L 333.487525 284.247182 
L 327.904618 284.241469 
L 322.333299 283.80858 
L 316.793225 283.033239 
L 311.299872 281.994059 
L 305.864869 280.762748 
L 295.1994 277.974005 
L 279.74931 273.725818 
L 269.792339 271.28165 
L 264.901312 270.253057 
L 260.059058 269.376755 
L 255.257452 268.665289 
L 250.487816 268.127739 
L 245.741093 267.770043 
L 241.007993 267.595253 
L 236.279142 267.603717 
L 231.545214 267.793195 
L 226.797064 268.158901 
L 222.025855 268.693479 
L 217.223195 269.386914 
L 212.381276 270.226375 
L 202.552248 272.276668 
L 187.370207 275.937494 
L 176.930342 278.404921 
L 171.618957 279.524864 
L 166.253699 280.502694 
L 160.843257 281.282041 
L 155.399332 281.801412 
L 149.936893 281.994652 
L 144.474397 281.791738 
L 139.033954 281.119943 
L 133.641433 279.905426 
L 128.326463 278.075276 
L 123.122327 275.560009 
L 118.065713 272.296493 
L 113.196305 268.231206 
L 108.556206 263.323704 
L 104.189177 257.550101 
L 100.13971 250.90633 
L 96.451934 243.410896 
L 93.168414 235.10684 
L 90.328862 226.06263 
L 87.968846 216.371762 
L 86.118547 206.150927 
L 84.801651 195.536736 
L 84.034446 184.681125 
L 83.825172 173.745686 
L 84.173698 162.895309 
L 85.071512 152.291584 
L 86.502061 142.086445 
L 88.44139 132.416506 
L 90.85905 123.39847 
L 93.719205 115.125863 
L 96.981871 107.667215 
L 100.604209 101.065672 
L 104.541806 95.339904 
L 108.749879 90.486083 
L 113.184359 86.480663 
L 117.802816 83.283651 
L 122.565211 80.842116 
L 127.434468 79.093671 
L 132.376876 77.969753 
L 137.36232 77.398561 
L 142.364391 77.307569 
L 147.360357 77.62558 
L 152.331064 78.284324 
L 157.260744 79.21963 
L 162.136793 80.372208 
L 166.9495 81.688118 
L 176.358855 84.621881 
L 202.742411 93.38772 
L 210.980125 95.711917 
L 219.00299 97.579996 
L 222.948973 98.330564 
L 226.859769 98.955821 
L 230.741802 99.455448 
L 234.601476 99.830494 
L 238.445107 100.083276 
L 242.278864 100.217308 
L 249.940323 100.148989 
L 257.629935 99.676978 
L 265.385529 98.872466 
L 273.236543 97.82883 
L 289.285633 95.529268 
L 297.476862 94.602193 
L 301.603548 94.28258 
L 305.743256 94.098056 
L 309.888276 94.080301 
L 314.029233 94.26254 
L 318.155026 94.679153 
L 322.252773 95.365146 
L 326.307801 96.3555 
L 330.303665 97.684366 
L 334.222215 99.384135 
L 338.043712 101.484375 
L 341.746999 104.010678 
L 345.309741 106.983435 
L 348.708718 110.416604 
L 351.920184 114.316521 
L 354.920292 118.680831 
L 357.685553 123.49761 
L 360.193346 128.744758 
L 362.42245 134.389727 
L 364.353571 140.389655 
L 365.969862 146.691919 
L 367.257395 153.235143 
L 368.205575 159.950618 
L 368.807474 166.764095 
L 369.060055 173.597868 
L 368.964298 180.373033 
L 368.525199 187.011812 
L 367.751655 193.43981 
L 366.656236 199.588085 
L 365.25486 205.39493 
L 363.566386 210.807274 
L 361.612142 215.781675 
L 359.415421 220.284856 
L 357.000955 224.293818 
L 354.394394 227.79556 
L 351.621809 230.786456 
L 348.709236 233.27137 
L 345.682268 235.262584 
L 342.565705 236.778604 
L 339.383268 237.842928 
L 336.157374 238.482832 
L 332.908973 238.728213 
L 329.657442 238.610538 
L 326.42053 238.161919 
L 323.214342 237.41432 
L 320.053367 236.398909 
L 316.950532 235.145545 
L 313.917279 233.682389 
L 310.963659 232.035641 
L 308.098435 230.229364 
L 305.3292 228.285402 
L 302.662483 226.223362 
L 300.103869 224.060658 
L 297.658106 221.812587 
L 295.329213 219.492446 
L 293.120575 217.111666 
L 291.035037 214.679958 
L 289.07499 212.205465 
L 287.242445 209.69492 
L 285.539099 207.153795 
L 283.966402 204.586452 
L 282.525603 201.996279 
L 281.217802 199.385822 
L 280.043986 196.756907 
L 279.005066 194.110754 
L 278.101903 191.448075 
L 277.335334 188.769177 
L 276.706186 186.074042 
L 276.215297 183.36241 
L 275.86352 180.633854 
L 275.651733 177.88785 
L 275.580844 175.12384 
L 275.651787 172.341302 
L 275.865521 169.53981 
L 276.223023 166.719101 
L 276.725278 163.879141 
L 277.373264 161.020194 
L 278.167939 158.142904 
L 279.110215 155.24837 
L 280.200933 152.338243 
L 281.440836 149.414822 
L 282.830528 146.481165 
L 284.370436 143.541216 
L 286.060761 140.599931 
L 287.901418 137.663433 
L 289.89198 134.739164 
L 292.031598 131.836062 
L 294.318926 128.964734 
L 296.752029 126.137645 
L 299.328283 123.369308 
L 302.044264 120.676464 
L 304.895633 118.078255 
L 307.877005 115.596374 
L 310.981821 113.255183 
L 314.202204 111.081774 
L 317.528821 109.105973 
L 320.950748 107.360252 
L 324.455333 105.879537 
L 328.028085 104.700884 
L 331.65257 103.863008 
L 335.310346 103.405644 
L 338.980932 103.368721 
L 342.641818 103.791349 
L 346.268542 104.710619 
L 349.834824 106.160236 
L 353.31278 108.169008 
L 356.67321 110.759253 
L 359.885976 113.945191 
L 362.92045 117.7314 
L 365.746047 122.111439 
L 368.332818 127.066756 
L 370.652089 132.565966 
L 372.677124 138.564626 
L 374.38379 145.005548 
L 375.751184 151.819723 
L 376.762205 158.927834 
L 377.40403 166.242328 
L 377.668471 173.669949 
L 377.552191 181.114609 
L 377.056781 188.480425 
L 376.18866 195.67475 
L 374.958845 202.611021 
L 373.382569 209.211266 
L 371.478788 215.408138 
L 369.269599 221.14638 
L 366.779596 226.383696 
L 364.035196 231.091026 
L 361.063972 235.252252 
L 357.894002 238.863443 
L 354.553279 241.931713 
L 351.069181 244.473806 
L 347.468014 246.514519 
L 343.774645 248.085068 
L 340.012217 249.221465 
L 336.20194 249.962995 
L 332.362961 250.350834 
L 328.512299 250.426835 
L 324.664838 250.232508 
L 320.833365 249.808193 
L 317.028649 249.192412 
L 313.259544 248.421402 
L 305.85479 246.545416 
L 298.656728 244.415296 
L 278.380031 238.189157 
L 272.01592 236.540936 
L 265.804139 235.217827 
L 259.709535 234.254136 
L 253.694244 233.669212 
L 247.719032 233.470999 
L 241.744323 233.658563 
L 235.731023 234.223628 
L 229.641229 235.151154 
L 223.438937 236.418982 
L 217.090819 237.996567 
L 210.567194 239.842802 
L 200.400115 242.991526 
L 186.057936 247.460636 
L 178.550061 249.545922 
L 170.843322 251.318087 
L 166.9277 252.024671 
L 162.979831 252.574209 
L 159.008519 252.936208 
L 155.02417 253.078508 
L 151.038873 252.967658 
L 147.066447 252.569426 
L 143.12247 251.849445 
L 139.224264 250.774001 
L 135.390839 249.310961 
L 131.642785 247.430839 
L 128.002109 245.107951 
L 124.492007 242.321656 
L 121.136576 239.057612 
L 117.960459 235.30899 
L 114.988431 231.077589 
L 112.244935 226.374758 
L 109.753575 221.222051 
L 107.536583 215.651555 
L 105.614284 209.705812 
L 104.004565 203.437302 
L 102.7224 196.907488 
L 101.779415 190.185411 
L 101.183549 183.345911 
L 100.93881 176.467542 
L 101.045143 169.630283 
L 101.498414 162.913184 
L 102.290521 156.392053 
L 103.409613 150.137329 
L 104.840414 144.212239 
L 106.564631 138.671326 
L 108.561427 133.55941 
L 110.807935 128.910993 
L 113.279792 124.750108 
L 115.951666 121.090581 
L 118.797771 117.936633 
L 121.792328 115.283765 
L 124.909993 113.119845 
L 128.126207 111.426313 
L 131.417502 110.179443 
L 134.761726 109.351582 
L 138.138218 108.912341 
L 141.527917 108.829671 
L 144.913424 109.070821 
L 148.279014 109.60316 
L 151.610613 110.394841 
L 154.895746 111.415343 
L 158.123453 112.635868 
L 161.284199 114.029622 
L 164.369763 115.572003 
L 167.373125 117.240685 
L 170.288347 119.01564 
L 173.110458 120.879107 
L 178.459614 124.811307 
L 183.395954 128.93661 
L 187.903641 133.182819 
L 191.972976 137.501279 
L 195.59824 141.86206 
L 198.776004 146.249603 
L 201.50386 150.658998 
L 203.779489 155.092913 
L 205.600019 159.559147 
L 206.338465 161.807744 
L 206.961601 164.068717 
L 207.468752 166.343707 
L 207.859159 168.63439 
L 208.131976 170.942448 
L 208.286272 173.269546 
L 208.321031 175.617304 
L 208.235157 177.987276 
L 208.027475 180.380923 
L 207.696741 182.79959 
L 207.241642 185.244481 
L 206.66081 187.716626 
L 205.952831 190.21685 
L 205.116251 192.745734 
L 204.149596 195.303568 
L 203.051385 197.8903 
L 200.454459 203.148161 
L 197.314312 208.509457 
L 193.621304 213.953753 
L 189.368581 219.446295 
L 187.031355 222.194742 
L 184.553776 224.933297 
L 181.936614 227.651331 
L 179.181232 230.336275 
L 176.289688 232.973402 
L 173.264854 235.54562 
L 170.110543 238.033264 
L 166.831639 240.413918 
L 163.434251 242.662262 
L 159.925855 244.749975 
L 156.315457 246.645701 
L 152.61374 248.315109 
L 148.833217 249.721066 
L 144.988365 250.82395 
L 141.095743 251.582123 
L 137.174074 251.952601 
L 133.244298 251.891917 
L 129.329567 251.357208 
L 125.455184 250.307514 
L 121.648464 248.705279 
L 117.938523 246.518012 
L 114.355969 243.720067 
L 110.932509 240.294447 
L 107.700463 236.234558 
L 104.692184 231.545778 
L 101.939418 226.246729 
L 99.472602 220.370126 
L 97.32013 213.963083 
L 95.507623 207.086794 
L 94.057234 199.81554 
L 93.188874 193.922868 
L 93.188874 193.922868 
" style="fill:none;stroke:#ff7f0e;stroke-linecap:square;stroke-width:1.5;"/>
   </g>
   <g id="patch_3">
    <path d="M 57.6 307.584 
L 57.6 41.472 
" style="fill:none;stroke:#000000;stroke-linecap:square;stroke-linejoin:miter;stroke-width:0.8;"/>
   </g>
   <g id="patch_4">
    <path d="M 414.72 307.584 
L 414.72 41.472 
" style="fill:none;stroke:#000000;stroke-linecap:square;stroke-linejoin:miter;stroke-width:0.8;"/>
   </g>
   <g id="patch_5">
    <path d="M 57.6 307.584 
L 414.72 307.584 
" style="fill:none;stroke:#000000;stroke-linecap:square;stroke-linejoin:miter;stroke-width:0.8;"/>
   </g>
   <g id="patch_6">
    <path d="M 57.6 41.472 
L 414.72 41.472 
" style="fill:none;stroke:#000000;stroke-linecap:square;stroke-linejoin:miter;stroke-width:0.8;"/>
   </g>
   <g id="text_14">
    <!-- Evolução temporal dos estados -->
    <defs>
     <path d="M 9.8125 72.90625 
L 55.90625 72.90625 
L 55.90625 64.59375 
L 19.671875 64.59375 
L 19.671875 43.015625 
L 54.390625 43.015625 
L 54.390625 34.71875 
L 19.671875 34.71875 
L 19.671875 8.296875 
L 56.78125 8.296875 
L 56.78125 0 
L 9.8125 0 
z
" id="DejaVuSans-45"/>
     <path d="M 2.984375 54.6875 
L 12.5 54.6875 
L 29.59375 8.796875 
L 46.6875 54.6875 
L 56.203125 54.6875 
L 35.6875 0 
L 23.484375 0 
z
" id="DejaVuSans-76"/>
     <path d="M 30.609375 48.390625 
Q 23.390625 48.390625 19.1875 42.75 
Q 14.984375 37.109375 14.984375 27.296875 
Q 14.984375 17.484375 19.15625 11.84375 
Q 23.34375 6.203125 30.609375 6.203125 
Q 37.796875 6.203125 41.984375 11.859375 
Q 46.1875 17.53125 46.1875 27.296875 
Q 46.1875 37.015625 41.984375 42.703125 
Q 37.796875 48.390625 30.609375 48.390625 
z
M 30.609375 56 
Q 42.328125 56 49.015625 48.375 
Q 55.71875 40.765625 55.71875 27.296875 
Q 55.71875 13.875 49.015625 6.21875 
Q 42.328125 -1.421875 30.609375 -1.421875 
Q 18.84375 -1.421875 12.171875 6.21875 
Q 5.515625 13.875 5.515625 27.296875 
Q 5.515625 40.765625 12.171875 48.375 
Q 18.84375 56 30.609375 56 
z
" id="DejaVuSans-6f"/>
     <path d="M 9.421875 75.984375 
L 18.40625 75.984375 
L 18.40625 0 
L 9.421875 0 
z
" id="DejaVuSans-6c"/>
     <path d="M 8.5 21.578125 
L 8.5 54.6875 
L 17.484375 54.6875 
L 17.484375 21.921875 
Q 17.484375 14.15625 20.5 10.265625 
Q 23.53125 6.390625 29.59375 6.390625 
Q 36.859375 6.390625 41.078125 11.03125 
Q 45.3125 15.671875 45.3125 23.6875 
L 45.3125 54.6875 
L 54.296875 54.6875 
L 54.296875 0 
L 45.3125 0 
L 45.3125 8.40625 
Q 42.046875 3.421875 37.71875 1 
Q 33.40625 -1.421875 27.6875 -1.421875 
Q 18.265625 -1.421875 13.375 4.4375 
Q 8.5 10.296875 8.5 21.578125 
z
M 31.109375 56 
z
" id="DejaVuSans-75"/>
     <path d="M 48.78125 52.59375 
L 48.78125 44.1875 
Q 44.96875 46.296875 41.140625 47.34375 
Q 37.3125 48.390625 33.40625 48.390625 
Q 24.65625 48.390625 19.8125 42.84375 
Q 14.984375 37.3125 14.984375 27.296875 
Q 14.984375 17.28125 19.8125 11.734375 
Q 24.65625 6.203125 33.40625 6.203125 
Q 37.3125 6.203125 41.140625 7.25 
Q 44.96875 8.296875 48.78125 10.40625 
L 48.78125 2.09375 
Q 45.015625 0.34375 40.984375 -0.53125 
Q 36.96875 -1.421875 32.421875 -1.421875 
Q 20.0625 -1.421875 12.78125 6.34375 
Q 5.515625 14.109375 5.515625 27.296875 
Q 5.515625 40.671875 12.859375 48.328125 
Q 20.21875 56 33.015625 56 
Q 37.15625 56 41.109375 55.140625 
Q 45.0625 54.296875 48.78125 52.59375 
z
M 36.078125 0 
Q 38.765625 -3.03125 40.078125 -5.59375 
Q 41.40625 -8.15625 41.40625 -10.5 
Q 41.40625 -14.84375 38.46875 -17.0625 
Q 35.546875 -19.28125 29.78125 -19.28125 
Q 27.546875 -19.28125 25.421875 -18.984375 
Q 23.296875 -18.703125 21.1875 -18.109375 
L 21.1875 -11.71875 
Q 22.859375 -12.546875 24.65625 -12.90625 
Q 26.46875 -13.28125 28.765625 -13.28125 
Q 31.640625 -13.28125 33.109375 -12.109375 
Q 34.578125 -10.9375 34.578125 -8.6875 
Q 34.578125 -7.234375 33.515625 -5.109375 
Q 32.46875 -2.984375 30.28125 0 
z
" id="DejaVuSans-e7"/>
     <path d="M 34.28125 27.484375 
Q 23.390625 27.484375 19.1875 25 
Q 14.984375 22.515625 14.984375 16.5 
Q 14.984375 11.71875 18.140625 8.90625 
Q 21.296875 6.109375 26.703125 6.109375 
Q 34.1875 6.109375 38.703125 11.40625 
Q 43.21875 16.703125 43.21875 25.484375 
L 43.21875 27.484375 
z
M 52.203125 31.203125 
L 52.203125 0 
L 43.21875 0 
L 43.21875 8.296875 
Q 40.140625 3.328125 35.546875 0.953125 
Q 30.953125 -1.421875 24.3125 -1.421875 
Q 15.921875 -1.421875 10.953125 3.296875 
Q 6 8.015625 6 15.921875 
Q 6 25.140625 12.171875 29.828125 
Q 18.359375 34.515625 30.609375 34.515625 
L 43.21875 34.515625 
L 43.21875 35.40625 
Q 43.21875 41.609375 39.140625 45 
Q 35.0625 48.390625 27.6875 48.390625 
Q 23 48.390625 18.546875 47.265625 
Q 14.109375 46.140625 10.015625 43.890625 
L 10.015625 52.203125 
Q 14.9375 54.109375 19.578125 55.046875 
Q 24.21875 56 28.609375 56 
Q 40.484375 56 46.34375 49.84375 
Q 52.203125 43.703125 52.203125 31.203125 
z
M 28.8125 66.890625 
L 26.03125 69.578125 
Q 24.953125 70.5625 24.140625 71.015625 
Q 23.34375 71.484375 22.703125 71.484375 
Q 20.84375 71.484375 19.96875 69.703125 
Q 19.09375 67.921875 19 63.921875 
L 12.890625 63.921875 
Q 12.984375 70.515625 15.46875 74.09375 
Q 17.96875 77.6875 22.40625 77.6875 
Q 24.265625 77.6875 25.828125 77 
Q 27.390625 76.3125 29.203125 74.703125 
L 31.984375 72.015625 
Q 33.0625 71.046875 33.859375 70.578125 
Q 34.671875 70.125 35.296875 70.125 
Q 37.15625 70.125 38.03125 71.90625 
Q 38.921875 73.6875 39.015625 77.6875 
L 45.125 77.6875 
Q 45.015625 71.09375 42.53125 67.5 
Q 40.046875 63.921875 35.59375 63.921875 
Q 33.734375 63.921875 32.171875 64.59375 
Q 30.609375 65.28125 28.8125 66.890625 
z
" id="DejaVuSans-e3"/>
     <path d="M 56.203125 29.59375 
L 56.203125 25.203125 
L 14.890625 25.203125 
Q 15.484375 15.921875 20.484375 11.0625 
Q 25.484375 6.203125 34.421875 6.203125 
Q 39.59375 6.203125 44.453125 7.46875 
Q 49.3125 8.734375 54.109375 11.28125 
L 54.109375 2.78125 
Q 49.265625 0.734375 44.1875 -0.34375 
Q 39.109375 -1.421875 33.890625 -1.421875 
Q 20.796875 -1.421875 13.15625 6.1875 
Q 5.515625 13.8125 5.515625 26.8125 
Q 5.515625 40.234375 12.765625 48.109375 
Q 20.015625 56 32.328125 56 
Q 43.359375 56 49.78125 48.890625 
Q 56.203125 41.796875 56.203125 29.59375 
z
M 47.21875 32.234375 
Q 47.125 39.59375 43.09375 43.984375 
Q 39.0625 48.390625 32.421875 48.390625 
Q 24.90625 48.390625 20.390625 44.140625 
Q 15.875 39.890625 15.1875 32.171875 
z
" id="DejaVuSans-65"/>
     <path d="M 52 44.1875 
Q 55.375 50.25 60.0625 53.125 
Q 64.75 56 71.09375 56 
Q 79.640625 56 84.28125 50.015625 
Q 88.921875 44.046875 88.921875 33.015625 
L 88.921875 0 
L 79.890625 0 
L 79.890625 32.71875 
Q 79.890625 40.578125 77.09375 44.375 
Q 74.3125 48.1875 68.609375 48.1875 
Q 61.625 48.1875 57.5625 43.546875 
Q 53.515625 38.921875 53.515625 30.90625 
L 53.515625 0 
L 44.484375 0 
L 44.484375 32.71875 
Q 44.484375 40.625 41.703125 44.40625 
Q 38.921875 48.1875 33.109375 48.1875 
Q 26.21875 48.1875 22.15625 43.53125 
Q 18.109375 38.875 18.109375 30.90625 
L 18.109375 0 
L 9.078125 0 
L 9.078125 54.6875 
L 18.109375 54.6875 
L 18.109375 46.1875 
Q 21.1875 51.21875 25.484375 53.609375 
Q 29.78125 56 35.6875 56 
Q 41.65625 56 45.828125 52.96875 
Q 50 49.953125 52 44.1875 
z
" id="DejaVuSans-6d"/>
     <path d="M 18.109375 8.203125 
L 18.109375 -20.796875 
L 9.078125 -20.796875 
L 9.078125 54.6875 
L 18.109375 54.6875 
L 18.109375 46.390625 
Q 20.953125 51.265625 25.265625 53.625 
Q 29.59375 56 35.59375 56 
Q 45.5625 56 51.78125 48.09375 
Q 58.015625 40.1875 58.015625 27.296875 
Q 58.015625 14.40625 51.78125 6.484375 
Q 45.5625 -1.421875 35.59375 -1.421875 
Q 29.59375 -1.421875 25.265625 0.953125 
Q 20.953125 3.328125 18.109375 8.203125 
z
M 48.6875 27.296875 
Q 48.6875 37.203125 44.609375 42.84375 
Q 40.53125 48.484375 33.40625 48.484375 
Q 26.265625 48.484375 22.1875 42.84375 
Q 18.109375 37.203125 18.109375 27.296875 
Q 18.109375 17.390625 22.1875 11.75 
Q 26.265625 6.109375 33.40625 6.109375 
Q 40.53125 6.109375 44.609375 11.75 
Q 48.6875 17.390625 48.6875 27.296875 
z
" id="DejaVuSans-70"/>
     <path d="M 41.109375 46.296875 
Q 39.59375 47.171875 37.8125 47.578125 
Q 36.03125 48 33.890625 48 
Q 26.265625 48 22.1875 43.046875 
Q 18.109375 38.09375 18.109375 28.8125 
L 18.109375 0 
L 9.078125 0 
L 9.078125 54.6875 
L 18.109375 54.6875 
L 18.109375 46.1875 
Q 20.953125 51.171875 25.484375 53.578125 
Q 30.03125 56 36.53125 56 
Q 37.453125 56 38.578125 55.875 
Q 39.703125 55.765625 41.0625 55.515625 
z
" id="DejaVuSans-72"/>
     <path d="M 34.28125 27.484375 
Q 23.390625 27.484375 19.1875 25 
Q 14.984375 22.515625 14.984375 16.5 
Q 14.984375 11.71875 18.140625 8.90625 
Q 21.296875 6.109375 26.703125 6.109375 
Q 34.1875 6.109375 38.703125 11.40625 
Q 43.21875 16.703125 43.21875 25.484375 
L 43.21875 27.484375 
z
M 52.203125 31.203125 
L 52.203125 0 
L 43.21875 0 
L 43.21875 8.296875 
Q 40.140625 3.328125 35.546875 0.953125 
Q 30.953125 -1.421875 24.3125 -1.421875 
Q 15.921875 -1.421875 10.953125 3.296875 
Q 6 8.015625 6 15.921875 
Q 6 25.140625 12.171875 29.828125 
Q 18.359375 34.515625 30.609375 34.515625 
L 43.21875 34.515625 
L 43.21875 35.40625 
Q 43.21875 41.609375 39.140625 45 
Q 35.0625 48.390625 27.6875 48.390625 
Q 23 48.390625 18.546875 47.265625 
Q 14.109375 46.140625 10.015625 43.890625 
L 10.015625 52.203125 
Q 14.9375 54.109375 19.578125 55.046875 
Q 24.21875 56 28.609375 56 
Q 40.484375 56 46.34375 49.84375 
Q 52.203125 43.703125 52.203125 31.203125 
z
" id="DejaVuSans-61"/>
     <path d="M 45.40625 46.390625 
L 45.40625 75.984375 
L 54.390625 75.984375 
L 54.390625 0 
L 45.40625 0 
L 45.40625 8.203125 
Q 42.578125 3.328125 38.25 0.953125 
Q 33.9375 -1.421875 27.875 -1.421875 
Q 17.96875 -1.421875 11.734375 6.484375 
Q 5.515625 14.40625 5.515625 27.296875 
Q 5.515625 40.1875 11.734375 48.09375 
Q 17.96875 56 27.875 56 
Q 33.9375 56 38.25 53.625 
Q 42.578125 51.265625 45.40625 46.390625 
z
M 14.796875 27.296875 
Q 14.796875 17.390625 18.875 11.75 
Q 22.953125 6.109375 30.078125 6.109375 
Q 37.203125 6.109375 41.296875 11.75 
Q 45.40625 17.390625 45.40625 27.296875 
Q 45.40625 37.203125 41.296875 42.84375 
Q 37.203125 48.484375 30.078125 48.484375 
Q 22.953125 48.484375 18.875 42.84375 
Q 14.796875 37.203125 14.796875 27.296875 
z
" id="DejaVuSans-64"/>
    </defs>
    <g transform="translate(142.071562 35.472)scale(0.12 -0.12)">
     <use xlink:href="#DejaVuSans-45"/>
     <use x="63.183594" xlink:href="#DejaVuSans-76"/>
     <use x="122.363281" xlink:href="#DejaVuSans-6f"/>
     <use x="183.544922" xlink:href="#DejaVuSans-6c"/>
     <use x="211.328125" xlink:href="#DejaVuSans-75"/>
     <use x="274.707031" xlink:href="#DejaVuSans-e7"/>
     <use x="329.6875" xlink:href="#DejaVuSans-e3"/>
     <use x="390.966797" xlink:href="#DejaVuSans-6f"/>
     <use x="452.148438" xlink:href="#DejaVuSans-20"/>
     <use x="483.935547" xlink:href="#DejaVuSans-74"/>
     <use x="523.144531" xlink:href="#DejaVuSans-65"/>
     <use x="584.667969" xlink:href="#DejaVuSans-6d"/>
     <use x="682.080078" xlink:href="#DejaVuSans-70"/>
     <use x="745.556641" xlink:href="#DejaVuSans-6f"/>
     <use x="806.738281" xlink:href="#DejaVuSans-72"/>
     <use x="847.851562" xlink:href="#DejaVuSans-61"/>
     <use x="909.130859" xlink:href="#DejaVuSans-6c"/>
     <use x="936.914062" xlink:href="#DejaVuSans-20"/>
     <use x="968.701172" xlink:href="#DejaVuSans-64"/>
     <use x="1032.177734" xlink:href="#DejaVuSans-6f"/>
     <use x="1093.359375" xlink:href="#DejaVuSans-73"/>
     <use x="1145.458984" xlink:href="#DejaVuSans-20"/>
     <use x="1177.246094" xlink:href="#DejaVuSans-65"/>
     <use x="1238.769531" xlink:href="#DejaVuSans-73"/>
     <use x="1290.869141" xlink:href="#DejaVuSans-74"/>
     <use x="1330.078125" xlink:href="#DejaVuSans-61"/>
     <use x="1391.357422" xlink:href="#DejaVuSans-64"/>
     <use x="1454.833984" xlink:href="#DejaVuSans-6f"/>
     <use x="1516.015625" xlink:href="#DejaVuSans-73"/>
    </g>
   </g>
   <g id="legend_1">
    <g id="patch_7">
     <path d="M 64.6 78.82825 
L 188.3 78.82825 
Q 190.3 78.82825 190.3 76.82825 
L 190.3 48.472 
Q 190.3 46.472 188.3 46.472 
L 64.6 46.472 
Q 62.6 46.472 62.6 48.472 
L 62.6 76.82825 
Q 62.6 78.82825 64.6 78.82825 
z
" style="fill:#ffffff;opacity:0.8;stroke:#cccccc;stroke-linejoin:miter;"/>
    </g>
    <g id="line2d_15">
     <path d="M 66.6 54.570437 
L 86.6 54.570437 
" style="fill:none;stroke:#1f77b4;stroke-linecap:square;stroke-width:1.5;"/>
    </g>
    <g id="line2d_16"/>
    <g id="text_15">
     <!-- $u=0$ -->
     <defs>
      <path d="M 6.6875 21.6875 
L 13.09375 54.6875 
L 22.125 54.6875 
L 15.71875 22.015625 
Q 15.234375 19.625 15.015625 17.921875 
Q 14.796875 16.21875 14.796875 15.09375 
Q 14.796875 10.9375 17.328125 8.65625 
Q 19.875 6.390625 24.515625 6.390625 
Q 31.734375 6.390625 37 11.265625 
Q 42.28125 16.15625 43.890625 24.421875 
L 49.90625 54.6875 
L 58.890625 54.6875 
L 48.296875 0 
L 39.3125 0 
L 41.109375 8.59375 
Q 37.3125 3.8125 32.0625 1.1875 
Q 26.8125 -1.421875 20.90625 -1.421875 
Q 13.71875 -1.421875 9.71875 2.515625 
Q 5.71875 6.453125 5.71875 13.484375 
Q 5.71875 14.9375 5.953125 17.140625 
Q 6.203125 19.34375 6.6875 21.6875 
z
" id="DejaVuSans-Oblique-75"/>
      <path d="M 10.59375 45.40625 
L 73.1875 45.40625 
L 73.1875 37.203125 
L 10.59375 37.203125 
z
M 10.59375 25.484375 
L 73.1875 25.484375 
L 73.1875 17.1875 
L 10.59375 17.1875 
z
" id="DejaVuSans-3d"/>
     </defs>
     <g transform="translate(94.6 58.070437)scale(0.1 -0.1)">
      <use transform="translate(0 0.78125)" xlink:href="#DejaVuSans-Oblique-75"/>
      <use transform="translate(82.861328 0.78125)" xlink:href="#DejaVuSans-3d"/>
      <use transform="translate(186.132812 0.78125)" xlink:href="#DejaVuSans-30"/>
     </g>
    </g>
    <g id="line2d_17">
     <path d="M 66.6 69.248562 
L 86.6 69.248562 
" style="fill:none;stroke:#ff7f0e;stroke-linecap:square;stroke-width:1.5;"/>
    </g>
    <g id="line2d_18"/>
    <g id="text_16">
     <!-- $u=0.3 cos(t)\cos(t)$ -->
     <defs>
      <path d="M 40.578125 39.3125 
Q 47.65625 37.796875 51.625 33 
Q 55.609375 28.21875 55.609375 21.1875 
Q 55.609375 10.40625 48.1875 4.484375 
Q 40.765625 -1.421875 27.09375 -1.421875 
Q 22.515625 -1.421875 17.65625 -0.515625 
Q 12.796875 0.390625 7.625 2.203125 
L 7.625 11.71875 
Q 11.71875 9.328125 16.59375 8.109375 
Q 21.484375 6.890625 26.8125 6.890625 
Q 36.078125 6.890625 40.9375 10.546875 
Q 45.796875 14.203125 45.796875 21.1875 
Q 45.796875 27.640625 41.28125 31.265625 
Q 36.765625 34.90625 28.71875 34.90625 
L 20.21875 34.90625 
L 20.21875 43.015625 
L 29.109375 43.015625 
Q 36.375 43.015625 40.234375 45.921875 
Q 44.09375 48.828125 44.09375 54.296875 
Q 44.09375 59.90625 40.109375 62.90625 
Q 36.140625 65.921875 28.71875 65.921875 
Q 24.65625 65.921875 20.015625 65.03125 
Q 15.375 64.15625 9.8125 62.3125 
L 9.8125 71.09375 
Q 15.4375 72.65625 20.34375 73.4375 
Q 25.25 74.21875 29.59375 74.21875 
Q 40.828125 74.21875 47.359375 69.109375 
Q 53.90625 64.015625 53.90625 55.328125 
Q 53.90625 49.265625 50.4375 45.09375 
Q 46.96875 40.921875 40.578125 39.3125 
z
" id="DejaVuSans-33"/>
      <path d="M 53.609375 52.59375 
L 51.8125 43.703125 
Q 48.578125 46.046875 44.9375 47.21875 
Q 41.3125 48.390625 37.40625 48.390625 
Q 33.109375 48.390625 29.21875 46.875 
Q 25.34375 45.359375 22.703125 42.578125 
Q 18.5 38.328125 16.203125 32.609375 
Q 13.921875 26.90625 13.921875 20.796875 
Q 13.921875 13.421875 17.609375 9.8125 
Q 21.296875 6.203125 28.8125 6.203125 
Q 32.515625 6.203125 36.6875 7.328125 
Q 40.875 8.453125 45.40625 10.6875 
L 43.703125 1.8125 
Q 39.796875 0.203125 35.671875 -0.609375 
Q 31.546875 -1.421875 27.203125 -1.421875 
Q 16.3125 -1.421875 10.453125 4.015625 
Q 4.59375 9.46875 4.59375 19.578125 
Q 4.59375 28.078125 7.640625 35.234375 
Q 10.6875 42.390625 16.703125 48.09375 
Q 20.796875 52 26.3125 54 
Q 31.84375 56 38.375 56 
Q 42.1875 56 45.9375 55.140625 
Q 49.703125 54.296875 53.609375 52.59375 
z
" id="DejaVuSans-Oblique-63"/>
      <path d="M 25.390625 -1.421875 
Q 15.765625 -1.421875 10.171875 4.515625 
Q 4.59375 10.453125 4.59375 20.703125 
Q 4.59375 26.65625 6.515625 32.828125 
Q 8.453125 39.015625 11.53125 43.21875 
Q 16.359375 49.75 22.3125 52.875 
Q 28.265625 56 35.796875 56 
Q 45.125 56 50.859375 50.1875 
Q 56.59375 44.390625 56.59375 35.015625 
Q 56.59375 28.515625 54.6875 22.0625 
Q 52.78125 15.625 49.703125 11.375 
Q 44.921875 4.828125 38.96875 1.703125 
Q 33.015625 -1.421875 25.390625 -1.421875 
z
M 13.921875 21 
Q 13.921875 13.578125 17.015625 9.890625 
Q 20.125 6.203125 26.421875 6.203125 
Q 35.453125 6.203125 41.375 14.078125 
Q 47.3125 21.96875 47.3125 34.078125 
Q 47.3125 41.15625 44.140625 44.765625 
Q 40.96875 48.390625 34.8125 48.390625 
Q 29.734375 48.390625 25.78125 46.015625 
Q 21.828125 43.65625 18.703125 38.8125 
Q 16.40625 35.203125 15.15625 30.5625 
Q 13.921875 25.921875 13.921875 21 
z
" id="DejaVuSans-Oblique-6f"/>
      <path d="M 50 53.078125 
L 48.296875 44.578125 
Q 44.734375 46.53125 40.765625 47.5 
Q 36.8125 48.484375 32.625 48.484375 
Q 25.53125 48.484375 21.453125 46.0625 
Q 17.390625 43.65625 17.390625 39.5 
Q 17.390625 34.671875 26.859375 32.078125 
Q 27.59375 31.890625 27.9375 31.78125 
L 30.8125 30.90625 
Q 39.796875 28.421875 42.796875 25.6875 
Q 45.796875 22.953125 45.796875 18.21875 
Q 45.796875 9.515625 38.890625 4.046875 
Q 31.984375 -1.421875 20.796875 -1.421875 
Q 16.453125 -1.421875 11.671875 -0.578125 
Q 6.890625 0.25 1.125 2 
L 2.875 11.28125 
Q 7.8125 8.734375 12.59375 7.421875 
Q 17.390625 6.109375 21.78125 6.109375 
Q 28.375 6.109375 32.5 8.9375 
Q 36.625 11.765625 36.625 16.109375 
Q 36.625 20.796875 25.78125 23.6875 
L 24.859375 23.921875 
L 21.78125 24.703125 
Q 14.9375 26.515625 11.765625 29.46875 
Q 8.59375 32.421875 8.59375 37.015625 
Q 8.59375 45.75 15.15625 50.875 
Q 21.734375 56 33.015625 56 
Q 37.453125 56 41.671875 55.265625 
Q 45.90625 54.546875 50 53.078125 
z
" id="DejaVuSans-Oblique-73"/>
      <path d="M 31 75.875 
Q 24.46875 64.65625 21.28125 53.65625 
Q 18.109375 42.671875 18.109375 31.390625 
Q 18.109375 20.125 21.3125 9.0625 
Q 24.515625 -2 31 -13.1875 
L 23.1875 -13.1875 
Q 15.875 -1.703125 12.234375 9.375 
Q 8.59375 20.453125 8.59375 31.390625 
Q 8.59375 42.28125 12.203125 53.3125 
Q 15.828125 64.359375 23.1875 75.875 
z
" id="DejaVuSans-28"/>
      <path d="M 42.28125 54.6875 
L 40.921875 47.703125 
L 23 47.703125 
L 17.1875 18.015625 
Q 16.890625 16.359375 16.75 15.234375 
Q 16.609375 14.109375 16.609375 13.484375 
Q 16.609375 10.359375 18.484375 8.9375 
Q 20.359375 7.515625 24.515625 7.515625 
L 33.59375 7.515625 
L 32.078125 0 
L 23.484375 0 
Q 15.484375 0 11.546875 3.125 
Q 7.625 6.25 7.625 12.59375 
Q 7.625 13.71875 7.765625 15.0625 
Q 7.90625 16.40625 8.203125 18.015625 
L 14.015625 47.703125 
L 6.390625 47.703125 
L 7.8125 54.6875 
L 15.28125 54.6875 
L 18.3125 70.21875 
L 27.296875 70.21875 
L 24.3125 54.6875 
z
" id="DejaVuSans-Oblique-74"/>
      <path d="M 8.015625 75.875 
L 15.828125 75.875 
Q 23.140625 64.359375 26.78125 53.3125 
Q 30.421875 42.28125 30.421875 31.390625 
Q 30.421875 20.453125 26.78125 9.375 
Q 23.140625 -1.703125 15.828125 -13.1875 
L 8.015625 -13.1875 
Q 14.5 -2 17.703125 9.0625 
Q 20.90625 20.125 20.90625 31.390625 
Q 20.90625 42.671875 17.703125 53.65625 
Q 14.5 64.65625 8.015625 75.875 
z
" id="DejaVuSans-29"/>
      <path d="M 48.78125 52.59375 
L 48.78125 44.1875 
Q 44.96875 46.296875 41.140625 47.34375 
Q 37.3125 48.390625 33.40625 48.390625 
Q 24.65625 48.390625 19.8125 42.84375 
Q 14.984375 37.3125 14.984375 27.296875 
Q 14.984375 17.28125 19.8125 11.734375 
Q 24.65625 6.203125 33.40625 6.203125 
Q 37.3125 6.203125 41.140625 7.25 
Q 44.96875 8.296875 48.78125 10.40625 
L 48.78125 2.09375 
Q 45.015625 0.34375 40.984375 -0.53125 
Q 36.96875 -1.421875 32.421875 -1.421875 
Q 20.0625 -1.421875 12.78125 6.34375 
Q 5.515625 14.109375 5.515625 27.296875 
Q 5.515625 40.671875 12.859375 48.328125 
Q 20.21875 56 33.015625 56 
Q 37.15625 56 41.109375 55.140625 
Q 45.0625 54.296875 48.78125 52.59375 
z
" id="DejaVuSans-63"/>
     </defs>
     <g transform="translate(94.6 72.748562)scale(0.1 -0.1)">
      <use transform="translate(0 0.125)" xlink:href="#DejaVuSans-Oblique-75"/>
      <use transform="translate(82.861328 0.125)" xlink:href="#DejaVuSans-3d"/>
      <use transform="translate(186.132812 0.125)" xlink:href="#DejaVuSans-30"/>
      <use transform="translate(249.755859 0.125)" xlink:href="#DejaVuSans-2e"/>
      <use transform="translate(281.542969 0.125)" xlink:href="#DejaVuSans-33"/>
      <use transform="translate(345.166016 0.125)" xlink:href="#DejaVuSans-Oblique-63"/>
      <use transform="translate(400.146484 0.125)" xlink:href="#DejaVuSans-Oblique-6f"/>
      <use transform="translate(461.328125 0.125)" xlink:href="#DejaVuSans-Oblique-73"/>
      <use transform="translate(513.427734 0.125)" xlink:href="#DejaVuSans-28"/>
      <use transform="translate(552.441406 0.125)" xlink:href="#DejaVuSans-Oblique-74"/>
      <use transform="translate(591.650391 0.125)" xlink:href="#DejaVuSans-29"/>
      <use transform="translate(630.664062 0.125)" xlink:href="#DejaVuSans-63"/>
      <use transform="translate(685.644531 0.125)" xlink:href="#DejaVuSans-6f"/>
      <use transform="translate(746.826172 0.125)" xlink:href="#DejaVuSans-73"/>
      <use transform="translate(798.925781 0.125)" xlink:href="#DejaVuSans-28"/>
      <use transform="translate(837.939453 0.125)" xlink:href="#DejaVuSans-Oblique-74"/>
      <use transform="translate(877.148438 0.125)" xlink:href="#DejaVuSans-29"/>
     </g>
    </g>
   </g>
  </g>
 </g>
 <defs>
  <clipPath id="p2f55f39e80">
   <rect height="266.112" width="357.12" x="57.6" y="41.472"/>
  </clipPath>
 </defs>
</svg>
