<?xml version="1.0" encoding="UTF-8" standalone="no"?>
<svg
   xmlns:dc="http://purl.org/dc/elements/1.1/"
   xmlns:cc="http://creativecommons.org/ns#"
   xmlns:rdf="http://www.w3.org/1999/02/22-rdf-syntax-ns#"
   xmlns:svg="http://www.w3.org/2000/svg"
   xmlns="http://www.w3.org/2000/svg"
   viewBox="0 0 235.20625 67.806252"
   height="67.806252"
   width="235.20625"
   xml:space="preserve"
   version="1.1"
   id="svg2"><metadata
     id="metadata8"><rdf:RDF><cc:Work
         rdf:about=""><dc:format>image/svg+xml</dc:format><dc:type
           rdf:resource="http://purl.org/dc/dcmitype/StillImage" /></cc:Work></rdf:RDF></metadata><defs
     id="defs6" /><g
     transform="matrix(1.25,0,0,-1.25,0,67.80625)"
     id="g10"><g
       transform="translate(3.374,12.304)"
       id="g12"><g
         id="g14"><g
           id="g16"><path
             id="path18"
             style="fill:none;stroke:#000000;stroke-width:0.3985;stroke-linecap:butt;stroke-linejoin:miter;stroke-miterlimit:10;stroke-dasharray:none;stroke-opacity:1"
             d="M 0,0 0.3985,0 M 0,0 21.5436,0 m 47.62287,0 21.54364,0 m -0.39851,0 0.39851,0 0.3985,0 m -0.3985,0 13.60665,0 m 63.49678,0 13.60669,0 m -0.39852,0 0.39852,0" /><g
             id="g20" /><g
             id="g22" /><g
             id="g24"><path
               id="path26"
               style="fill:none;stroke:#000000;stroke-width:0.79699999;stroke-linecap:butt;stroke-linejoin:bevel;stroke-miterlimit:10;stroke-dasharray:none;stroke-opacity:1"
               d="m 21.1451,-0.15936 c 0,6.57538 3.23382,11.90568 7.223,11.90568 3.98918,0 7.22301,-5.3303 7.22301,-11.90568 0,-3.28752 -1.33252,-5.95256 -2.97627,-5.95256 -1.64377,0 -2.97627,2.66504 -2.97627,5.95256 0,6.57538 3.23382,11.90568 7.223,11.90568 3.98918,0 7.22301,-5.3303 7.22301,-11.90568 0,-3.28752 -1.33252,-5.95256 -2.97628,-5.95256 -1.64376,0 -2.97627,2.66504 -2.97627,5.95256 0,6.57538 3.23383,11.90568 7.22301,11.90568 3.98918,0 7.22301,-5.3303 7.22301,-11.90568 0,-3.28752 -1.33252,-5.95256 -2.97629,-5.95256 -1.64375,0 -2.97627,2.66504 -2.97627,5.95256 0,6.57538 3.23382,11.90568 7.22301,11.90568 3.98918,0 7.223,-5.3303 7.223,-11.90568 0,-3.28752 -1.3325,-5.95256 -2.97627,-5.95256 -1.64375,0 -2.97627,2.66504 -2.97627,5.95256 0,6.57538 3.23382,11.90568 7.223,11.90568 3.98919,0 7.22301,-5.3303 7.22301,-11.90568" /><g
               transform="matrix(2,0,0,2,45.354,0)"
               id="g28"><g
                 id="g30" /><g
                 transform="translate(-45.354,0)"
                 id="g32" /></g></g><g
             id="g34" /><g
             id="g36" /><g
             id="g38"><g
               transform="scale(2,2)"
               id="g40"><g
                 id="g42" /></g><g
               id="g44"><g
                 id="g46"><path
                   id="path48"
                   style="fill:#ffffff;fill-opacity:1;fill-rule:nonzero;stroke:#000000;stroke-width:0.3985;stroke-linecap:butt;stroke-linejoin:miter;stroke-miterlimit:10;stroke-dasharray:none;stroke-opacity:1"
                   d="M 3.17429,0 C 3.17429,1.75311 1.75311,3.17429 0,3.17429 -1.75311,3.17429 -3.17429,1.75311 -3.17429,0 c 0,-1.75311 1.42118,-3.17429 3.17429,-3.17429 1.75311,0 3.17429,1.42118 3.17429,3.17429 z" /></g></g></g><g
             id="g50" /><g
             id="g52" /><g
             id="g54"><g
               transform="matrix(2,0,0,2,38.574,21.684)"
               id="g56"><g
                 id="g58"><g
                   transform="translate(-41.948,-33.988)"
                   id="g60"><text
                     id="text62"
                     style="font-variant:normal;font-weight:normal;font-size:9.96263981px;font-family:LMMathItalic10;-inkscape-font-specification:LMMathItalic10-Regular;writing-mode:lr-tb;fill:#000000;fill-opacity:1;fill-rule:nonzero;stroke:none"
                     transform="matrix(1,0,0,-1,41.948,33.988)"><tspan
                       id="tspan64"
                       y="0"
                       x="0">L</tspan></text>
<g
                     transform="translate(41.948,33.988)"
                     id="g66" /></g></g><g
                 transform="translate(-38.574,-21.684)"
                 id="g68" /></g></g><g
             id="g70" /><g
             id="g72" /><g
             id="g74"><path
               id="path76"
               style="fill:none;stroke:#000000;stroke-width:0.79699999;stroke-linecap:butt;stroke-linejoin:bevel;stroke-miterlimit:10;stroke-dasharray:none;stroke-opacity:1"
               d="m 103.91826,0 5.72308,11.9057 10.64917,-23.8114 10.64917,23.8114 10.64917,-23.8114 10.64917,23.8114 10.64916,-23.8114 L 168.21176,0" /><g
               transform="matrix(2,0,0,2,136.063,0)"
               id="g78"><g
                 id="g80" /><g
                 transform="translate(-136.063,0)"
                 id="g82" /></g></g><g
             id="g84" /><g
             id="g86" /><g
             id="g88"><g
               transform="matrix(2,0,0,2,181.417,0)"
               id="g90"><g
                 id="g92" /><g
                 transform="translate(-181.417,0)"
                 id="g94" /></g><g
               id="g96"><g
                 id="g98"><path
                   id="path100"
                   style="fill:#ffffff;fill-opacity:1;fill-rule:nonzero;stroke:#000000;stroke-width:0.3985;stroke-linecap:butt;stroke-linejoin:miter;stroke-miterlimit:10;stroke-dasharray:none;stroke-opacity:1"
                   d="m 184.59451,0 c 0,1.75311 -1.42117,3.17429 -3.17428,3.17429 -1.75313,0 -3.1743,-1.42118 -3.1743,-3.17429 0,-1.75311 1.42117,-3.17429 3.1743,-3.17429 1.75311,0 3.17428,1.42118 3.17428,3.17429 z" /></g></g></g><g
             id="g102" /><g
             id="g104" /><g
             id="g106"><g
               transform="matrix(2,0,0,2,128.421,21.684)"
               id="g108"><g
                 id="g110"><g
                   transform="translate(-131.795,-33.988)"
                   id="g112"><text
                     id="text114"
                     style="font-variant:normal;font-weight:normal;font-size:9.96263981px;font-family:LMMathItalic10;-inkscape-font-specification:LMMathItalic10-Regular;writing-mode:lr-tb;fill:#000000;fill-opacity:1;fill-rule:nonzero;stroke:none"
                     transform="matrix(1,0,0,-1,131.795,33.988)"><tspan
                       id="tspan116"
                       y="0"
                       x="0">R</tspan></text>
<g
                     transform="translate(131.795,33.988)"
                     id="g118" /></g></g><g
                 transform="translate(-128.421,-21.684)"
                 id="g120" /></g></g></g></g></g></g></svg>