<?xml version="1.0" encoding="UTF-8" standalone="no"?>
<svg
   xmlns:dc="http://purl.org/dc/elements/1.1/"
   xmlns:cc="http://creativecommons.org/ns#"
   xmlns:rdf="http://www.w3.org/1999/02/22-rdf-syntax-ns#"
   xmlns:svg="http://www.w3.org/2000/svg"
   xmlns="http://www.w3.org/2000/svg"
   viewBox="0 0 361.745 256.29001"
   height="256.29001"
   width="361.745"
   xml:space="preserve"
   version="1.1"
   id="svg2"><metadata
     id="metadata8"><rdf:RDF><cc:Work
         rdf:about=""><dc:format>image/svg+xml</dc:format><dc:type
           rdf:resource="http://purl.org/dc/dcmitype/StillImage" /></cc:Work></rdf:RDF></metadata><defs
     id="defs6" /><g
     transform="matrix(1.25,0,0,-1.25,0,256.29)"
     id="g10"><g
       transform="translate(61.135,3.374)"
       id="g12"><g
         id="g14"><g
           id="g16"><path
             id="path18"
             style="fill:none;stroke:#000000;stroke-width:0.3985;stroke-linecap:butt;stroke-linejoin:miter;stroke-miterlimit:10;stroke-dasharray:none;stroke-opacity:1"
             d="M 0,0 0,0.3985 M 0,0 0,78.80397 m 0,23.81142 0,78.80401 m 0,-0.39851 0,0.39851 0.3985,0 m -0.3985,0 36.85092,-3e-5 m 39.68538,0 36.85094,3e-5 m -0.39852,0 0.39852,0 0,-0.39851 m 0,0.39851 0,-21.54364 m 0,-47.62288 0,-21.54359 m 0,90.71011 0,-21.54364 m 0,-68.76797 0,-0.3985 0,-0.39851 m 0,0.39851 0,-13.60666 m 0,-63.49678 0,-13.60666 m 0,0.39848 0,-0.39848 L 0,-8.1e-4 0,0" /><g
             id="g20" /><g
             id="g22" /><g
             id="g24"><path
               id="path26"
               style="fill:none;stroke:#000000;stroke-width:0.79699999;stroke-linecap:butt;stroke-linejoin:miter;stroke-miterlimit:10;stroke-dasharray:none;stroke-opacity:1"
               d="m -23.81143,102.61539 47.62286,0 m -35.71713,-7.93714 23.8114,0 m -35.71713,-7.93713 47.62286,0 m -35.71713,-7.93715 23.8114,0" /><g
               transform="matrix(0,-2,-2,0,0,90.709)"
               id="g28"><g
                 id="g30" /><g
                 transform="translate(0,-90.709)"
                 id="g32" /></g></g><g
             id="g34" /><g
             id="g36" /><g
             id="g38" /><g
             id="g40"><g
               transform="matrix(2,0,0,2,-54.494,86.415)"
               id="g42"><g
                 id="g44"><g
                   transform="translate(-6.641,-89.789)"
                   id="g46"><text
                     id="text48"
                     style="font-variant:normal;font-weight:normal;font-size:9.96263981px;font-family:LMMathItalic10;-inkscape-font-specification:LMMathItalic10-Regular;writing-mode:lr-tb;fill:#000000;fill-opacity:1;fill-rule:nonzero;stroke:none"
                     transform="matrix(1,0,0,-1,6.641,89.789)"><tspan
                       id="tspan50"
                       y="0"
                       x="0">V</tspan></text>
<text
                     id="text52"
                     style="font-variant:normal;font-weight:normal;font-size:6.97384977px;font-family:LMMathItalic7;-inkscape-font-specification:LMMathItalic7-Regular;writing-mode:lr-tb;fill:#000000;fill-opacity:1;fill-rule:nonzero;stroke:none"
                     transform="matrix(1,0,0,-1,12.453,88.295)"><tspan
                       id="tspan54"
                       y="0"
                       x="0">a</tspan></text>
<g
                     transform="translate(6.641,89.789)"
                     id="g56" /></g></g><g
                 transform="translate(54.494,-86.415)"
                 id="g58" /></g></g><g
             id="g60" /><g
             id="g62" /><g
             id="g64"><path
               id="path66"
               style="fill:none;stroke:#000000;stroke-width:0.79699999;stroke-linecap:butt;stroke-linejoin:miter;stroke-miterlimit:10;stroke-dasharray:none;stroke-opacity:1"
               d="m 36.85092,191.3407 39.68538,0 m -19.84268,0 0,9.92135" /><g
               transform="matrix(2,0,0,2,36.851,181.417)"
               id="g68"><g
                 id="g70" /><g
                 transform="translate(-36.851,-181.417)"
                 id="g72" /></g><g
               id="g74"><g
                 id="g76"><path
                   id="path78"
                   style="fill:#ffffff;fill-opacity:1;fill-rule:nonzero;stroke:#000000;stroke-width:0.79699999;stroke-linecap:butt;stroke-linejoin:miter;stroke-miterlimit:10;stroke-dasharray:none;stroke-opacity:1"
                   d="m 40.02522,181.41937 c 0,1.75312 -1.42117,3.17429 -3.1743,3.17429 -1.75311,0 -3.17428,-1.42117 -3.17428,-3.17429 0,-1.75313 1.42117,-3.1743 3.17428,-3.1743 1.75313,0 3.1743,1.42117 3.1743,3.1743 z" /></g></g><g
               transform="matrix(2,0,0,2,76.535,181.417)"
               id="g80"><g
                 id="g82" /><g
                 transform="translate(-76.535,-181.417)"
                 id="g84" /></g><g
               id="g86"><g
                 id="g88"><path
                   id="path90"
                   style="fill:#ffffff;fill-opacity:1;fill-rule:nonzero;stroke:#000000;stroke-width:0.79699999;stroke-linecap:butt;stroke-linejoin:miter;stroke-miterlimit:10;stroke-dasharray:none;stroke-opacity:1"
                   d="m 79.71059,181.41937 c 0,1.75312 -1.42118,3.17429 -3.17429,3.17429 -1.75313,0 -3.1743,-1.42117 -3.1743,-3.17429 0,-1.75313 1.42117,-3.1743 3.1743,-3.1743 1.75311,0 3.17429,1.42117 3.17429,3.1743 z" /></g></g><g
               transform="matrix(2,0,0,2,76.535,181.417)"
               id="g92"><g
                 id="g94" /><g
                 transform="translate(-76.535,-181.417)"
                 id="g96" /></g></g><g
             id="g98" /><g
             id="g100" /><g
             id="g102" /><g
             id="g104" /><g
             id="g106" /><g
             id="g108"><path
               id="path110"
               style="fill:none;stroke:#000000;stroke-width:0.79699999;stroke-linecap:butt;stroke-linejoin:bevel;stroke-miterlimit:10;stroke-dasharray:none;stroke-opacity:1"
               d="m 113.22786,160.27426 c 6.57539,0 11.9057,-3.23382 11.9057,-7.22301 0,-3.98918 -5.33031,-7.223 -11.9057,-7.223 -3.28752,0 -5.95255,1.33252 -5.95255,2.97628 0,1.64376 2.66503,2.97627 5.95255,2.97627 6.57539,0 11.9057,-3.23382 11.9057,-7.223 0,-3.98918 -5.33031,-7.223 -11.9057,-7.223 -3.28752,0 -5.95255,1.3325 -5.95255,2.97627 0,1.64375 2.66503,2.97627 5.95255,2.97627 6.57539,0 11.9057,-3.23383 11.9057,-7.22301 0,-3.98918 -5.33031,-7.22301 -11.9057,-7.22301 -3.28752,0 -5.95255,1.33251 -5.95255,2.97628 0,1.64375 2.66503,2.97627 5.95255,2.97627 6.57539,0 11.9057,-3.23383 11.9057,-7.22301 0,-3.98918 -5.33031,-7.22301 -11.9057,-7.22301 -3.28752,0 -5.95255,1.33252 -5.95255,2.97628 0,1.64375 2.66503,2.97627 5.95255,2.97627 6.57539,0 11.9057,-3.23383 11.9057,-7.223 0,-3.98919 -5.33031,-7.22301 -11.9057,-7.22301" /><g
               transform="matrix(0,-2,2,0,113.386,136.063)"
               id="g112"><g
                 id="g114" /><g
                 transform="translate(-113.386,-136.063)"
                 id="g116" /></g></g><g
             id="g118" /><g
             id="g120" /><g
             id="g122"><g
               transform="matrix(2,0,0,2,113.386,181.417)"
               id="g124"><g
                 id="g126" /><g
                 transform="translate(-113.386,-181.417)"
                 id="g128" /></g><g
               id="g130"><g
                 id="g132"><path
                   id="path134"
                   style="fill:#000000;fill-opacity:1;fill-rule:nonzero;stroke:#000000;stroke-width:0.3985;stroke-linecap:butt;stroke-linejoin:miter;stroke-miterlimit:10;stroke-dasharray:none;stroke-opacity:1"
                   d="m 116.56152,181.4194 c 0,1.75312 -1.42117,3.17429 -3.17428,3.17429 -1.75313,0 -3.1743,-1.42117 -3.1743,-3.17429 0,-1.75312 1.42117,-3.1743 3.1743,-3.1743 1.75311,0 3.17428,1.42118 3.17428,3.1743 z" /></g></g></g><g
             id="g136" /><g
             id="g138"><g
               transform="matrix(2,0,0,2,133.522,131.769)"
               id="g140"><g
                 id="g142"><g
                   transform="translate(-194.657,-135.143)"
                   id="g144"><text
                     id="text146"
                     style="font-variant:normal;font-weight:normal;font-size:9.96263981px;font-family:LMMathItalic10;-inkscape-font-specification:LMMathItalic10-Regular;writing-mode:lr-tb;fill:#000000;fill-opacity:1;fill-rule:nonzero;stroke:none"
                     transform="matrix(1,0,0,-1,194.657,135.143)"><tspan
                       id="tspan148"
                       y="0"
                       x="0">L</tspan></text>
<g
                     transform="translate(194.657,135.143)"
                     id="g150" /></g></g><g
                 transform="translate(-133.522,-131.769)"
                 id="g152" /></g></g><g
             id="g154"><g
               transform="matrix(0,-2,2,0,113.386,170.646)"
               id="g156"><g
                 id="g158" /><g
                 transform="translate(-113.386,-170.646)"
                 id="g160" /></g><g
               id="g162"><g
                 id="g164"><path
                   id="path166"
                   style="fill:#000000;fill-opacity:1;fill-rule:nonzero;stroke:#000000;stroke-width:0.3985;stroke-linecap:butt;stroke-linejoin:miter;stroke-miterlimit:10;stroke-dasharray:none;stroke-opacity:1"
                   d="m 113.38724,174.12001 -3.96851,0 3.96851,-8.43307 3.9685,8.43307 -3.9685,0" /></g></g></g><g
             id="g168"><g
               transform="matrix(2,0,0,2,120.425,165.569)"
               id="g170"><g
                 id="g172"><g
                   transform="translate(-181.56,-168.943)"
                   id="g174"><text
                     id="text176"
                     style="font-variant:normal;font-weight:normal;font-size:9.96263981px;font-family:LMMathItalic10;-inkscape-font-specification:LMMathItalic10-Regular;writing-mode:lr-tb;fill:#000000;fill-opacity:1;fill-rule:nonzero;stroke:none"
                     transform="matrix(1,0,0,-1,181.56,168.943)"><tspan
                       id="tspan178"
                       y="0"
                       x="0">i</tspan></text>
<text
                     id="text180"
                     style="font-variant:normal;font-weight:normal;font-size:6.97384977px;font-family:LMMathItalic7;-inkscape-font-specification:LMMathItalic7-Regular;writing-mode:lr-tb;fill:#000000;fill-opacity:1;fill-rule:nonzero;stroke:none"
                     transform="matrix(1,0,0,-1,184.993,167.449)"><tspan
                       id="tspan182"
                       y="0"
                       x="0">s</tspan></text>
<g
                     transform="translate(181.56,168.943)"
                     id="g184" /></g></g><g
                 transform="translate(-120.425,-165.569)"
                 id="g186" /></g></g><g
             id="g188" /><g
             id="g190" /><g
             id="g192"><path
               id="path194"
               style="fill:none;stroke:#000000;stroke-width:0.79699999;stroke-linecap:butt;stroke-linejoin:bevel;stroke-miterlimit:10;stroke-dasharray:none;stroke-opacity:1"
               d="M 113.38724,77.50114 125.29294,71.77805 101.48152,61.12888 125.29294,50.4797 101.48152,39.83055 125.29294,29.18138 101.48152,18.53221 113.38724,13.20763" /><g
               transform="matrix(0,-2,2,0,113.386,45.354)"
               id="g196"><g
                 id="g198" /><g
                 transform="translate(-113.386,-45.354)"
                 id="g200" /></g></g><g
             id="g202" /><g
             id="g204" /><g
             id="g206"><g
               transform="matrix(2,0,0,2,113.386,0)"
               id="g208"><g
                 id="g210" /><g
                 transform="translate(-113.386,0)"
                 id="g212" /></g><g
               id="g214"><g
                 id="g216"><path
                   id="path218"
                   style="fill:#000000;fill-opacity:1;fill-rule:nonzero;stroke:#000000;stroke-width:0.3985;stroke-linecap:butt;stroke-linejoin:miter;stroke-miterlimit:10;stroke-dasharray:none;stroke-opacity:1"
                   d="m 116.56152,-8.1e-4 c 0,1.7531 -1.42117,3.17427 -3.17428,3.17427 -1.75313,0 -3.1743,-1.42117 -3.1743,-3.17427 0,-1.75313 1.42117,-3.1743 3.1743,-3.1743 1.75311,0 3.17428,1.42117 3.17428,3.1743 z" /></g></g></g><g
             id="g220" /><g
             id="g222"><g
               transform="matrix(2,0,0,2,133.522,41.06)"
               id="g224"><g
                 id="g226"><g
                   transform="translate(-194.657,-44.434)"
                   id="g228"><text
                     id="text230"
                     style="font-variant:normal;font-weight:normal;font-size:9.96263981px;font-family:LMMathItalic10;-inkscape-font-specification:LMMathItalic10-Regular;writing-mode:lr-tb;fill:#000000;fill-opacity:1;fill-rule:nonzero;stroke:none"
                     transform="matrix(1,0,0,-1,194.657,44.434)"><tspan
                       id="tspan232"
                       y="0"
                       x="0">R</tspan></text>
<g
                     transform="translate(194.657,44.434)"
                     id="g234" /></g></g><g
                 transform="translate(-133.522,-41.06)"
                 id="g236" /></g></g><g
             id="g238" /><path
             id="path240"
             style="fill:none;stroke:#000000;stroke-width:0.3985;stroke-linecap:butt;stroke-linejoin:miter;stroke-miterlimit:10;stroke-dasharray:none;stroke-opacity:1"
             d="m 113.38724,181.4194 85.0404,0 0,-0.39851 m 0,0.39851 0,-74.83581 m 0,-31.74782 0,-74.83577 m 0,74.83577 0,-74.83577 m 0,0.3985 0,-0.3985 -85.0404,0 0,-8.1e-4" /><g
             id="g242" /><g
             id="g244" /><g
             id="g246"><g
               id="g248"><path
                 id="path250"
                 style="fill:#000000;fill-opacity:1;fill-rule:nonzero;stroke:#000000;stroke-width:0.79699999;stroke-linecap:butt;stroke-linejoin:miter;stroke-miterlimit:10;stroke-dasharray:none;stroke-opacity:1"
                 d="m 198.42764,106.58359 19.8427,-31.74782 -39.68538,0 19.84268,31.74782" /></g><path
               id="path252"
               style="fill:none;stroke:#000000;stroke-width:0.79699999;stroke-linecap:butt;stroke-linejoin:miter;stroke-miterlimit:10;stroke-dasharray:none;stroke-opacity:1"
               d="m 178.58496,106.58359 39.68538,0" /><g
               transform="matrix(0,2,2,0,198.425,90.709)"
               id="g254"><g
                 id="g256" /><g
                 transform="translate(-198.425,-90.709)"
                 id="g258" /></g></g><g
             id="g260" /><g
             id="g262" /><g
             id="g264"><g
               transform="matrix(0,2,-2,0,198.425,37.418)"
               id="g266"><g
                 id="g268" /><g
                 transform="translate(-198.425,-37.418)"
                 id="g270" /></g><g
               id="g272"><g
                 id="g274"><path
                   id="path276"
                   style="fill:#000000;fill-opacity:1;fill-rule:nonzero;stroke:#000000;stroke-width:0.3985;stroke-linecap:butt;stroke-linejoin:miter;stroke-miterlimit:10;stroke-dasharray:none;stroke-opacity:1"
                   d="m 198.42764,33.94547 3.96851,0 -3.96851,8.43307 -3.9685,-8.43307 3.9685,0" /></g></g></g><g
             id="g278"><g
               transform="matrix(2,0,0,2,205.465,32.342)"
               id="g280"><g
                 id="g282"><g
                   transform="translate(-266.6,-35.716)"
                   id="g284"><text
                     id="text286"
                     style="font-variant:normal;font-weight:normal;font-size:9.96263981px;font-family:LMMathItalic10;-inkscape-font-specification:LMMathItalic10-Regular;writing-mode:lr-tb;fill:#000000;fill-opacity:1;fill-rule:nonzero;stroke:none"
                     transform="matrix(1,0,0,-1,266.6,35.716)"><tspan
                       id="tspan288"
                       y="0"
                       x="0">i</tspan></text>
<text
                     id="text290"
                     style="font-variant:normal;font-weight:normal;font-size:6.97384977px;font-family:LMMathItalic7;-inkscape-font-specification:LMMathItalic7-Regular;writing-mode:lr-tb;fill:#000000;fill-opacity:1;fill-rule:nonzero;stroke:none"
                     transform="matrix(1,0,0,-1,270.032,34.221)"><tspan
                       id="tspan292"
                       y="0"
                       x="0">d</tspan></text>
<g
                     transform="translate(266.6,35.716)"
                     id="g294" /></g></g><g
                 transform="translate(-205.465,-32.342)"
                 id="g296" /></g></g></g></g></g></g></svg>