<?xml version="1.0" encoding="UTF-8" standalone="no"?>
<svg
   xmlns:dc="http://purl.org/dc/elements/1.1/"
   xmlns:cc="http://creativecommons.org/ns#"
   xmlns:rdf="http://www.w3.org/1999/02/22-rdf-syntax-ns#"
   xmlns:svg="http://www.w3.org/2000/svg"
   xmlns="http://www.w3.org/2000/svg"
   viewBox="0 0 374.6525 326.53125"
   height="326.53125"
   width="374.6525"
   xml:space="preserve"
   version="1.1"
   id="svg2"><metadata
     id="metadata8"><rdf:RDF><cc:Work
         rdf:about=""><dc:format>image/svg+xml</dc:format><dc:type
           rdf:resource="http://purl.org/dc/dcmitype/StillImage" /></cc:Work></rdf:RDF></metadata><defs
     id="defs6" /><g
     transform="matrix(1.25,0,0,-1.25,0,326.53125)"
     id="g10"><g
       transform="translate(224.573,202.026)"
       id="g12"><g
         id="g14"><g
           id="g16"><path
             id="path18"
             style="fill:none;stroke:#000000;stroke-width:0.3985;stroke-linecap:butt;stroke-linejoin:miter;stroke-miterlimit:10;stroke-dasharray:none;stroke-opacity:1"
             d="M 0,0 0,-22.67752 M 0,-62.36288 0,-85.0404 m 0,0 0,-10.77183 m 0,-63.49677 0,-10.77183" /><g
             id="g20"><g
               transform="matrix(2,0,0,2,-14.192,38.61)"
               id="g22"><g
                 id="g24"><g
                   transform="translate(-210.381,-240.636)"
                   id="g26"><text
                     id="text28"
                     style="font-variant:normal;font-weight:normal;font-size:9.96263981px;font-family:LMRoman10;-inkscape-font-specification:LMRoman10-Regular;writing-mode:lr-tb;fill:#000000;fill-opacity:1;fill-rule:nonzero;stroke:none"
                     transform="matrix(1,0,0,-1,210.381,240.636)"><tspan
                       id="tspan30"
                       y="0"
                       x="0 6.635118">5V</tspan></text>
<g
                     transform="translate(210.381,240.636)"
                     id="g32" /></g></g><g
                 transform="translate(14.192,-38.61)"
                 id="g34" /></g><g
               id="g36"><g
                 id="g38"><path
                   id="path40"
                   style="fill:none;stroke:#000000;stroke-width:0.3985;stroke-linecap:butt;stroke-linejoin:miter;stroke-miterlimit:10;stroke-dasharray:none;stroke-opacity:1"
                   d="M 0,0 0,23.81085" /><path
                   id="path42"
                   style="fill:none;stroke:#000000;stroke-width:0.79699999;stroke-linecap:butt;stroke-linejoin:miter;stroke-miterlimit:10;stroke-dasharray:none;stroke-opacity:1"
                   d="M -7.93695,12.69914 0,23.81085 7.93695,12.69914" /></g></g></g><g
             id="g44" /><g
             id="g46" /><g
             id="g48"><path
               id="path50"
               style="fill:none;stroke:#000000;stroke-width:0.3985;stroke-linecap:butt;stroke-linejoin:miter;stroke-miterlimit:10;stroke-dasharray:none;stroke-opacity:1"
               d="m 9.92133,-22.67752 0,-39.68536 m 0,19.84268 9.92135,0" /><g
               transform="matrix(0,-2,2,0,0,-22.677)"
               id="g52"><g
                 id="g54" /><g
                 transform="translate(0,22.677)"
                 id="g56" /></g><g
               id="g58"><g
                 id="g60"><path
                   id="path62"
                   style="fill:#ffffff;fill-opacity:1;fill-rule:nonzero;stroke:#000000;stroke-width:0.3985;stroke-linecap:butt;stroke-linejoin:miter;stroke-miterlimit:10;stroke-dasharray:none;stroke-opacity:1"
                   d="m 0,-25.8518 c 1.75311,0 3.17429,1.42117 3.17429,3.17428 0,1.75312 -1.42118,3.1743 -3.17429,3.1743 -1.75311,0 -3.17429,-1.42118 -3.17429,-3.1743 0,-1.75311 1.42118,-3.17428 3.17429,-3.17428 z" /></g></g><g
               transform="matrix(0,-2,2,0,0,-62.362)"
               id="g64"><g
                 id="g66" /><g
                 transform="translate(0,62.362)"
                 id="g68" /></g><g
               id="g70"><g
                 id="g72"><path
                   id="path74"
                   style="fill:#ffffff;fill-opacity:1;fill-rule:nonzero;stroke:#000000;stroke-width:0.3985;stroke-linecap:butt;stroke-linejoin:miter;stroke-miterlimit:10;stroke-dasharray:none;stroke-opacity:1"
                   d="m 0,-65.53719 c 1.75311,0 3.17429,1.42118 3.17429,3.17431 0,1.75312 -1.42118,3.17428 -3.17429,3.17428 -1.75311,0 -3.17429,-1.42116 -3.17429,-3.17428 0,-1.75313 1.42118,-3.17431 3.17429,-3.17431 z" /></g></g><g
               transform="matrix(0,-2,2,0,0,-62.362)"
               id="g76"><g
                 id="g78" /><g
                 transform="translate(0,62.362)"
                 id="g80" /></g></g><g
             id="g82"><g
               transform="matrix(2,0,0,2,0,-85.039)"
               id="g84"><g
                 id="g86" /><g
                 transform="translate(0,85.039)"
                 id="g88" /></g><g
               id="g90"><g
                 id="g92"><path
                   id="path94"
                   style="fill:#000000;fill-opacity:1;fill-rule:nonzero;stroke:#000000;stroke-width:0.3985;stroke-linecap:butt;stroke-linejoin:miter;stroke-miterlimit:10;stroke-dasharray:none;stroke-opacity:1"
                   d="m 3.17429,-85.0404 c 0,1.75312 -1.42118,3.17428 -3.17429,3.17428 -1.75311,0 -3.17429,-1.42116 -3.17429,-3.17428 0,-1.75313 1.42118,-3.1743 3.17429,-3.1743 1.75311,0 3.17429,1.42117 3.17429,3.1743 z" /></g></g></g><g
             id="g96" /><g
             id="g98" /><g
             id="g100"><path
               id="path102"
               style="fill:none;stroke:#000000;stroke-width:0.79699999;stroke-linecap:butt;stroke-linejoin:miter;stroke-miterlimit:10;stroke-dasharray:none;stroke-opacity:1"
               d="m 0,-95.81223 11.9057,-5.29137 -23.8114,-10.58277 23.8114,-10.58276 -23.8114,-10.58277 23.8114,-10.58278 -23.8114,-10.58276 L 0,-159.30882" /><g
               transform="matrix(0,-2,2,0,0,-127.559)"
               id="g104"><g
                 id="g106" /><g
                 transform="translate(0,127.559)"
                 id="g108" /></g></g><g
             id="g110"><g
               transform="matrix(2,0,0,2,20.136,-134.422)"
               id="g112"><g
                 id="g114"><g
                   transform="translate(-244.709,-67.604)"
                   id="g116"><text
                     id="text118"
                     style="font-variant:normal;font-weight:normal;font-size:9.96263981px;font-family:LMRoman10;-inkscape-font-specification:LMRoman10-Regular;writing-mode:lr-tb;fill:#000000;fill-opacity:1;fill-rule:nonzero;stroke:none"
                     transform="matrix(1,0,0,-1,244.709,67.604)"><tspan
                       id="tspan120"
                       y="0"
                       x="0 4.9813199 11.616438 16.984308">10kΩ</tspan></text>
<g
                     transform="translate(244.709,67.604)"
                     id="g122" /></g></g><g
                 transform="translate(-20.136,134.422)"
                 id="g124" /></g></g><g
             id="g126"><g
               transform="matrix(2,0,0,2,0,-170.079)"
               id="g128"><g
                 id="g130" /><g
                 transform="translate(0,170.079)"
                 id="g132" /></g><g
               id="g134"><g
                 id="g136"><path
                   id="path138"
                   style="fill:none;stroke:#000000;stroke-width:0.3985;stroke-linecap:butt;stroke-linejoin:miter;stroke-miterlimit:10;stroke-dasharray:none;stroke-opacity:1"
                   d="m 0,-170.08083 0,-19.84268" /><path
                   id="path140"
                   style="fill:none;stroke:#000000;stroke-width:0.3985;stroke-linecap:butt;stroke-linejoin:miter;stroke-miterlimit:10;stroke-dasharray:none;stroke-opacity:1"
                   d="m -19.84268,-189.92351 39.68536,0" /><path
                   id="path142"
                   style="fill:none;stroke:#000000;stroke-width:0.3985;stroke-linecap:butt;stroke-linejoin:miter;stroke-miterlimit:10;stroke-dasharray:none;stroke-opacity:1"
                   d="m -15.87418,-193.89198 31.74836,0 m -27.77988,-3.96848 23.8114,0 m -19.84265,-3.96875 15.8739,0" /></g></g></g><path
             id="path144"
             style="fill:none;stroke:#000000;stroke-width:0.3985;stroke-linecap:butt;stroke-linejoin:miter;stroke-miterlimit:10;stroke-dasharray:none;stroke-opacity:1"
             d="m 0,-85.0404 -28.34679,0 m 0,0 -28.34683,0" /><g
             id="g146" /><g
             id="g148" /><g
             id="g150"><g
               transform="matrix(-2,0,0,-2,-28.346,-85.039)"
               id="g152"><g
                 id="g154" /><g
                 transform="translate(28.346,85.039)"
                 id="g156" /></g></g><g
             id="g158"><g
               transform="matrix(2,0,0,2,-56.693,-85.039)"
               id="g160"><g
                 id="g162" /><g
                 transform="translate(56.693,85.039)"
                 id="g164" /></g><g
               id="g166"><g
                 id="g168"><path
                   id="path170"
                   style="fill:#ffffff;fill-opacity:1;fill-rule:nonzero;stroke:#000000;stroke-width:0.3985;stroke-linecap:butt;stroke-linejoin:miter;stroke-miterlimit:10;stroke-dasharray:none;stroke-opacity:1"
                   d="m -53.51932,-85.0404 c 0,1.75312 -1.42117,3.17428 -3.1743,3.17428 -1.75311,0 -3.17428,-1.42116 -3.17428,-3.17428 0,-1.75313 1.42117,-3.1743 3.17428,-3.1743 1.75313,0 3.1743,1.42117 3.1743,3.1743 z" /></g></g></g><g
             id="g172"><g
               transform="matrix(2,0,0,2,-217.932,-89.965)"
               id="g174"><g
                 id="g176"><g
                   transform="translate(-6.641,-112.061)"
                   id="g178"><text
                     id="text180"
                     style="font-variant:normal;font-weight:normal;font-size:9.96263981px;font-family:LMRoman10;-inkscape-font-specification:LMRoman10-Regular;writing-mode:lr-tb;fill:#000000;fill-opacity:1;fill-rule:nonzero;stroke:none"
                     transform="matrix(1,0,0,-1,6.641,112.061)"><tspan
                       id="tspan182"
                       y="0"
                       x="0 7.4719801 11.374346 16.908592 22.442839 25.210461 30.744707 39.043587 46.654045 49.421669 54.402988 57.170609 61.045082 66.026398 72.11158">ArduinoDigital2</tspan></text>
<g
                     transform="translate(6.641,112.061)"
                     id="g184" /></g></g><g
                 transform="translate(217.932,89.965)"
                 id="g186" /></g></g></g></g></g></g></svg>