<?xml version="1.0" encoding="UTF-8" standalone="no"?>
<svg
   xmlns:dc="http://purl.org/dc/elements/1.1/"
   xmlns:cc="http://creativecommons.org/ns#"
   xmlns:rdf="http://www.w3.org/1999/02/22-rdf-syntax-ns#"
   xmlns:svg="http://www.w3.org/2000/svg"
   xmlns="http://www.w3.org/2000/svg"
   viewBox="0 0 692.95868 389.87601"
   height="389.87601"
   width="692.95868"
   xml:space="preserve"
   id="svg2"
   version="1.1"><metadata
     id="metadata8"><rdf:RDF><cc:Work
         rdf:about=""><dc:format>image/svg+xml</dc:format><dc:type
           rdf:resource="http://purl.org/dc/dcmitype/StillImage" /></cc:Work></rdf:RDF></metadata><defs
     id="defs6" /><g
     transform="matrix(1.3333333,0,0,-1.3333333,0,389.876)"
     id="g10"><g
       transform="translate(225.417,233.207)"
       id="g12"><g
         id="g14"><g
           id="g16"><path
             id="path18"
             style="fill:none;stroke:#000000;stroke-width:0.3985;stroke-linecap:butt;stroke-linejoin:miter;stroke-miterlimit:10;stroke-dasharray:none;stroke-opacity:1"
             d="m 0,0 v -28.34679 -0.3985 m 0,0.3985 V -47.05553 M 0,-94.6784 v -18.7088 m 0,0.3985 v -0.3985" /><g
             id="g20"><g
               transform="matrix(2,0,0,2,-21.941,38.611)"
               id="g22"><g
                 id="g24"><g
                   transform="translate(-203.476,-271.818)"
                   id="g26"><text
                     id="text30"
                     style="font-variant:normal;font-weight:normal;font-size:9.96263981px;font-family:LMRoman10;-inkscape-font-specification:LMRoman10-Regular;writing-mode:lr-tb;fill:#000000;fill-opacity:1;fill-rule:nonzero;stroke:none"
                     transform="matrix(1,0,0,-1,203.476,271.818)"><tspan
                       id="tspan28"
                       y="0"
                       x="0">3</tspan></text>
<text
                     id="text34"
                     style="font-variant:normal;font-weight:normal;font-size:9.96263981px;font-family:LMMathItalic10;-inkscape-font-specification:LMMathItalic10-Regular;writing-mode:lr-tb;fill:#000000;fill-opacity:1;fill-rule:nonzero;stroke:none"
                     transform="matrix(1,0,0,-1,208.458,271.818)"><tspan
                       id="tspan32"
                       y="0"
                       x="0">,</tspan></text>
<text
                     id="text38"
                     style="font-variant:normal;font-weight:normal;font-size:9.96263981px;font-family:LMRoman10;-inkscape-font-specification:LMRoman10-Regular;writing-mode:lr-tb;fill:#000000;fill-opacity:1;fill-rule:nonzero;stroke:none"
                     transform="matrix(1,0,0,-1,211.225,271.818)"><tspan
                       id="tspan36"
                       y="0"
                       x="0 6.635118">3V</tspan></text>
<g
                     transform="translate(203.476,271.818)"
                     id="g40" /></g></g><g
                 transform="translate(21.941,-38.611)"
                 id="g42" /></g><g
               id="g44"><g
                 id="g46"><path
                   id="path48"
                   style="fill:none;stroke:#000000;stroke-width:0.3985;stroke-linecap:butt;stroke-linejoin:miter;stroke-miterlimit:10;stroke-dasharray:none;stroke-opacity:1"
                   d="M 0,0 V 23.81085" /><path
                   id="path50"
                   style="fill:none;stroke:#000000;stroke-width:0.79699999;stroke-linecap:butt;stroke-linejoin:miter;stroke-miterlimit:10;stroke-dasharray:none;stroke-opacity:1"
                   d="M -7.93695,12.69914 0,23.81085 7.93695,12.69914" /></g></g></g><g
             id="g52" /><g
             id="g54" /><g
             id="g56"><path
               id="path58"
               style="fill:none;stroke:#000000;stroke-width:0.79699999;stroke-linecap:butt;stroke-linejoin:miter;stroke-miterlimit:10;stroke-dasharray:none;stroke-opacity:1"
               d="m 23.81143,-70.86696 c 0,13.15085 -10.66058,23.81143 -23.81143,23.81143 -13.15085,0 -23.81143,-10.66058 -23.81143,-23.81143 0,-13.15086 10.66058,-23.81144 23.81143,-23.81144 13.15085,0 23.81143,10.66058 23.81143,23.81144 z" /><g
               transform="matrix(0,-2,2,0,0,-70.866)"
               id="g60"><g
                 id="g62" /><g
                 transform="translate(0,70.866)"
                 id="g64" /></g></g><g
             id="g66" /><g
             id="g68" /><g
             id="g70"><g
               transform="matrix(2,0,0,2,33.231,-76.883)"
               id="g72"><g
                 id="g74"><g
                   transform="translate(-258.648,-156.324)"
                   id="g76"><text
                     id="text80"
                     style="font-variant:normal;font-weight:normal;font-size:9.96263981px;font-family:LMRoman10;-inkscape-font-specification:LMRoman10-Regular;writing-mode:lr-tb;fill:#000000;fill-opacity:1;fill-rule:nonzero;stroke:none"
                     transform="matrix(1,0,0,-1,258.648,156.324)"><tspan
                       id="tspan78"
                       y="0"
                       x="0 8.2988787 13.280199 17.155666 22.136986">motor</tspan></text>
<g
                     transform="translate(258.648,156.324)"
                     id="g82" /></g></g><g
                 transform="translate(-33.231,76.883)"
                 id="g84" /></g></g><g
             id="g86"><path
               id="path88"
               style="fill:none;stroke:#000000;stroke-width:0.3985;stroke-linecap:butt;stroke-linejoin:miter;stroke-miterlimit:10;stroke-dasharray:none;stroke-opacity:1"
               d="m 0,-113.18796 v -26.39201 l -23.81143,-10.91353" /><g
               id="g90"><path
                 id="path92"
                 style="fill:none;stroke:#000000;stroke-width:0.79699999;stroke-linecap:butt;stroke-linejoin:miter;stroke-miterlimit:10;stroke-dasharray:none;stroke-opacity:1"
                 d="m -23.81143,-139.57997 v -34.92272" /></g><path
               id="path94"
               style="fill:none;stroke:#000000;stroke-width:0.3985;stroke-linecap:butt;stroke-linejoin:miter;stroke-miterlimit:10;stroke-dasharray:none;stroke-opacity:1"
               d="M -23.81143,-163.58916 0,-174.50269 v -26.39199" /><g
               id="g96"><g
                 transform="matrix(1.82385,-0.83594,0.83594,1.82385,-11.906,-169.044)"
                 id="g98"><g
                   id="g100" /><g
                   transform="translate(11.906,169.044)"
                   id="g102" /></g><g
                 id="g104"><g
                   id="g106"><path
                     id="path108"
                     style="fill:#000000;fill-opacity:1;fill-rule:nonzero;stroke:#000000;stroke-width:0.3985;stroke-linecap:butt;stroke-linejoin:miter;stroke-miterlimit:10;stroke-dasharray:none;stroke-opacity:1"
                     d="m -15.07233,-167.59454 -1.6587,-3.61898 9.34904,0.0942 -6.03163,7.14372 -1.65871,-3.61898" /></g></g></g><path
               id="path110"
               style="fill:none;stroke:#000000;stroke-width:0.3985;stroke-linecap:butt;stroke-linejoin:miter;stroke-miterlimit:10;stroke-dasharray:none;stroke-opacity:1"
               d="m -23.81143,-157.04132 h -24.0107" /><g
               transform="matrix(2,0,0,2,7.937,-126.482)"
               id="g112"><g
                 id="g114" /><g
                 transform="translate(-7.937,126.482)"
                 id="g116" /></g></g><g
             id="g118"><g
               transform="matrix(2,0,0,2,-9.136,-77.67)"
               id="g120"><g
                 id="g122"><g
                   transform="translate(-216.281,-155.537)"
                   id="g124"><text
                     id="text128"
                     style="font-variant:normal;font-weight:normal;font-size:9.96263981px;font-family:LMRoman10;-inkscape-font-specification:LMRoman10-Regular;writing-mode:lr-tb;fill:#000000;fill-opacity:1;fill-rule:nonzero;stroke:none"
                     transform="matrix(1,0,0,-1,216.281,155.537)"><tspan
                       id="tspan126"
                       y="0"
                       x="0">M</tspan></text>
<g
                     transform="translate(216.281,155.537)"
                     id="g130" /></g></g><g
                 transform="translate(9.136,77.67)"
                 id="g132" /></g></g><path
             id="path134"
             style="fill:none;stroke:#000000;stroke-width:0.3985;stroke-linecap:butt;stroke-linejoin:miter;stroke-miterlimit:10;stroke-dasharray:none;stroke-opacity:1"
             d="m 0,-113.3872 h -0.3985 m 0.3985,0 -28.34679,2e-5 m 0,0 -28.34683,-2e-5 m 0.39852,0 h -0.39852 v 0.3985 m 0,-0.3985 3e-5,26.64632 m 0,31.74782 -3e-5,26.64627 m 0,-0.3985 v 0.3985 V 0 H 0" /><g
             id="g136" /><g
             id="g138" /><g
             id="g140"><g
               transform="matrix(-2,0,0,-2,-28.347,-113.386)"
               id="g142"><g
                 id="g144" /><g
                 transform="translate(28.347,113.386)"
                 id="g146" /></g></g><g
             id="g148" /><g
             id="g150" /><g
             id="g152"><g
               transform="matrix(2,0,0,2,0,-113.386)"
               id="g154"><g
                 id="g156" /><g
                 transform="translate(0,113.386)"
                 id="g158" /></g><g
               id="g160"><g
                 id="g162"><path
                   id="path164"
                   style="fill:#000000;fill-opacity:1;fill-rule:nonzero;stroke:#000000;stroke-width:0.3985;stroke-linecap:butt;stroke-linejoin:miter;stroke-miterlimit:10;stroke-dasharray:none;stroke-opacity:1"
                   d="m 3.17429,-113.3872 c 0,1.75312 -1.42118,3.1743 -3.17429,3.1743 -1.75311,0 -3.17429,-1.42118 -3.17429,-3.1743 0,-1.75312 1.42118,-3.1743 3.17429,-3.1743 1.75311,0 3.17429,1.42118 3.17429,3.1743 z" /></g></g></g><g
             id="g166" /><g
             id="g168" /><g
             id="g170"><g
               id="g172"><path
                 id="path174"
                 style="fill:none;stroke:#000000;stroke-width:0.79699999;stroke-linecap:butt;stroke-linejoin:miter;stroke-miterlimit:10;stroke-dasharray:none;stroke-opacity:1"
                 d="m -56.69359,-54.99306 -19.84268,-31.74782 h 39.68538 l -19.8427,31.74782" /></g><path
               id="path176"
               style="fill:none;stroke:#000000;stroke-width:0.79699999;stroke-linecap:butt;stroke-linejoin:miter;stroke-miterlimit:10;stroke-dasharray:none;stroke-opacity:1"
               d="M -36.85089,-54.99306 H -76.53627" /><g
               transform="matrix(0,2,-2,0,-56.693,-70.866)"
               id="g178"><g
                 id="g180" /><g
                 transform="translate(56.693,70.866)"
                 id="g182" /></g></g><g
             id="g184" /><g
             id="g186" /><g
             id="g188"><g
               transform="scale(2)"
               id="g190"><g
                 id="g192" /></g><g
               id="g194"><g
                 id="g196"><path
                   id="path198"
                   style="fill:#000000;fill-opacity:1;fill-rule:nonzero;stroke:#000000;stroke-width:0.3985;stroke-linecap:butt;stroke-linejoin:miter;stroke-miterlimit:10;stroke-dasharray:none;stroke-opacity:1"
                   d="M 3.17429,0 C 3.17429,1.75311 1.75311,3.17429 0,3.17429 -1.75311,3.17429 -3.17429,1.75311 -3.17429,0 c 0,-1.75311 1.42118,-3.17429 3.17429,-3.17429 1.75311,0 3.17429,1.42118 3.17429,3.17429 z" /></g></g></g><g
             id="g200"><g
               transform="matrix(2,0,0,2,0,-200.693)"
               id="g202"><g
                 id="g204" /><g
                 transform="translate(0,200.693)"
                 id="g206" /></g><g
               id="g208"><g
                 id="g210"><path
                   id="path212"
                   style="fill:none;stroke:#000000;stroke-width:0.3985;stroke-linecap:butt;stroke-linejoin:miter;stroke-miterlimit:10;stroke-dasharray:none;stroke-opacity:1"
                   d="m 0,-200.69545 v -19.84268" /><path
                   id="path214"
                   style="fill:none;stroke:#000000;stroke-width:0.3985;stroke-linecap:butt;stroke-linejoin:miter;stroke-miterlimit:10;stroke-dasharray:none;stroke-opacity:1"
                   d="M -19.84268,-220.53813 H 19.84268" /><path
                   id="path216"
                   style="fill:none;stroke:#000000;stroke-width:0.3985;stroke-linecap:butt;stroke-linejoin:miter;stroke-miterlimit:10;stroke-dasharray:none;stroke-opacity:1"
                   d="m -15.87418,-224.5066 h 31.74836 m -27.77988,-3.96848 h 23.8114 m -19.84265,-3.96875 h 15.8739" /></g></g></g><path
             id="path218"
             style="fill:none;stroke:#000000;stroke-width:0.3985;stroke-linecap:butt;stroke-linejoin:miter;stroke-miterlimit:10;stroke-dasharray:none;stroke-opacity:1"
             d="m -47.6229,-157.04132 h -0.3985 m 0.3985,0 -13.60665,3e-5 m -63.49678,0 -13.60668,-3e-5 m 0.3985,0 h -0.3985" /><g
             id="g220" /><g
             id="g222" /><g
             id="g224"><path
               id="path226"
               style="fill:none;stroke:#000000;stroke-width:0.79699999;stroke-linecap:butt;stroke-linejoin:bevel;stroke-miterlimit:10;stroke-dasharray:none;stroke-opacity:1"
               d="m -60.83104,-157.04129 -5.7231,-11.9057 -10.64916,23.8114 -10.64916,-23.8114 -10.64917,23.8114 -10.64917,-23.8114 -10.64917,23.8114 -5.32459,-11.9057" /><g
               transform="matrix(-2,0,0,-2,-92.977,-157.039)"
               id="g228"><g
                 id="g230" /><g
                 transform="translate(92.977,157.039)"
                 id="g232" /></g></g><g
             id="g234" /><g
             id="g236" /><g
             id="g238"><g
               transform="matrix(2,0,0,2,-116.777,-190.901)"
               id="g240"><g
                 id="g242"><g
                   transform="translate(-108.64,-42.306)"
                   id="g244"><text
                     id="text248"
                     style="font-variant:normal;font-weight:normal;font-size:9.96263981px;font-family:LMRoman10;-inkscape-font-specification:LMRoman10-Regular;writing-mode:lr-tb;fill:#000000;fill-opacity:1;fill-rule:nonzero;stroke:none"
                     transform="matrix(1,0,0,-1,108.64,42.306)"><tspan
                       id="tspan246"
                       y="0"
                       x="0 4.9813199 9.9626398 16.597757">180Ω</tspan></text>
<g
                     transform="translate(108.64,42.306)"
                     id="g250" /></g></g><g
                 transform="translate(116.777,190.901)"
                 id="g252" /></g></g><g
             id="g254"><g
               transform="matrix(2,0,0,2,-138.332,-157.039)"
               id="g256"><g
                 id="g258" /><g
                 transform="translate(138.332,157.039)"
                 id="g260" /></g><g
               id="g262"><g
                 id="g264"><path
                   id="path266"
                   style="fill:#ffffff;fill-opacity:1;fill-rule:nonzero;stroke:#000000;stroke-width:0.3985;stroke-linecap:butt;stroke-linejoin:miter;stroke-miterlimit:10;stroke-dasharray:none;stroke-opacity:1"
                   d="m -135.15872,-157.04132 c 0,1.75311 -1.42116,3.17429 -3.17429,3.17429 -1.75313,0 -3.1743,-1.42118 -3.1743,-3.17429 0,-1.75313 1.42117,-3.1743 3.1743,-3.1743 1.75313,0 3.17429,1.42117 3.17429,3.1743 z" /></g></g></g><g
             id="g268"><g
               transform="matrix(2,0,0,2,-218.776,-163.953)"
               id="g270"><g
                 id="g272"><g
                   transform="translate(-6.641,-69.254)"
                   id="g274"><text
                     id="text278"
                     style="font-variant:normal;font-weight:normal;font-size:9.96263981px;font-family:LMRoman10;-inkscape-font-specification:LMRoman10-Regular;writing-mode:lr-tb;fill:#000000;fill-opacity:1;fill-rule:nonzero;stroke:none"
                     transform="matrix(1,0,0,-1,6.641,69.254)"><tspan
                       id="tspan276"
                       y="0"
                       x="0 7.4719801 11.377335 16.916563 24.109589 31.721046">Ard.D9</tspan></text>
<g
                     transform="translate(6.641,69.254)"
                     id="g280" /></g></g><g
                 transform="translate(218.776,163.953)"
                 id="g282" /></g></g><path
             id="path284"
             style="fill:none;stroke:#000000;stroke-width:0.3985;stroke-linecap:butt;stroke-linejoin:miter;stroke-miterlimit:10;stroke-dasharray:none;stroke-opacity:1"
             d="m 170.08086,0 v -0.3985 m 0,0.3985 -3e-5,-68.88286 m 0,-63.49678 3e-5,-68.88287 m 0,0.3985 v -0.3985" /><g
             id="g286"><g
               transform="matrix(2,0,0,2,155.887,38.611)"
               id="g288"><g
                 id="g290"><g
                   transform="translate(-381.304,-271.818)"
                   id="g292"><text
                     id="text296"
                     style="font-variant:normal;font-weight:normal;font-size:9.96263981px;font-family:LMRoman10;-inkscape-font-specification:LMRoman10-Regular;writing-mode:lr-tb;fill:#000000;fill-opacity:1;fill-rule:nonzero;stroke:none"
                     transform="matrix(1,0,0,-1,381.304,271.818)"><tspan
                       id="tspan294"
                       y="0"
                       x="0 6.635118">5V</tspan></text>
<g
                     transform="translate(381.304,271.818)"
                     id="g298" /></g></g><g
                 transform="translate(-155.887,-38.611)"
                 id="g300" /></g><g
               id="g302"><g
                 id="g304"><path
                   id="path306"
                   style="fill:none;stroke:#000000;stroke-width:0.3985;stroke-linecap:butt;stroke-linejoin:miter;stroke-miterlimit:10;stroke-dasharray:none;stroke-opacity:1"
                   d="M 170.08086,0 V 23.81085" /><path
                   id="path308"
                   style="fill:none;stroke:#000000;stroke-width:0.79699999;stroke-linecap:butt;stroke-linejoin:miter;stroke-miterlimit:10;stroke-dasharray:none;stroke-opacity:1"
                   d="m 162.1439,12.69914 7.93696,11.11171 7.93694,-11.11171" /></g></g></g><g
             id="g310" /><g
             id="g312" /><g
             id="g314"><path
               id="path316"
               style="fill:none;stroke:#000000;stroke-width:0.79699999;stroke-linecap:butt;stroke-linejoin:bevel;stroke-miterlimit:10;stroke-dasharray:none;stroke-opacity:1"
               d="m 170.08083,-68.48436 11.9057,-5.72308 -23.8114,-10.64917 23.8114,-10.64917 -23.8114,-10.64917 23.8114,-10.64917 -23.8114,-10.64918 11.9057,-5.32458" /><g
               id="g318"><path
                 id="path320"
                 style="fill:none;stroke:#000000;stroke-width:0.79699999;stroke-linecap:butt;stroke-linejoin:bevel;stroke-miterlimit:10;stroke-dasharray:none;stroke-opacity:1"
                 d="M 201.82921,-100.63126 H 185.09485" /><g
                 transform="rotate(180,92.547425,-50.31563)"
                 id="g322"><g
                   id="g324"><path
                     id="path326"
                     style="fill:#000000;fill-opacity:1;fill-rule:nonzero;stroke:none"
                     d="m 3.1083,0 c -1.29513,0.25902 -3.62635,0.77707 -5.1805,1.94269 1.29513,-1.42464 1.29513,-2.46074 0,-3.88538 C -0.51805,-0.77707 1.81317,-0.25902 3.1083,0 Z" /></g></g></g><g
               transform="matrix(0,-2,2,0,170.078,-100.63)"
               id="g328"><g
                 id="g330" /><g
                 transform="translate(-170.078,100.63)"
                 id="g332" /></g></g><g
             id="g334" /><g
             id="g336" /><g
             id="g338"><g
               transform="matrix(2,0,0,2,170.078,-201.26)"
               id="g340"><g
                 id="g342" /><g
                 transform="translate(-170.078,201.26)"
                 id="g344" /></g><g
               id="g346"><g
                 id="g348"><path
                   id="path350"
                   style="fill:none;stroke:#000000;stroke-width:0.3985;stroke-linecap:butt;stroke-linejoin:miter;stroke-miterlimit:10;stroke-dasharray:none;stroke-opacity:1"
                   d="M 170.08086,-201.26251 V -221.1052" /><path
                   id="path352"
                   style="fill:none;stroke:#000000;stroke-width:0.3985;stroke-linecap:butt;stroke-linejoin:miter;stroke-miterlimit:10;stroke-dasharray:none;stroke-opacity:1"
                   d="m 150.23816,-221.1052 h 39.68538" /><path
                   id="path354"
                   style="fill:none;stroke:#000000;stroke-width:0.3985;stroke-linecap:butt;stroke-linejoin:miter;stroke-miterlimit:10;stroke-dasharray:none;stroke-opacity:1"
                   d="m 154.20667,-225.07367 h 31.74836 m -27.77987,-3.96847 h 23.8114 m -19.84266,-3.96876 h 15.8739" /></g></g></g><path
             id="path356"
             style="fill:none;stroke:#000000;stroke-width:0.3985;stroke-linecap:butt;stroke-linejoin:miter;stroke-miterlimit:10;stroke-dasharray:none;stroke-opacity:1"
             d="m 201.82921,-100.63126 h 5.66971" /><g
             id="g358"><g
               transform="matrix(2,0,0,2,207.496,-100.63)"
               id="g360"><g
                 id="g362" /><g
                 transform="translate(-207.496,100.63)"
                 id="g364" /></g><g
               id="g366"><g
                 id="g368"><path
                   id="path370"
                   style="fill:#ffffff;fill-opacity:1;fill-rule:nonzero;stroke:#000000;stroke-width:0.3985;stroke-linecap:butt;stroke-linejoin:miter;stroke-miterlimit:10;stroke-dasharray:none;stroke-opacity:1"
                   d="m 210.6732,-100.63126 c 0,1.75313 -1.42117,3.17431 -3.17428,3.17431 -1.75313,0 -3.1743,-1.42118 -3.1743,-3.17431 0,-1.75311 1.42117,-3.17428 3.1743,-3.17428 1.75311,0 3.17428,1.42117 3.17428,3.17428 z" /></g></g></g><g
             id="g372"><g
               transform="matrix(2,0,0,2,214.535,-107.544)"
               id="g374"><g
                 id="g376"><g
                   transform="translate(-439.952,-125.663)"
                   id="g378"><text
                     id="text382"
                     style="font-variant:normal;font-weight:normal;font-size:9.96263981px;font-family:LMRoman10;-inkscape-font-specification:LMRoman10-Regular;writing-mode:lr-tb;fill:#000000;fill-opacity:1;fill-rule:nonzero;stroke:none"
                     transform="matrix(1,0,0,-1,439.952,125.663)"><tspan
                       id="tspan380"
                       y="0"
                       x="0 7.4719801 11.377335 16.916563 24.109589 31.58157">Ard.A0</tspan></text>
<g
                     transform="translate(439.952,125.663)"
                     id="g384" /></g></g><g
                 transform="translate(-214.535,107.544)"
                 id="g386" /></g></g></g></g></g></g></svg>