<?xml version="1.0" encoding="UTF-8" standalone="no"?>
<svg
   xmlns:dc="http://purl.org/dc/elements/1.1/"
   xmlns:cc="http://creativecommons.org/ns#"
   xmlns:rdf="http://www.w3.org/1999/02/22-rdf-syntax-ns#"
   xmlns:svg="http://www.w3.org/2000/svg"
   xmlns="http://www.w3.org/2000/svg"
   viewBox="0 0 649.64874 365.50876"
   height="365.50876"
   width="649.64874"
   xml:space="preserve"
   version="1.1"
   id="svg2"><metadata
     id="metadata8"><rdf:RDF><cc:Work
         rdf:about=""><dc:format>image/svg+xml</dc:format><dc:type
           rdf:resource="http://purl.org/dc/dcmitype/StillImage" /></cc:Work></rdf:RDF></metadata><defs
     id="defs6" /><g
     transform="matrix(1.25,0,0,-1.25,0,365.50875)"
     id="g10"><g
       transform="translate(225.417,233.207)"
       id="g12"><g
         id="g14"><g
           id="g16"><path
             id="path18"
             style="fill:none;stroke:#000000;stroke-width:0.3985;stroke-linecap:butt;stroke-linejoin:miter;stroke-miterlimit:10;stroke-dasharray:none;stroke-opacity:1"
             d="m 0,0 0,-28.34679 0,-0.3985 m 0,0.3985 0,-18.70874 m 0,-47.62287 0,-18.7088 m 0,0.3985 0,-0.3985" /><g
             id="g20"><g
               transform="matrix(2,0,0,2,-21.941,38.611)"
               id="g22"><g
                 id="g24"><g
                   transform="translate(-203.476,-271.818)"
                   id="g26"><text
                     id="text28"
                     style="font-variant:normal;font-weight:normal;font-size:9.96263981px;font-family:LMRoman10;-inkscape-font-specification:LMRoman10-Regular;writing-mode:lr-tb;fill:#000000;fill-opacity:1;fill-rule:nonzero;stroke:none"
                     transform="matrix(1,0,0,-1,203.476,271.818)"><tspan
                       id="tspan30"
                       y="0"
                       x="0">3</tspan></text>
<text
                     id="text32"
                     style="font-variant:normal;font-weight:normal;font-size:9.96263981px;font-family:LMMathItalic10;-inkscape-font-specification:LMMathItalic10-Regular;writing-mode:lr-tb;fill:#000000;fill-opacity:1;fill-rule:nonzero;stroke:none"
                     transform="matrix(1,0,0,-1,208.458,271.818)"><tspan
                       id="tspan34"
                       y="0"
                       x="0">,</tspan></text>
<text
                     id="text36"
                     style="font-variant:normal;font-weight:normal;font-size:9.96263981px;font-family:LMRoman10;-inkscape-font-specification:LMRoman10-Regular;writing-mode:lr-tb;fill:#000000;fill-opacity:1;fill-rule:nonzero;stroke:none"
                     transform="matrix(1,0,0,-1,211.225,271.818)"><tspan
                       id="tspan38"
                       y="0"
                       x="0 6.635118">3V</tspan></text>
<g
                     transform="translate(203.476,271.818)"
                     id="g40" /></g></g><g
                 transform="translate(21.941,-38.611)"
                 id="g42" /></g><g
               id="g44"><g
                 id="g46"><path
                   id="path48"
                   style="fill:none;stroke:#000000;stroke-width:0.3985;stroke-linecap:butt;stroke-linejoin:miter;stroke-miterlimit:10;stroke-dasharray:none;stroke-opacity:1"
                   d="M 0,0 0,23.81085" /><path
                   id="path50"
                   style="fill:none;stroke:#000000;stroke-width:0.79699999;stroke-linecap:butt;stroke-linejoin:miter;stroke-miterlimit:10;stroke-dasharray:none;stroke-opacity:1"
                   d="M -7.93695,12.69914 0,23.81085 7.93695,12.69914" /></g></g></g><g
             id="g52" /><g
             id="g54" /><g
             id="g56"><path
               id="path58"
               style="fill:none;stroke:#000000;stroke-width:0.79699999;stroke-linecap:butt;stroke-linejoin:miter;stroke-miterlimit:10;stroke-dasharray:none;stroke-opacity:1"
               d="m 23.81143,-70.86696 c 0,13.15085 -10.66058,23.81143 -23.81143,23.81143 -13.15085,0 -23.81143,-10.66058 -23.81143,-23.81143 0,-13.15086 10.66058,-23.81144 23.81143,-23.81144 13.15085,0 23.81143,10.66058 23.81143,23.81144 z" /><g
               transform="matrix(0,-2,2,0,0,-70.866)"
               id="g60"><g
                 id="g62" /><g
                 transform="translate(0,70.866)"
                 id="g64" /></g></g><g
             id="g66" /><g
             id="g68" /><g
             id="g70" /><g
             id="g72"><g
               transform="matrix(2,0,0,2,33.231,-75.16)"
               id="g74"><g
                 id="g76"><g
                   transform="translate(-258.648,-158.047)"
                   id="g78"><text
                     id="text80"
                     style="font-variant:normal;font-weight:normal;font-size:9.96263981px;font-family:LMRoman10;-inkscape-font-specification:LMRoman10-Regular;writing-mode:lr-tb;fill:#000000;fill-opacity:1;fill-rule:nonzero;stroke:none"
                     transform="matrix(1,0,0,-1,258.648,158.047)"><tspan
                       id="tspan82"
                       y="0"
                       x="0 8.2988787 13.280199 17.155666 22.136986">motor</tspan></text>
<g
                     transform="translate(258.648,158.047)"
                     id="g84" /></g></g><g
                 transform="translate(-33.231,75.16)"
                 id="g86" /></g></g><g
             id="g88"><path
               id="path90"
               style="fill:none;stroke:#000000;stroke-width:0.3985;stroke-linecap:butt;stroke-linejoin:miter;stroke-miterlimit:10;stroke-dasharray:none;stroke-opacity:1"
               d="m 0,-113.18796 0,-26.39201 -23.81143,-10.91353" /><g
               id="g92"><path
                 id="path94"
                 style="fill:none;stroke:#000000;stroke-width:0.79699999;stroke-linecap:butt;stroke-linejoin:miter;stroke-miterlimit:10;stroke-dasharray:none;stroke-opacity:1"
                 d="m -23.81143,-139.57997 0,-34.92272" /></g><path
               id="path96"
               style="fill:none;stroke:#000000;stroke-width:0.3985;stroke-linecap:butt;stroke-linejoin:miter;stroke-miterlimit:10;stroke-dasharray:none;stroke-opacity:1"
               d="M -23.81143,-163.58916 0,-174.50269 0,-200.89468" /><g
               id="g98"><g
                 transform="matrix(1.82385,-0.83594,0.83594,1.82385,-11.906,-169.044)"
                 id="g100"><g
                   id="g102" /><g
                   transform="translate(11.906,169.044)"
                   id="g104" /></g><g
                 id="g106"><g
                   id="g108"><path
                     id="path110"
                     style="fill:#000000;fill-opacity:1;fill-rule:nonzero;stroke:#000000;stroke-width:0.3985;stroke-linecap:butt;stroke-linejoin:miter;stroke-miterlimit:10;stroke-dasharray:none;stroke-opacity:1"
                     d="m -15.07233,-167.59454 -1.6587,-3.61898 9.34904,0.0942 -6.03163,7.14372 -1.65871,-3.61898" /></g></g></g><path
               id="path112"
               style="fill:none;stroke:#000000;stroke-width:0.3985;stroke-linecap:butt;stroke-linejoin:miter;stroke-miterlimit:10;stroke-dasharray:none;stroke-opacity:1"
               d="m -23.81143,-157.04132 -24.0107,0" /><g
               transform="matrix(2,0,0,2,7.937,-126.482)"
               id="g114"><g
                 id="g116" /><g
                 transform="translate(-7.937,126.482)"
                 id="g118" /></g></g><g
             id="g120"><g
               transform="matrix(2,0,0,2,-9.136,-77.67)"
               id="g122"><g
                 id="g124"><g
                   transform="translate(-216.281,-155.537)"
                   id="g126"><text
                     id="text128"
                     style="font-variant:normal;font-weight:normal;font-size:9.96263981px;font-family:LMRoman10;-inkscape-font-specification:LMRoman10-Regular;writing-mode:lr-tb;fill:#000000;fill-opacity:1;fill-rule:nonzero;stroke:none"
                     transform="matrix(1,0,0,-1,216.281,155.537)"><tspan
                       id="tspan130"
                       y="0"
                       x="0">M</tspan></text>
<g
                     transform="translate(216.281,155.537)"
                     id="g132" /></g></g><g
                 transform="translate(9.136,77.67)"
                 id="g134" /></g></g><path
             id="path136"
             style="fill:none;stroke:#000000;stroke-width:0.3985;stroke-linecap:butt;stroke-linejoin:miter;stroke-miterlimit:10;stroke-dasharray:none;stroke-opacity:1"
             d="m 0,-113.3872 -0.3985,0 m 0.3985,0 -28.34679,2e-5 m 0,0 -28.34683,-2e-5 m 0.39852,0 -0.39852,0 0,0.3985 m 0,-0.3985 3e-5,26.64632 m 0,31.74782 -3e-5,26.64627 m 0,-0.3985 0,0.3985 0,28.34679 L 0,0" /><g
             id="g138" /><g
             id="g140" /><g
             id="g142"><g
               transform="matrix(-2,0,0,-2,-28.347,-113.386)"
               id="g144"><g
                 id="g146" /><g
                 transform="translate(28.347,113.386)"
                 id="g148" /></g></g><g
             id="g150" /><g
             id="g152" /><g
             id="g154"><g
               transform="matrix(2,0,0,2,0,-113.386)"
               id="g156"><g
                 id="g158" /><g
                 transform="translate(0,113.386)"
                 id="g160" /></g><g
               id="g162"><g
                 id="g164"><path
                   id="path166"
                   style="fill:#000000;fill-opacity:1;fill-rule:nonzero;stroke:#000000;stroke-width:0.3985;stroke-linecap:butt;stroke-linejoin:miter;stroke-miterlimit:10;stroke-dasharray:none;stroke-opacity:1"
                   d="m 3.17429,-113.3872 c 0,1.75312 -1.42118,3.1743 -3.17429,3.1743 -1.75311,0 -3.17429,-1.42118 -3.17429,-3.1743 0,-1.75312 1.42118,-3.1743 3.17429,-3.1743 1.75311,0 3.17429,1.42118 3.17429,3.1743 z" /></g></g></g><g
             id="g168" /><g
             id="g170" /><g
             id="g172"><g
               id="g174"><path
                 id="path176"
                 style="fill:none;stroke:#000000;stroke-width:0.79699999;stroke-linecap:butt;stroke-linejoin:miter;stroke-miterlimit:10;stroke-dasharray:none;stroke-opacity:1"
                 d="m -56.69359,-54.99306 -19.84268,-31.74782 39.68538,0 -19.8427,31.74782" /></g><path
               id="path178"
               style="fill:none;stroke:#000000;stroke-width:0.79699999;stroke-linecap:butt;stroke-linejoin:miter;stroke-miterlimit:10;stroke-dasharray:none;stroke-opacity:1"
               d="m -36.85089,-54.99306 -39.68538,0" /><g
               transform="matrix(0,2,-2,0,-56.693,-70.866)"
               id="g180"><g
                 id="g182" /><g
                 transform="translate(56.693,70.866)"
                 id="g184" /></g></g><g
             id="g186" /><g
             id="g188" /><g
             id="g190"><g
               transform="scale(2,2)"
               id="g192"><g
                 id="g194" /></g><g
               id="g196"><g
                 id="g198"><path
                   id="path200"
                   style="fill:#000000;fill-opacity:1;fill-rule:nonzero;stroke:#000000;stroke-width:0.3985;stroke-linecap:butt;stroke-linejoin:miter;stroke-miterlimit:10;stroke-dasharray:none;stroke-opacity:1"
                   d="M 3.17429,0 C 3.17429,1.75311 1.75311,3.17429 0,3.17429 -1.75311,3.17429 -3.17429,1.75311 -3.17429,0 c 0,-1.75311 1.42118,-3.17429 3.17429,-3.17429 1.75311,0 3.17429,1.42118 3.17429,3.17429 z" /></g></g></g><g
             id="g202"><g
               transform="matrix(2,0,0,2,0,-200.693)"
               id="g204"><g
                 id="g206" /><g
                 transform="translate(0,200.693)"
                 id="g208" /></g><g
               id="g210"><g
                 id="g212"><path
                   id="path214"
                   style="fill:none;stroke:#000000;stroke-width:0.3985;stroke-linecap:butt;stroke-linejoin:miter;stroke-miterlimit:10;stroke-dasharray:none;stroke-opacity:1"
                   d="m 0,-200.69545 0,-19.84268" /><path
                   id="path216"
                   style="fill:none;stroke:#000000;stroke-width:0.3985;stroke-linecap:butt;stroke-linejoin:miter;stroke-miterlimit:10;stroke-dasharray:none;stroke-opacity:1"
                   d="m -19.84268,-220.53813 39.68536,0" /><path
                   id="path218"
                   style="fill:none;stroke:#000000;stroke-width:0.3985;stroke-linecap:butt;stroke-linejoin:miter;stroke-miterlimit:10;stroke-dasharray:none;stroke-opacity:1"
                   d="m -15.87418,-224.5066 31.74836,0 m -27.77988,-3.96848 23.8114,0 m -19.84265,-3.96875 15.8739,0" /></g></g></g><path
             id="path220"
             style="fill:none;stroke:#000000;stroke-width:0.3985;stroke-linecap:butt;stroke-linejoin:miter;stroke-miterlimit:10;stroke-dasharray:none;stroke-opacity:1"
             d="m -47.6229,-157.04132 -0.3985,0 m 0.3985,0 -13.60665,3e-5 m -63.49678,0 -13.60668,-3e-5 m 0.3985,0 -0.3985,0" /><g
             id="g222" /><g
             id="g224" /><g
             id="g226"><path
               id="path228"
               style="fill:none;stroke:#000000;stroke-width:0.79699999;stroke-linecap:butt;stroke-linejoin:bevel;stroke-miterlimit:10;stroke-dasharray:none;stroke-opacity:1"
               d="m -60.83104,-157.04129 -5.7231,-11.9057 -10.64916,23.8114 -10.64916,-23.8114 -10.64917,23.8114 -10.64917,-23.8114 -10.64917,23.8114 -5.32459,-11.9057" /><g
               transform="matrix(-2,0,0,-2,-92.977,-157.039)"
               id="g230"><g
                 id="g232" /><g
                 transform="translate(92.977,157.039)"
                 id="g234" /></g></g><g
             id="g236" /><g
             id="g238" /><g
             id="g240" /><g
             id="g242" /><g
             id="g244"><g
               transform="matrix(2,0,0,2,-116.777,-187.311)"
               id="g246"><g
                 id="g248"><g
                   transform="translate(-108.64,-45.896)"
                   id="g250"><text
                     id="text252"
                     style="font-variant:normal;font-weight:normal;font-size:9.96263981px;font-family:LMRoman10;-inkscape-font-specification:LMRoman10-Regular;writing-mode:lr-tb;fill:#000000;fill-opacity:1;fill-rule:nonzero;stroke:none"
                     transform="matrix(1,0,0,-1,108.64,45.896)"><tspan
                       id="tspan254"
                       y="0"
                       x="0 4.9813199 9.9626398 16.597757">180Ω</tspan></text>
<g
                     transform="translate(108.64,45.896)"
                     id="g256" /></g></g><g
                 transform="translate(116.777,187.311)"
                 id="g258" /></g></g><g
             id="g260"><g
               transform="matrix(2,0,0,2,-138.332,-157.039)"
               id="g262"><g
                 id="g264" /><g
                 transform="translate(138.332,157.039)"
                 id="g266" /></g><g
               id="g268"><g
                 id="g270"><path
                   id="path272"
                   style="fill:#ffffff;fill-opacity:1;fill-rule:nonzero;stroke:#000000;stroke-width:0.3985;stroke-linecap:butt;stroke-linejoin:miter;stroke-miterlimit:10;stroke-dasharray:none;stroke-opacity:1"
                   d="m -135.15872,-157.04132 c 0,1.75311 -1.42116,3.17429 -3.17429,3.17429 -1.75313,0 -3.1743,-1.42118 -3.1743,-3.17429 0,-1.75313 1.42117,-3.1743 3.1743,-3.1743 1.75313,0 3.17429,1.42117 3.17429,3.1743 z" /></g></g></g><g
             id="g274"><g
               transform="matrix(2,0,0,2,-218.776,-163.953)"
               id="g276"><g
                 id="g278"><g
                   transform="translate(-6.641,-69.254)"
                   id="g280"><text
                     id="text282"
                     style="font-variant:normal;font-weight:normal;font-size:9.96263981px;font-family:LMRoman10;-inkscape-font-specification:LMRoman10-Regular;writing-mode:lr-tb;fill:#000000;fill-opacity:1;fill-rule:nonzero;stroke:none"
                     transform="matrix(1,0,0,-1,6.641,69.254)"><tspan
                       id="tspan284"
                       y="0"
                       x="0 7.4719801 11.377335 16.916563 24.109589 31.721046">Ard.D9</tspan></text>
<g
                     transform="translate(6.641,69.254)"
                     id="g286" /></g></g><g
                 transform="translate(218.776,163.953)"
                 id="g288" /></g></g><path
             id="path290"
             style="fill:none;stroke:#000000;stroke-width:0.3985;stroke-linecap:butt;stroke-linejoin:miter;stroke-miterlimit:10;stroke-dasharray:none;stroke-opacity:1"
             d="m 170.08086,0 0,-0.3985 m 0,0.3985 -3e-5,-68.88286 m 0,-63.49678 3e-5,-68.88287 m 0,0.3985 0,-0.3985" /><g
             id="g292"><g
               transform="matrix(2,0,0,2,155.887,38.611)"
               id="g294"><g
                 id="g296"><g
                   transform="translate(-381.304,-271.818)"
                   id="g298"><text
                     id="text300"
                     style="font-variant:normal;font-weight:normal;font-size:9.96263981px;font-family:LMRoman10;-inkscape-font-specification:LMRoman10-Regular;writing-mode:lr-tb;fill:#000000;fill-opacity:1;fill-rule:nonzero;stroke:none"
                     transform="matrix(1,0,0,-1,381.304,271.818)"><tspan
                       id="tspan302"
                       y="0"
                       x="0 6.635118">5V</tspan></text>
<g
                     transform="translate(381.304,271.818)"
                     id="g304" /></g></g><g
                 transform="translate(-155.887,-38.611)"
                 id="g306" /></g><g
               id="g308"><g
                 id="g310"><path
                   id="path312"
                   style="fill:none;stroke:#000000;stroke-width:0.3985;stroke-linecap:butt;stroke-linejoin:miter;stroke-miterlimit:10;stroke-dasharray:none;stroke-opacity:1"
                   d="m 170.08086,0 0,23.81085" /><path
                   id="path314"
                   style="fill:none;stroke:#000000;stroke-width:0.79699999;stroke-linecap:butt;stroke-linejoin:miter;stroke-miterlimit:10;stroke-dasharray:none;stroke-opacity:1"
                   d="m 162.1439,12.69914 7.93696,11.11171 7.93694,-11.11171" /></g></g></g><g
             id="g316" /><g
             id="g318" /><g
             id="g320"><path
               id="path322"
               style="fill:none;stroke:#000000;stroke-width:0.79699999;stroke-linecap:butt;stroke-linejoin:bevel;stroke-miterlimit:10;stroke-dasharray:none;stroke-opacity:1"
               d="m 170.08083,-68.48436 11.9057,-5.72308 -23.8114,-10.64917 23.8114,-10.64917 -23.8114,-10.64917 23.8114,-10.64917 -23.8114,-10.64918 11.9057,-5.32458" /><g
               id="g324"><path
                 id="path326"
                 style="fill:none;stroke:#000000;stroke-width:0.79699999;stroke-linecap:butt;stroke-linejoin:bevel;stroke-miterlimit:10;stroke-dasharray:none;stroke-opacity:1"
                 d="m 201.82921,-100.63126 -16.73436,0" /><g
                 transform="matrix(-1,0,0,-1,185.09485,-100.63126)"
                 id="g328"><g
                   id="g330"><path
                     id="path332"
                     style="fill:#000000;fill-opacity:1;fill-rule:nonzero;stroke:none"
                     d="m 3.1083,0 c -1.29513,0.25902 -3.62635,0.77707 -5.1805,1.94269 1.29513,-1.42464 1.29513,-2.46074 0,-3.88538 C -0.51805,-0.77707 1.81317,-0.25902 3.1083,0 Z" /></g></g></g><g
               transform="matrix(0,-2,2,0,170.078,-100.63)"
               id="g334"><g
                 id="g336" /><g
                 transform="translate(-170.078,100.63)"
                 id="g338" /></g></g><g
             id="g340" /><g
             id="g342" /><g
             id="g344"><g
               transform="matrix(2,0,0,2,170.078,-201.26)"
               id="g346"><g
                 id="g348" /><g
                 transform="translate(-170.078,201.26)"
                 id="g350" /></g><g
               id="g352"><g
                 id="g354"><path
                   id="path356"
                   style="fill:none;stroke:#000000;stroke-width:0.3985;stroke-linecap:butt;stroke-linejoin:miter;stroke-miterlimit:10;stroke-dasharray:none;stroke-opacity:1"
                   d="m 170.08086,-201.26251 0,-19.84269" /><path
                   id="path358"
                   style="fill:none;stroke:#000000;stroke-width:0.3985;stroke-linecap:butt;stroke-linejoin:miter;stroke-miterlimit:10;stroke-dasharray:none;stroke-opacity:1"
                   d="m 150.23816,-221.1052 39.68538,0" /><path
                   id="path360"
                   style="fill:none;stroke:#000000;stroke-width:0.3985;stroke-linecap:butt;stroke-linejoin:miter;stroke-miterlimit:10;stroke-dasharray:none;stroke-opacity:1"
                   d="m 154.20667,-225.07367 31.74836,0 m -27.77987,-3.96847 23.8114,0 m -19.84266,-3.96876 15.8739,0" /></g></g></g><path
             id="path362"
             style="fill:none;stroke:#000000;stroke-width:0.3985;stroke-linecap:butt;stroke-linejoin:miter;stroke-miterlimit:10;stroke-dasharray:none;stroke-opacity:1"
             d="m 201.82921,-100.63126 5.66971,0" /><g
             id="g364"><g
               transform="matrix(2,0,0,2,207.496,-100.63)"
               id="g366"><g
                 id="g368" /><g
                 transform="translate(-207.496,100.63)"
                 id="g370" /></g><g
               id="g372"><g
                 id="g374"><path
                   id="path376"
                   style="fill:#ffffff;fill-opacity:1;fill-rule:nonzero;stroke:#000000;stroke-width:0.3985;stroke-linecap:butt;stroke-linejoin:miter;stroke-miterlimit:10;stroke-dasharray:none;stroke-opacity:1"
                   d="m 210.6732,-100.63126 c 0,1.75313 -1.42117,3.17431 -3.17428,3.17431 -1.75313,0 -3.1743,-1.42118 -3.1743,-3.17431 0,-1.75311 1.42117,-3.17428 3.1743,-3.17428 1.75311,0 3.17428,1.42117 3.17428,3.17428 z" /></g></g></g><g
             id="g378"><g
               transform="matrix(2,0,0,2,214.535,-107.544)"
               id="g380"><g
                 id="g382"><g
                   transform="translate(-439.952,-125.663)"
                   id="g384"><text
                     id="text386"
                     style="font-variant:normal;font-weight:normal;font-size:9.96263981px;font-family:LMRoman10;-inkscape-font-specification:LMRoman10-Regular;writing-mode:lr-tb;fill:#000000;fill-opacity:1;fill-rule:nonzero;stroke:none"
                     transform="matrix(1,0,0,-1,439.952,125.663)"><tspan
                       id="tspan388"
                       y="0"
                       x="0 7.4719801 11.377335 16.916563 24.109589 31.58157">Ard.A0</tspan></text>
<g
                     transform="translate(439.952,125.663)"
                     id="g390" /></g></g><g
                 transform="translate(-214.535,107.544)"
                 id="g392" /></g></g></g></g></g></g></svg>