<?xml version="1.0" encoding="UTF-8" standalone="no"?>
<svg
   xmlns:dc="http://purl.org/dc/elements/1.1/"
   xmlns:cc="http://creativecommons.org/ns#"
   xmlns:rdf="http://www.w3.org/1999/02/22-rdf-syntax-ns#"
   xmlns:svg="http://www.w3.org/2000/svg"
   xmlns="http://www.w3.org/2000/svg"
   viewBox="0 0 649.61877 365.50876"
   height="365.50876"
   width="649.61877"
   xml:space="preserve"
   version="1.1"
   id="svg2"><metadata
     id="metadata8"><rdf:RDF><cc:Work
         rdf:about=""><dc:format>image/svg+xml</dc:format><dc:type
           rdf:resource="http://purl.org/dc/dcmitype/StillImage" /></cc:Work></rdf:RDF></metadata><defs
     id="defs6" /><g
     transform="matrix(1.25,0,0,-1.25,0,365.50875)"
     id="g10"><g
       transform="translate(225.403,233.207)"
       id="g12"><g
         id="g14"><g
           id="g16"><path
             id="path18"
             style="fill:none;stroke:#000000;stroke-width:0.3985;stroke-linecap:butt;stroke-linejoin:miter;stroke-miterlimit:10;stroke-dasharray:none;stroke-opacity:1"
             d="m 0,0 0,-28.34679 m 0,0 0,-18.70874 m 0,-47.62287 0,-18.7088" /><g
             id="g20"><g
               transform="matrix(2,0,0,2,-21.94,38.611)"
               id="g22"><g
                 id="g24"><g
                   transform="translate(-203.463,-271.818)"
                   id="g26"><text
                     id="text28"
                     style="font-variant:normal;font-weight:normal;font-size:9.96263981px;font-family:LMRoman10;-inkscape-font-specification:LMRoman10-Regular;writing-mode:lr-tb;fill:#000000;fill-opacity:1;fill-rule:nonzero;stroke:none"
                     transform="matrix(1,0,0,-1,203.463,271.818)"><tspan
                       id="tspan30"
                       y="0"
                       x="0">3</tspan></text>
<text
                     id="text32"
                     style="font-variant:normal;font-weight:normal;font-size:9.96263981px;font-family:LMMathItalic10;-inkscape-font-specification:LMMathItalic10-Regular;writing-mode:lr-tb;fill:#000000;fill-opacity:1;fill-rule:nonzero;stroke:none"
                     transform="matrix(1,0,0,-1,208.444,271.818)"><tspan
                       id="tspan34"
                       y="0"
                       x="0">,</tspan></text>
<text
                     id="text36"
                     style="font-variant:normal;font-weight:normal;font-size:9.96263981px;font-family:LMRoman10;-inkscape-font-specification:LMRoman10-Regular;writing-mode:lr-tb;fill:#000000;fill-opacity:1;fill-rule:nonzero;stroke:none"
                     transform="matrix(1,0,0,-1,211.212,271.818)"><tspan
                       id="tspan38"
                       y="0"
                       x="0 6.635118">3V</tspan></text>
<g
                     transform="translate(203.463,271.818)"
                     id="g40" /></g></g><g
                 transform="translate(21.94,-38.611)"
                 id="g42" /></g><g
               id="g44"><g
                 id="g46"><path
                   id="path48"
                   style="fill:none;stroke:#000000;stroke-width:0.3985;stroke-linecap:butt;stroke-linejoin:miter;stroke-miterlimit:10;stroke-dasharray:none;stroke-opacity:1"
                   d="M 0,0 0,23.81085" /><path
                   id="path50"
                   style="fill:none;stroke:#000000;stroke-width:0.79699999;stroke-linecap:butt;stroke-linejoin:miter;stroke-miterlimit:10;stroke-dasharray:none;stroke-opacity:1"
                   d="M -7.93695,12.69914 0,23.81085 7.93695,12.69914" /></g></g></g><g
             id="g52" /><g
             id="g54" /><g
             id="g56"><path
               id="path58"
               style="fill:none;stroke:#000000;stroke-width:0.79699999;stroke-linecap:butt;stroke-linejoin:miter;stroke-miterlimit:10;stroke-dasharray:none;stroke-opacity:1"
               d="m 23.81143,-70.86696 c 0,13.15085 -10.66058,23.81143 -23.81143,23.81143 -13.15085,0 -23.81143,-10.66058 -23.81143,-23.81143 0,-13.15086 10.66058,-23.81144 23.81143,-23.81144 13.15085,0 23.81143,10.66058 23.81143,23.81144 z" /><g
               transform="matrix(0,-2,2,0,0,-70.866)"
               id="g60"><g
                 id="g62" /><g
                 transform="translate(0,70.866)"
                 id="g64" /></g></g><g
             id="g66"><g
               transform="matrix(2,0,0,2,33.232,-77.14)"
               id="g68"><g
                 id="g70"><g
                   transform="translate(-258.635,-156.067)"
                   id="g72"><text
                     id="text74"
                     style="font-variant:normal;font-weight:normal;font-size:9.96263981px;font-family:LMRoman10;-inkscape-font-specification:LMRoman10-Regular;writing-mode:lr-tb;fill:#000000;fill-opacity:1;fill-rule:nonzero;stroke:none"
                     transform="matrix(1,0,0,-1,258.635,156.067)"><tspan
                       id="tspan76"
                       y="0"
                       x="0 8.3018675 13.283188 17.15766 22.138979">motor</tspan></text>
<g
                     transform="translate(258.635,156.067)"
                     id="g78" /></g></g><g
                 transform="translate(-33.232,77.14)"
                 id="g80" /></g></g><g
             id="g82"><path
               id="path84"
               style="fill:none;stroke:#000000;stroke-width:0.3985;stroke-linecap:butt;stroke-linejoin:miter;stroke-miterlimit:10;stroke-dasharray:none;stroke-opacity:1"
               d="m 0,-113.3872 0,-26.19277 -23.81143,-10.91353" /><g
               id="g86"><path
                 id="path88"
                 style="fill:none;stroke:#000000;stroke-width:0.79699999;stroke-linecap:butt;stroke-linejoin:miter;stroke-miterlimit:10;stroke-dasharray:none;stroke-opacity:1"
                 d="m -23.81143,-139.57997 0,-34.92272" /></g><path
               id="path90"
               style="fill:none;stroke:#000000;stroke-width:0.3985;stroke-linecap:butt;stroke-linejoin:miter;stroke-miterlimit:10;stroke-dasharray:none;stroke-opacity:1"
               d="M -23.81143,-163.58916 0,-174.50269 0,-200.69545" /><g
               id="g92"><g
                 transform="matrix(1.82385,-0.83594,0.83594,1.82385,-11.905,-169.044)"
                 id="g94"><g
                   id="g96" /><g
                   transform="translate(11.905,169.044)"
                   id="g98" /></g><g
                 id="g100"><g
                   id="g102"><path
                     id="path104"
                     style="fill:#000000;fill-opacity:1;fill-rule:nonzero;stroke:#000000;stroke-width:0.3985;stroke-linecap:butt;stroke-linejoin:miter;stroke-miterlimit:10;stroke-dasharray:none;stroke-opacity:1"
                     d="m -15.07233,-167.59454 -1.6587,-3.61898 9.34904,0.0942 -6.03163,7.14372 -1.65871,-3.61898" /></g></g></g><path
               id="path106"
               style="fill:none;stroke:#000000;stroke-width:0.3985;stroke-linecap:butt;stroke-linejoin:miter;stroke-miterlimit:10;stroke-dasharray:none;stroke-opacity:1"
               d="m -23.81143,-157.04132 -23.81147,0" /><g
               transform="matrix(2,0,0,2,4.763,-130.847)"
               id="g108"><g
                 id="g110" /><g
                 transform="translate(-4.763,130.847)"
                 id="g112" /></g></g><g
             id="g114"><g
               transform="matrix(2,0,0,2,-9.132,-77.729)"
               id="g116"><g
                 id="g118"><g
                   transform="translate(-216.271,-155.478)"
                   id="g120"><text
                     id="text122"
                     style="font-variant:normal;font-weight:normal;font-size:9.96263981px;font-family:LMRoman10;-inkscape-font-specification:LMRoman10-Regular;writing-mode:lr-tb;fill:#000000;fill-opacity:1;fill-rule:nonzero;stroke:none"
                     transform="matrix(1,0,0,-1,216.271,155.478)"><tspan
                       id="tspan124"
                       y="0"
                       x="0">M</tspan></text>
<g
                     transform="translate(216.271,155.478)"
                     id="g126" /></g></g><g
                 transform="translate(9.132,77.729)"
                 id="g128" /></g></g><path
             id="path130"
             style="fill:none;stroke:#000000;stroke-width:0.3985;stroke-linecap:butt;stroke-linejoin:miter;stroke-miterlimit:10;stroke-dasharray:none;stroke-opacity:1"
             d="m 0,-113.3872 -28.34679,2e-5 m 0,0 -28.34683,-2e-5 m 0,0 3e-5,26.64632 m 0,31.74782 -3e-5,26.64627 m 0,0 0,28.34679 L 0,0" /><g
             id="g132" /><g
             id="g134" /><g
             id="g136"><g
               transform="matrix(-2,0,0,-2,-28.346,-113.386)"
               id="g138"><g
                 id="g140" /><g
                 transform="translate(28.346,113.386)"
                 id="g142" /></g></g><g
             id="g144"><g
               transform="matrix(2,0,0,2,0,-113.386)"
               id="g146"><g
                 id="g148" /><g
                 transform="translate(0,113.386)"
                 id="g150" /></g><g
               id="g152"><g
                 id="g154"><path
                   id="path156"
                   style="fill:#000000;fill-opacity:1;fill-rule:nonzero;stroke:#000000;stroke-width:0.3985;stroke-linecap:butt;stroke-linejoin:miter;stroke-miterlimit:10;stroke-dasharray:none;stroke-opacity:1"
                   d="m 3.17429,-113.3872 c 0,1.75312 -1.42118,3.1743 -3.17429,3.1743 -1.75311,0 -3.17429,-1.42118 -3.17429,-3.1743 0,-1.75312 1.42118,-3.1743 3.17429,-3.1743 1.75311,0 3.17429,1.42118 3.17429,3.1743 z" /></g></g></g><g
             id="g158" /><g
             id="g160" /><g
             id="g162"><g
               id="g164"><path
                 id="path166"
                 style="fill:none;stroke:#000000;stroke-width:0.79699999;stroke-linecap:butt;stroke-linejoin:miter;stroke-miterlimit:10;stroke-dasharray:none;stroke-opacity:1"
                 d="m -56.69359,-54.99306 -19.84268,-31.74782 39.68538,0 -19.8427,31.74782" /></g><path
               id="path168"
               style="fill:none;stroke:#000000;stroke-width:0.79699999;stroke-linecap:butt;stroke-linejoin:miter;stroke-miterlimit:10;stroke-dasharray:none;stroke-opacity:1"
               d="m -36.85089,-54.99306 -39.68538,0" /><g
               transform="matrix(0,2,-2,0,-56.692,-70.866)"
               id="g170"><g
                 id="g172" /><g
                 transform="translate(56.692,70.866)"
                 id="g174" /></g></g><g
             id="g176"><g
               transform="scale(2,2)"
               id="g178"><g
                 id="g180" /></g><g
               id="g182"><g
                 id="g184"><path
                   id="path186"
                   style="fill:#000000;fill-opacity:1;fill-rule:nonzero;stroke:#000000;stroke-width:0.3985;stroke-linecap:butt;stroke-linejoin:miter;stroke-miterlimit:10;stroke-dasharray:none;stroke-opacity:1"
                   d="M 3.17429,0 C 3.17429,1.75311 1.75311,3.17429 0,3.17429 -1.75311,3.17429 -3.17429,1.75311 -3.17429,0 c 0,-1.75311 1.42118,-3.17429 3.17429,-3.17429 1.75311,0 3.17429,1.42118 3.17429,3.17429 z" /></g></g></g><g
             id="g188"><g
               transform="matrix(2,0,0,2,0,-200.693)"
               id="g190"><g
                 id="g192" /><g
                 transform="translate(0,200.693)"
                 id="g194" /></g><g
               id="g196"><g
                 id="g198"><path
                   id="path200"
                   style="fill:none;stroke:#000000;stroke-width:0.3985;stroke-linecap:butt;stroke-linejoin:miter;stroke-miterlimit:10;stroke-dasharray:none;stroke-opacity:1"
                   d="m 0,-200.69545 0,-19.84268" /><path
                   id="path202"
                   style="fill:none;stroke:#000000;stroke-width:0.3985;stroke-linecap:butt;stroke-linejoin:miter;stroke-miterlimit:10;stroke-dasharray:none;stroke-opacity:1"
                   d="m -19.84268,-220.53813 39.68536,0" /><path
                   id="path204"
                   style="fill:none;stroke:#000000;stroke-width:0.3985;stroke-linecap:butt;stroke-linejoin:miter;stroke-miterlimit:10;stroke-dasharray:none;stroke-opacity:1"
                   d="m -15.87418,-224.5066 31.74836,0 m -27.77988,-3.96848 23.8114,0 m -19.84265,-3.96875 15.8739,0" /></g></g></g><path
             id="path206"
             style="fill:none;stroke:#000000;stroke-width:0.3985;stroke-linecap:butt;stroke-linejoin:miter;stroke-miterlimit:10;stroke-dasharray:none;stroke-opacity:1"
             d="m -47.6229,-157.04132 -13.60665,3e-5 m -63.49678,0 -13.60668,-3e-5" /><g
             id="g208" /><g
             id="g210" /><g
             id="g212"><path
               id="path214"
               style="fill:none;stroke:#000000;stroke-width:0.79699999;stroke-linecap:butt;stroke-linejoin:miter;stroke-miterlimit:10;stroke-dasharray:none;stroke-opacity:1"
               d="m -61.22955,-157.04129 -5.29139,-11.9057 -10.58276,23.8114 -10.58276,-23.8114 -10.58277,23.8114 -10.58276,-23.8114 -10.58278,23.8114 -5.29138,-11.9057" /><g
               transform="matrix(-2,0,0,-2,-92.976,-157.039)"
               id="g216"><g
                 id="g218" /><g
                 transform="translate(92.976,157.039)"
                 id="g220" /></g></g><g
             id="g222"><g
               transform="matrix(2,0,0,2,-116.776,-190.901)"
               id="g224"><g
                 id="g226"><g
                   transform="translate(-108.627,-42.306)"
                   id="g228"><text
                     id="text230"
                     style="font-variant:normal;font-weight:normal;font-size:9.96263981px;font-family:LMRoman10;-inkscape-font-specification:LMRoman10-Regular;writing-mode:lr-tb;fill:#000000;fill-opacity:1;fill-rule:nonzero;stroke:none"
                     transform="matrix(1,0,0,-1,108.627,42.306)"><tspan
                       id="tspan232"
                       y="0"
                       x="0 4.9813199 9.9626398 16.597757">180Ω</tspan></text>
<g
                     transform="translate(108.627,42.306)"
                     id="g234" /></g></g><g
                 transform="translate(116.776,190.901)"
                 id="g236" /></g></g><g
             id="g238"><g
               transform="matrix(2,0,0,2,-138.331,-157.039)"
               id="g240"><g
                 id="g242" /><g
                 transform="translate(138.331,157.039)"
                 id="g244" /></g><g
               id="g246"><g
                 id="g248"><path
                   id="path250"
                   style="fill:#ffffff;fill-opacity:1;fill-rule:nonzero;stroke:#000000;stroke-width:0.3985;stroke-linecap:butt;stroke-linejoin:miter;stroke-miterlimit:10;stroke-dasharray:none;stroke-opacity:1"
                   d="m -135.15872,-157.04132 c 0,1.75311 -1.42116,3.17429 -3.17429,3.17429 -1.75313,0 -3.1743,-1.42118 -3.1743,-3.17429 0,-1.75313 1.42117,-3.1743 3.1743,-3.1743 1.75313,0 3.17429,1.42117 3.17429,3.1743 z" /></g></g></g><g
             id="g252"><g
               transform="matrix(2,0,0,2,-218.762,-163.902)"
               id="g254"><g
                 id="g256"><g
                   transform="translate(-6.641,-69.305)"
                   id="g258"><text
                     id="text260"
                     style="font-variant:normal;font-weight:normal;font-size:9.96263981px;font-family:LMRoman10;-inkscape-font-specification:LMRoman10-Regular;writing-mode:lr-tb;fill:#000000;fill-opacity:1;fill-rule:nonzero;stroke:none"
                     transform="matrix(1,0,0,-1,6.641,69.305)"><tspan
                       id="tspan262"
                       y="0"
                       x="0 7.4719801 11.374346 16.908592 24.099627 31.710087">Ard.D9</tspan></text>
<g
                     transform="translate(6.641,69.305)"
                     id="g264" /></g></g><g
                 transform="translate(218.762,163.902)"
                 id="g266" /></g></g><path
             id="path268"
             style="fill:none;stroke:#000000;stroke-width:0.3985;stroke-linecap:butt;stroke-linejoin:miter;stroke-miterlimit:10;stroke-dasharray:none;stroke-opacity:1"
             d="m 170.08086,0 -3e-5,-68.88286 m 0,-63.49678 3e-5,-68.88287" /><g
             id="g270"><g
               transform="matrix(2,0,0,2,155.887,38.611)"
               id="g272"><g
                 id="g274"><g
                   transform="translate(-381.29,-271.818)"
                   id="g276"><text
                     id="text278"
                     style="font-variant:normal;font-weight:normal;font-size:9.96263981px;font-family:LMRoman10;-inkscape-font-specification:LMRoman10-Regular;writing-mode:lr-tb;fill:#000000;fill-opacity:1;fill-rule:nonzero;stroke:none"
                     transform="matrix(1,0,0,-1,381.29,271.818)"><tspan
                       id="tspan280"
                       y="0"
                       x="0 6.635118">5V</tspan></text>
<g
                     transform="translate(381.29,271.818)"
                     id="g282" /></g></g><g
                 transform="translate(-155.887,-38.611)"
                 id="g284" /></g><g
               id="g286"><g
                 id="g288"><path
                   id="path290"
                   style="fill:none;stroke:#000000;stroke-width:0.3985;stroke-linecap:butt;stroke-linejoin:miter;stroke-miterlimit:10;stroke-dasharray:none;stroke-opacity:1"
                   d="m 170.08086,0 0,23.81085" /><path
                   id="path292"
                   style="fill:none;stroke:#000000;stroke-width:0.79699999;stroke-linecap:butt;stroke-linejoin:miter;stroke-miterlimit:10;stroke-dasharray:none;stroke-opacity:1"
                   d="m 162.1439,12.69914 7.93696,11.11171 7.93694,-11.11171" /></g></g></g><g
             id="g294" /><g
             id="g296" /><g
             id="g298"><path
               id="path300"
               style="fill:none;stroke:#000000;stroke-width:0.79699999;stroke-linecap:butt;stroke-linejoin:miter;stroke-miterlimit:10;stroke-dasharray:none;stroke-opacity:1"
               d="m 170.08083,-68.88286 11.9057,-5.29138 -23.8114,-10.58278 23.8114,-10.58276 -23.8114,-10.58277 23.8114,-10.58276 -23.8114,-10.58276 11.9057,-5.29139" /><g
               id="g302"><path
                 id="path304"
                 style="fill:none;stroke:#000000;stroke-width:0.79699999;stroke-linecap:butt;stroke-linejoin:miter;stroke-miterlimit:10;stroke-dasharray:none;stroke-opacity:1"
                 d="m 201.82921,-100.63126 -16.73436,0" /><g
                 transform="matrix(-1,0,0,-1,185.09485,-100.63126)"
                 id="g306"><g
                   id="g308"><path
                     id="path310"
                     style="fill:#000000;fill-opacity:1;fill-rule:nonzero;stroke:none"
                     d="m 3.1083,0 c -1.29513,0.25902 -3.62635,0.77707 -5.1805,1.94269 1.29513,-1.42464 1.29513,-2.46074 0,-3.88538 C -0.51805,-0.77707 1.81317,-0.25902 3.1083,0 Z" /></g></g></g><g
               transform="matrix(0,-2,2,0,170.079,-100.63)"
               id="g312"><g
                 id="g314" /><g
                 transform="translate(-170.079,100.63)"
                 id="g316" /></g></g><g
             id="g318"><g
               transform="matrix(2,0,0,2,170.079,-201.26)"
               id="g320"><g
                 id="g322" /><g
                 transform="translate(-170.079,201.26)"
                 id="g324" /></g><g
               id="g326"><g
                 id="g328"><path
                   id="path330"
                   style="fill:none;stroke:#000000;stroke-width:0.3985;stroke-linecap:butt;stroke-linejoin:miter;stroke-miterlimit:10;stroke-dasharray:none;stroke-opacity:1"
                   d="m 170.08086,-201.26251 0,-19.84269" /><path
                   id="path332"
                   style="fill:none;stroke:#000000;stroke-width:0.3985;stroke-linecap:butt;stroke-linejoin:miter;stroke-miterlimit:10;stroke-dasharray:none;stroke-opacity:1"
                   d="m 150.23816,-221.1052 39.68538,0" /><path
                   id="path334"
                   style="fill:none;stroke:#000000;stroke-width:0.3985;stroke-linecap:butt;stroke-linejoin:miter;stroke-miterlimit:10;stroke-dasharray:none;stroke-opacity:1"
                   d="m 154.20667,-225.07367 31.74836,0 m -27.77987,-3.96847 23.8114,0 m -19.84266,-3.96876 15.8739,0" /></g></g></g><path
             id="path336"
             style="fill:none;stroke:#000000;stroke-width:0.3985;stroke-linecap:butt;stroke-linejoin:miter;stroke-miterlimit:10;stroke-dasharray:none;stroke-opacity:1"
             d="m 201.82921,-100.63126 5.66971,0" /><g
             id="g338"><g
               transform="matrix(2,0,0,2,207.497,-100.63)"
               id="g340"><g
                 id="g342" /><g
                 transform="translate(-207.497,100.63)"
                 id="g344" /></g><g
               id="g346"><g
                 id="g348"><path
                   id="path350"
                   style="fill:#ffffff;fill-opacity:1;fill-rule:nonzero;stroke:#000000;stroke-width:0.3985;stroke-linecap:butt;stroke-linejoin:miter;stroke-miterlimit:10;stroke-dasharray:none;stroke-opacity:1"
                   d="m 210.6732,-100.63126 c 0,1.75313 -1.42117,3.17431 -3.17428,3.17431 -1.75313,0 -3.1743,-1.42118 -3.1743,-3.17431 0,-1.75311 1.42117,-3.17428 3.1743,-3.17428 1.75311,0 3.17428,1.42117 3.17428,3.17428 z" /></g></g></g><g
             id="g352"><g
               transform="matrix(2,0,0,2,214.536,-107.493)"
               id="g354"><g
                 id="g356"><g
                   transform="translate(-439.939,-125.714)"
                   id="g358"><text
                     id="text360"
                     style="font-variant:normal;font-weight:normal;font-size:9.96263981px;font-family:LMRoman10;-inkscape-font-specification:LMRoman10-Regular;writing-mode:lr-tb;fill:#000000;fill-opacity:1;fill-rule:nonzero;stroke:none"
                     transform="matrix(1,0,0,-1,439.939,125.714)"><tspan
                       id="tspan362"
                       y="0"
                       x="0 7.4719801 11.374346 16.908592 24.099627 31.571606">Ard.A0</tspan></text>
<g
                     transform="translate(439.939,125.714)"
                     id="g364" /></g></g><g
                 transform="translate(-214.536,107.493)"
                 id="g366" /></g></g></g></g></g></g></svg>