<?xml version="1.0" encoding="UTF-8" standalone="no"?>
<svg
   xmlns:dc="http://purl.org/dc/elements/1.1/"
   xmlns:cc="http://creativecommons.org/ns#"
   xmlns:rdf="http://www.w3.org/1999/02/22-rdf-syntax-ns#"
   xmlns:svg="http://www.w3.org/2000/svg"
   xmlns="http://www.w3.org/2000/svg"
   viewBox="0 0 255.39 150.53375"
   height="150.53375"
   width="255.39"
   xml:space="preserve"
   version="1.1"
   id="svg2"><metadata
     id="metadata8"><rdf:RDF><cc:Work
         rdf:about=""><dc:format>image/svg+xml</dc:format><dc:type
           rdf:resource="http://purl.org/dc/dcmitype/StillImage" /></cc:Work></rdf:RDF></metadata><defs
     id="defs6" /><g
     transform="matrix(1.25,0,0,-1.25,0,150.53375)"
     id="g10"><g
       transform="translate(14.192,31.947)"
       id="g12"><g
         id="g14"><g
           id="g16"><path
             id="path18"
             style="fill:none;stroke:#000000;stroke-width:0.3985;stroke-linecap:butt;stroke-linejoin:miter;stroke-miterlimit:10;stroke-dasharray:none;stroke-opacity:1"
             d="M 0,0 0.3985,0 M 0,0 53.29202,0 m 63.49678,0 53.29206,0 m -0.39852,0 0.39852,0" /><g
             id="g20"><g
               transform="matrix(2,0,0,2,-14.192,38.611)"
               id="g22"><g
                 id="g24"><g
                   transform="translate(0,-70.558)"
                   id="g26"><text
                     id="text28"
                     style="font-variant:normal;font-weight:normal;font-size:9.96263981px;font-family:LMRoman10;-inkscape-font-specification:LMRoman10-Regular;writing-mode:lr-tb;fill:#000000;fill-opacity:1;fill-rule:nonzero;stroke:none"
                     transform="matrix(1,0,0,-1,0,70.558)"><tspan
                       id="tspan30"
                       y="0"
                       x="0 6.635118">5V</tspan></text>
<g
                     transform="translate(0,70.558)"
                     id="g32" /></g></g><g
                 transform="translate(14.192,-38.611)"
                 id="g34" /></g><g
               id="g36"><g
                 id="g38"><path
                   id="path40"
                   style="fill:none;stroke:#000000;stroke-width:0.3985;stroke-linecap:butt;stroke-linejoin:miter;stroke-miterlimit:10;stroke-dasharray:none;stroke-opacity:1"
                   d="M 0,0 0,23.81085" /><path
                   id="path42"
                   style="fill:none;stroke:#000000;stroke-width:0.79699999;stroke-linecap:butt;stroke-linejoin:miter;stroke-miterlimit:10;stroke-dasharray:none;stroke-opacity:1"
                   d="M -7.93695,12.69914 0,23.81085 7.93695,12.69914" /></g></g></g><g
             id="g44" /><g
             id="g46" /><g
             id="g48"><path
               id="path50"
               style="fill:none;stroke:#000000;stroke-width:0.79699999;stroke-linecap:butt;stroke-linejoin:bevel;stroke-miterlimit:10;stroke-dasharray:none;stroke-opacity:1"
               d="m 52.89351,0 5.7231,11.9057 10.64915,-23.8114 10.64917,23.8114 10.64917,-23.8114 10.64917,23.8114 10.64917,-23.8114 L 117.18703,0" /><g
               id="g52"><path
                 id="path54"
                 style="fill:none;stroke:#000000;stroke-width:0.79699999;stroke-linecap:butt;stroke-linejoin:bevel;stroke-miterlimit:10;stroke-dasharray:none;stroke-opacity:1"
                 d="m 85.0404,31.74838 0,-16.73438" /><g
                 transform="matrix(0,-1,1,0,85.0404,15.014)"
                 id="g56"><g
                   id="g58"><path
                     id="path60"
                     style="fill:#000000;fill-opacity:1;fill-rule:nonzero;stroke:none"
                     d="m 3.1083,0 c -1.29513,0.25902 -3.62635,0.77707 -5.1805,1.94269 1.29513,-1.42464 1.29513,-2.46074 0,-3.88538 C -0.51805,-0.77707 1.81317,-0.25902 3.1083,0 Z" /></g></g></g><g
               transform="matrix(2,0,0,2,85.039,0)"
               id="g62"><g
                 id="g64" /><g
                 transform="translate(-85.039,0)"
                 id="g66" /></g></g><g
             id="g68" /><g
             id="g70" /><g
             id="g72"><g
               transform="matrix(2,0,0,2,170.078,0)"
               id="g74"><g
                 id="g76" /><g
                 transform="translate(-170.078,0)"
                 id="g78" /></g><g
               id="g80"><g
                 id="g82"><path
                   id="path84"
                   style="fill:none;stroke:#000000;stroke-width:0.3985;stroke-linecap:butt;stroke-linejoin:miter;stroke-miterlimit:10;stroke-dasharray:none;stroke-opacity:1"
                   d="m 170.08086,0 0,-19.84268" /><path
                   id="path86"
                   style="fill:none;stroke:#000000;stroke-width:0.3985;stroke-linecap:butt;stroke-linejoin:miter;stroke-miterlimit:10;stroke-dasharray:none;stroke-opacity:1"
                   d="m 150.23816,-19.84268 39.68538,0" /><path
                   id="path88"
                   style="fill:none;stroke:#000000;stroke-width:0.3985;stroke-linecap:butt;stroke-linejoin:miter;stroke-miterlimit:10;stroke-dasharray:none;stroke-opacity:1"
                   d="m 154.20667,-23.81116 31.74836,0 m -27.77987,-3.96847 23.8114,0 m -19.84266,-3.96875 15.8739,0" /></g></g></g><path
             id="path90"
             style="fill:none;stroke:#000000;stroke-width:0.3985;stroke-linecap:butt;stroke-linejoin:miter;stroke-miterlimit:10;stroke-dasharray:none;stroke-opacity:1"
             d="m 85.0404,31.74838 0,0.3985 m 0,-0.3985 0,14.17339 m 0,0 0,14.1734 m 0,-0.3985 0,0.3985" /><g
             id="g92" /><g
             id="g94" /><g
             id="g96"><g
               transform="matrix(0,2,-2,0,85.039,45.921)"
               id="g98"><g
                 id="g100" /><g
                 transform="translate(-85.039,-45.921)"
                 id="g102" /></g></g><g
             id="g104" /><g
             id="g106" /><g
             id="g108"><g
               transform="matrix(2,0,0,2,85.039,31.748)"
               id="g110"><g
                 id="g112" /><g
                 transform="translate(-85.039,-31.748)"
                 id="g114" /></g><g
               id="g116"><g
                 id="g118"><path
                   id="path120"
                   style="fill:#000000;fill-opacity:1;fill-rule:nonzero;stroke:#000000;stroke-width:0.3985;stroke-linecap:butt;stroke-linejoin:miter;stroke-miterlimit:10;stroke-dasharray:none;stroke-opacity:1"
                   d="m 88.2147,31.74838 c 0,1.75313 -1.42117,3.1743 -3.1743,3.1743 -1.75312,0 -3.17428,-1.42117 -3.17428,-3.1743 0,-1.75313 1.42116,-3.1743 3.17428,-3.1743 1.75313,0 3.1743,1.42117 3.1743,3.1743 z" /></g></g></g><g
             id="g122"><g
               transform="matrix(2,0,0,2,85.039,60.095)"
               id="g124"><g
                 id="g126" /><g
                 transform="translate(-85.039,-60.095)"
                 id="g128" /></g><g
               id="g130"><g
                 id="g132"><path
                   id="path134"
                   style="fill:#ffffff;fill-opacity:1;fill-rule:nonzero;stroke:#000000;stroke-width:0.3985;stroke-linecap:butt;stroke-linejoin:miter;stroke-miterlimit:10;stroke-dasharray:none;stroke-opacity:1"
                   d="m 88.2147,60.09517 c 0,1.75313 -1.42117,3.1743 -3.1743,3.1743 -1.75312,0 -3.17428,-1.42117 -3.17428,-3.1743 0,-1.75311 1.42116,-3.17429 3.17428,-3.17429 1.75313,0 3.1743,1.42118 3.1743,3.17429 z" /></g></g></g><g
             id="g136"><g
               transform="matrix(2,0,0,2,48.476,67.573)"
               id="g138"><g
                 id="g140"><g
                   transform="translate(-62.668,-99.52)"
                   id="g142"><text
                     id="text144"
                     style="font-variant:normal;font-weight:normal;font-size:9.96263981px;font-family:LMRoman10;-inkscape-font-specification:LMRoman10-Regular;writing-mode:lr-tb;fill:#000000;fill-opacity:1;fill-rule:nonzero;stroke:none"
                     transform="matrix(1,0,0,-1,62.668,99.52)"><tspan
                       id="tspan146"
                       y="0"
                       x="0 7.4719801 11.377335 16.916563 24.109589 31.58157">Ard.A0</tspan></text>
<g
                     transform="translate(62.668,99.52)"
                     id="g148" /></g></g><g
                 transform="translate(-48.476,-67.573)"
                 id="g150" /></g></g></g></g></g></g></svg>