<?xml version="1.0" encoding="UTF-8" standalone="no"?>
<svg
   xmlns:dc="http://purl.org/dc/elements/1.1/"
   xmlns:cc="http://creativecommons.org/ns#"
   xmlns:rdf="http://www.w3.org/1999/02/22-rdf-syntax-ns#"
   xmlns:svg="http://www.w3.org/2000/svg"
   xmlns="http://www.w3.org/2000/svg"
   viewBox="0 0 513.17749 90.5625"
   height="90.5625"
   width="513.17749"
   xml:space="preserve"
   version="1.1"
   id="svg2"><metadata
     id="metadata8"><rdf:RDF><cc:Work
         rdf:about=""><dc:format>image/svg+xml</dc:format><dc:type
           rdf:resource="http://purl.org/dc/dcmitype/StillImage" /></cc:Work></rdf:RDF></metadata><defs
     id="defs6" /><g
     transform="matrix(1.25,0,0,-1.25,0,90.5625)"
     id="g10"><g
       transform="translate(163.729,31.947)"
       id="g12"><g
         id="g14"><g
           id="g16"><path
             id="path18"
             style="fill:none;stroke:#000000;stroke-width:0.3985;stroke-linecap:butt;stroke-linejoin:miter;stroke-miterlimit:10;stroke-dasharray:none;stroke-opacity:1"
             d="M 0,0 24.94522,0 M 88.442,0 113.38724,0 m 0,0 40.8197,0 m 31.74782,0 40.81972,0" /><g
             id="g20"><g
               transform="matrix(2,0,0,2,-157.088,-4.926)"
               id="g22"><g
                 id="g24"><g
                   transform="translate(-6.641,-27.021)"
                   id="g26"><text
                     id="text28"
                     style="font-variant:normal;font-weight:normal;font-size:9.96263981px;font-family:LMRoman10;-inkscape-font-specification:LMRoman10-Regular;writing-mode:lr-tb;fill:#000000;fill-opacity:1;fill-rule:nonzero;stroke:none"
                     transform="matrix(1,0,0,-1,6.641,27.021)"><tspan
                       id="tspan30"
                       y="0"
                       x="0 7.4719801 11.374346 16.908592 22.442839 25.210461 30.744707 39.043587 44.577831 47.345455 52.326775 55.094395 58.968864 63.950188 70.03537">Arduinodigital9</tspan></text>
<g
                     transform="translate(6.641,27.021)"
                     id="g32" /></g></g><g
                 transform="translate(157.088,4.926)"
                 id="g34" /></g></g><g
             id="g36"><g
               transform="scale(2,2)"
               id="g38"><g
                 id="g40" /></g><g
               id="g42"><g
                 id="g44"><path
                   id="path46"
                   style="fill:#ffffff;fill-opacity:1;fill-rule:nonzero;stroke:#000000;stroke-width:0.3985;stroke-linecap:butt;stroke-linejoin:miter;stroke-miterlimit:10;stroke-dasharray:none;stroke-opacity:1"
                   d="M 3.17429,0 C 3.17429,1.75311 1.75311,3.17429 0,3.17429 -1.75311,3.17429 -3.17429,1.75311 -3.17429,0 c 0,-1.75311 1.42118,-3.17429 3.17429,-3.17429 1.75311,0 3.17429,1.42118 3.17429,3.17429 z" /></g></g></g><g
             id="g48" /><g
             id="g50" /><g
             id="g52"><path
               id="path54"
               style="fill:none;stroke:#000000;stroke-width:0.79699999;stroke-linecap:butt;stroke-linejoin:miter;stroke-miterlimit:10;stroke-dasharray:none;stroke-opacity:1"
               d="M 24.94522,0 30.2366,11.9057 40.81937,-11.9057 51.40215,11.9057 61.98491,-11.9057 72.56767,11.9057 83.15044,-11.9057 88.44182,0" /><g
               transform="matrix(2,0,0,2,56.692,0)"
               id="g56"><g
                 id="g58" /><g
                 transform="translate(-56.692,0)"
                 id="g60" /></g></g><g
             id="g62"><g
               transform="matrix(2,0,0,2,32.893,20.136)"
               id="g64"><g
                 id="g66"><g
                   transform="translate(-196.622,-52.083)"
                   id="g68"><text
                     id="text70"
                     style="font-variant:normal;font-weight:normal;font-size:9.96263981px;font-family:LMRoman10;-inkscape-font-specification:LMRoman10-Regular;writing-mode:lr-tb;fill:#000000;fill-opacity:1;fill-rule:nonzero;stroke:none"
                     transform="matrix(1,0,0,-1,196.622,52.083)"><tspan
                       id="tspan72"
                       y="0"
                       x="0 4.9813199 9.9626398 16.597757">180Ω</tspan></text>
<g
                     transform="translate(196.622,52.083)"
                     id="g74" /></g></g><g
                 transform="translate(-32.893,-20.136)"
                 id="g76" /></g></g><g
             id="g78" /><g
             id="g80" /><g
             id="g82"><g
               id="g84"><path
                 id="path86"
                 style="fill:none;stroke:#000000;stroke-width:0.79699999;stroke-linecap:butt;stroke-linejoin:miter;stroke-miterlimit:10;stroke-dasharray:none;stroke-opacity:1"
                 d="m 185.95476,0 -31.74782,19.84268 0,-39.68536 L 185.95476,0" /></g><path
               id="path88"
               style="fill:none;stroke:#000000;stroke-width:0.79699999;stroke-linecap:butt;stroke-linejoin:miter;stroke-miterlimit:10;stroke-dasharray:none;stroke-opacity:1"
               d="m 185.95476,-19.84268 0,39.68536" /><path
               id="path90"
               style="fill:none;stroke:#000000;stroke-width:0.3985;stroke-linecap:butt;stroke-linejoin:miter;stroke-miterlimit:10;stroke-dasharray:none;stroke-opacity:1"
               d="m 163.73141,19.84268 14.37296,17.96649" /><g
               transform="matrix(0.62773,0.78468,-0.78468,0.62773,178.10437,37.80917)"
               id="g92"><g
                 id="g94"><path
                   id="path96"
                   style="fill:#000000;fill-opacity:1;fill-rule:nonzero;stroke:none"
                   d="m 2.39102,0 c -0.99626,0.19925 -2.78952,0.59775 -3.98503,1.49438 0.99626,-1.09588 0.99626,-1.89288 0,-2.98876 C -0.3985,-0.59775 1.39476,-0.19925 2.39102,0 Z" /></g></g><path
               id="path98"
               style="fill:none;stroke:#000000;stroke-width:0.3985;stroke-linecap:butt;stroke-linejoin:miter;stroke-miterlimit:10;stroke-dasharray:none;stroke-opacity:1"
               d="m 173.25557,15.87418 14.37299,17.96649" /><g
               transform="matrix(0.62773,0.78468,-0.78468,0.62773,187.62856,33.84067)"
               id="g100"><g
                 id="g102"><path
                   id="path104"
                   style="fill:#000000;fill-opacity:1;fill-rule:nonzero;stroke:none"
                   d="m 2.39102,0 c -0.99626,0.19925 -2.78952,0.59775 -3.98503,1.49438 0.99626,-1.09588 0.99626,-1.89288 0,-2.98876 C -0.3985,-0.59775 1.39476,-0.19925 2.39102,0 Z" /></g></g><g
               transform="matrix(2,0,0,2,170.078,0)"
               id="g106"><g
                 id="g108" /><g
                 transform="translate(-170.078,0)"
                 id="g110" /></g></g><g
             id="g112"><g
               transform="matrix(2,0,0,2,226.771,0)"
               id="g114"><g
                 id="g116" /><g
                 transform="translate(-226.771,0)"
                 id="g118" /></g><g
               id="g120"><g
                 id="g122"><path
                   id="path124"
                   style="fill:none;stroke:#000000;stroke-width:0.3985;stroke-linecap:butt;stroke-linejoin:miter;stroke-miterlimit:10;stroke-dasharray:none;stroke-opacity:1"
                   d="m 226.77448,0 0,-19.84268" /><path
                   id="path126"
                   style="fill:none;stroke:#000000;stroke-width:0.3985;stroke-linecap:butt;stroke-linejoin:miter;stroke-miterlimit:10;stroke-dasharray:none;stroke-opacity:1"
                   d="m 206.93178,-19.84268 39.68538,0" /><path
                   id="path128"
                   style="fill:none;stroke:#000000;stroke-width:0.3985;stroke-linecap:butt;stroke-linejoin:miter;stroke-miterlimit:10;stroke-dasharray:none;stroke-opacity:1"
                   d="m 210.9003,-23.81116 31.74835,0 m -27.77988,-3.96847 23.81141,0 m -19.84266,-3.96875 15.87391,0" /></g></g></g></g></g></g></g></svg>