<?xml version="1.0" encoding="UTF-8" standalone="no"?>
<svg
   xmlns:dc="http://purl.org/dc/elements/1.1/"
   xmlns:cc="http://creativecommons.org/ns#"
   xmlns:rdf="http://www.w3.org/1999/02/22-rdf-syntax-ns#"
   xmlns:svg="http://www.w3.org/2000/svg"
   xmlns="http://www.w3.org/2000/svg"
   viewBox="0 0 547.45465 97.077332"
   height="97.077332"
   width="547.45465"
   xml:space="preserve"
   id="svg2"
   version="1.1"><metadata
     id="metadata8"><rdf:RDF><cc:Work
         rdf:about=""><dc:format>image/svg+xml</dc:format><dc:type
           rdf:resource="http://purl.org/dc/dcmitype/StillImage" /></cc:Work></rdf:RDF></metadata><defs
     id="defs6" /><g
     transform="matrix(1.3333333,0,0,-1.3333333,0,97.077333)"
     id="g10"><g
       transform="translate(163.778,31.947)"
       id="g12"><g
         id="g14"><g
           id="g16"><path
             id="path18"
             style="fill:none;stroke:#000000;stroke-width:0.3985;stroke-linecap:butt;stroke-linejoin:miter;stroke-miterlimit:10;stroke-dasharray:none;stroke-opacity:1"
             d="M 0,0 H 0.3985 M 0,0 H 24.94522 M 88.442,0 h 24.94524 m -0.39852,0 h 0.39852 0.3985 m -0.3985,0 h 40.8197 m 31.74782,0 h 40.81972 m -0.39852,0 h 0.39852" /><g
             id="g20"><g
               transform="matrix(2,0,0,2,-157.137,-5.081)"
               id="g22"><g
                 id="g24"><g
                   transform="translate(-6.641,-26.866)"
                   id="g26"><text
                     id="text30"
                     style="font-variant:normal;font-weight:normal;font-size:9.96263981px;font-family:LMRoman10;-inkscape-font-specification:LMRoman10-Regular;writing-mode:lr-tb;fill:#000000;fill-opacity:1;fill-rule:nonzero;stroke:none"
                     transform="matrix(1,0,0,-1,6.641,26.866)"><tspan
                       id="tspan28"
                       y="0"
                       x="0 7.4719801 11.377335 16.916563 22.455791 25.225405 30.764633 39.063511 44.602737 47.372353 52.353672 55.123287 58.998753 63.980076 70.067245">Arduinodigital9</tspan></text>
<g
                     transform="translate(6.641,26.866)"
                     id="g32" /></g></g><g
                 transform="translate(157.137,5.081)"
                 id="g34" /></g></g><g
             id="g36"><g
               transform="scale(2)"
               id="g38"><g
                 id="g40" /></g><g
               id="g42"><g
                 id="g44"><path
                   id="path46"
                   style="fill:#ffffff;fill-opacity:1;fill-rule:nonzero;stroke:#000000;stroke-width:0.3985;stroke-linecap:butt;stroke-linejoin:miter;stroke-miterlimit:10;stroke-dasharray:none;stroke-opacity:1"
                   d="M 3.17429,0 C 3.17429,1.75311 1.75311,3.17429 0,3.17429 -1.75311,3.17429 -3.17429,1.75311 -3.17429,0 c 0,-1.75311 1.42118,-3.17429 3.17429,-3.17429 1.75311,0 3.17429,1.42118 3.17429,3.17429 z" /></g></g></g><g
             id="g48" /><g
             id="g50" /><g
             id="g52"><path
               id="path54"
               style="fill:none;stroke:#000000;stroke-width:0.79699999;stroke-linecap:butt;stroke-linejoin:bevel;stroke-miterlimit:10;stroke-dasharray:none;stroke-opacity:1"
               d="M 24.54672,0 30.2698,11.9057 40.91898,-11.9057 51.56815,11.9057 62.21732,-11.9057 72.86649,11.9057 83.51566,-11.9057 88.84023,0" /><g
               transform="matrix(2,0,0,2,56.693,0)"
               id="g56"><g
                 id="g58" /><g
                 transform="translate(-56.693)"
                 id="g60" /></g></g><g
             id="g62" /><g
             id="g64" /><g
             id="g66" /><g
             id="g68"><g
               transform="matrix(2,0,0,2,32.893,20.494)"
               id="g70"><g
                 id="g72"><g
                   transform="translate(-196.671,-52.441)"
                   id="g74"><text
                     id="text78"
                     style="font-variant:normal;font-weight:normal;font-size:9.96263981px;font-family:LMRoman10;-inkscape-font-specification:LMRoman10-Regular;writing-mode:lr-tb;fill:#000000;fill-opacity:1;fill-rule:nonzero;stroke:none"
                     transform="matrix(1,0,0,-1,196.671,52.441)"><tspan
                       id="tspan76"
                       y="0"
                       x="0 4.9813199 9.9626398 16.597757">180Ω</tspan></text>
<g
                     transform="translate(196.671,52.441)"
                     id="g80" /></g></g><g
                 transform="translate(-32.893,-20.494)"
                 id="g82" /></g></g><g
             id="g84" /><g
             id="g86" /><g
             id="g88"><g
               id="g90"><path
                 id="path92"
                 style="fill:none;stroke:#000000;stroke-width:0.79699999;stroke-linecap:butt;stroke-linejoin:miter;stroke-miterlimit:10;stroke-dasharray:none;stroke-opacity:1"
                 d="M 185.95476,0 154.20694,19.84268 V -19.84268 L 185.95476,0" /></g><path
               id="path94"
               style="fill:none;stroke:#000000;stroke-width:0.79699999;stroke-linecap:butt;stroke-linejoin:miter;stroke-miterlimit:10;stroke-dasharray:none;stroke-opacity:1"
               d="M 185.95476,-19.84268 V 19.84268" /><path
               id="path96"
               style="fill:none;stroke:#000000;stroke-width:0.3985;stroke-linecap:butt;stroke-linejoin:miter;stroke-miterlimit:10;stroke-dasharray:none;stroke-opacity:1"
               d="m 163.73141,19.84268 14.37296,17.96649" /><g
               transform="matrix(0.62773,0.78468,-0.78468,0.62773,178.10437,37.80917)"
               id="g98"><g
                 id="g100"><path
                   id="path102"
                   style="fill:#000000;fill-opacity:1;fill-rule:nonzero;stroke:none"
                   d="m 2.39102,0 c -0.99626,0.19925 -2.78952,0.59775 -3.98503,1.49438 0.99626,-1.09588 0.99626,-1.89288 0,-2.98876 C -0.3985,-0.59775 1.39476,-0.19925 2.39102,0 Z" /></g></g><path
               id="path104"
               style="fill:none;stroke:#000000;stroke-width:0.3985;stroke-linecap:butt;stroke-linejoin:miter;stroke-miterlimit:10;stroke-dasharray:none;stroke-opacity:1"
               d="m 173.25557,15.87418 14.37299,17.96649" /><g
               transform="matrix(0.62773,0.78468,-0.78468,0.62773,187.62856,33.84067)"
               id="g106"><g
                 id="g108"><path
                   id="path110"
                   style="fill:#000000;fill-opacity:1;fill-rule:nonzero;stroke:none"
                   d="m 2.39102,0 c -0.99626,0.19925 -2.78952,0.59775 -3.98503,1.49438 0.99626,-1.09588 0.99626,-1.89288 0,-2.98876 C -0.3985,-0.59775 1.39476,-0.19925 2.39102,0 Z" /></g></g><g
               transform="matrix(2,0,0,2,170.078,0)"
               id="g112"><g
                 id="g114" /><g
                 transform="translate(-170.078)"
                 id="g116" /></g></g><g
             id="g118" /><g
             id="g120" /><g
             id="g122"><g
               transform="matrix(2,0,0,2,226.771,0)"
               id="g124"><g
                 id="g126" /><g
                 transform="translate(-226.771)"
                 id="g128" /></g><g
               id="g130"><g
                 id="g132"><path
                   id="path134"
                   style="fill:none;stroke:#000000;stroke-width:0.3985;stroke-linecap:butt;stroke-linejoin:miter;stroke-miterlimit:10;stroke-dasharray:none;stroke-opacity:1"
                   d="M 226.77448,0 V -19.84268" /><path
                   id="path136"
                   style="fill:none;stroke:#000000;stroke-width:0.3985;stroke-linecap:butt;stroke-linejoin:miter;stroke-miterlimit:10;stroke-dasharray:none;stroke-opacity:1"
                   d="m 206.93178,-19.84268 h 39.68538" /><path
                   id="path138"
                   style="fill:none;stroke:#000000;stroke-width:0.3985;stroke-linecap:butt;stroke-linejoin:miter;stroke-miterlimit:10;stroke-dasharray:none;stroke-opacity:1"
                   d="m 210.9003,-23.81116 h 31.74835 m -27.77988,-3.96847 h 23.81141 m -19.84266,-3.96875 h 15.87391" /></g></g></g></g></g></g></g></svg>